<svg width="24" height="24" viewBox="0 0 24 24" fill="none" xmlns="http://www.w3.org/2000/svg">
<path d="M23.5862 19.9999H0.413813C0.185297 19.9999 0 19.8103 0 19.5764V15.7646H24V19.5764C24 19.8103 23.8147 19.9999 23.5862 19.9999Z" fill="#73AF00"/>
<path d="M23.5862 4H0.413813C0.185297 4 0 4.18815 0 4.42019V15.7647H24V4.42019C24 4.18815 23.8147 4 23.5862 4Z" fill="#FF4B55"/>
<path d="M3.23077 20H0.403863C0.180842 20 0 19.8115 0 19.5789V4.42107C0 4.18855 0.180842 4 0.403863 4H3.23077V20Z" fill="#F5F5F5"/>
<path d="M0.461426 19.2531H0.597462V18.8385H0.461426V19.2531ZM1.54719 19.2531H1.68327V18.8385H1.54719V19.2531ZM2.63365 19.2531H2.76907V18.8385H2.63365V19.2531ZM1.005 18.1414H1.13969V17.7959H1.005V18.1414ZM2.09142 18.1414H2.22685V17.7959H2.09142V18.1414ZM0.461426 17.24H0.597462V16.8254H0.461426V17.24ZM1.54719 17.24H1.68327V16.8254H1.54719V17.24ZM2.63365 17.24H2.76907V16.8254H2.63365V17.24ZM0.734239 17.7959H0.868924V17.4473H1.005V17.1017H1.13969V17.4473H1.27647V17.7959H1.41115V18.1414H1.27647V18.4899H1.13969V18.8384H1.005V18.4899H0.868924V18.1414H0.734239V17.7959ZM1.82005 17.7959H1.95608V17.4473H2.09146V17.1017H2.22689V17.4473H2.36227V17.7959H2.49831V18.1414H2.36227V18.4899H2.22689V18.8384H2.09146V18.4899H1.95608V18.1414H1.82005V17.7959ZM2.09142 16.4078V16.7533H1.95473V17.1018H1.82005V17.4473H1.68327V17.7959H1.54719V17.4473H1.41111V17.1018H1.27642V16.7533H1.13965V16.4078H1.00496V16.7533H0.868881V17.1018H0.734195V17.4473H0.597418V17.7959H0.461426V18.1415H0.597462V18.4899H0.734239V18.8384H0.868924V19.1839H1.005V19.5295H1.14108V19.1839H1.27647V18.8384H1.41115V18.4899H1.54723V18.1415H1.68331V18.4899H1.82009V18.8384H1.95613V19.1839H2.09151V19.5295H2.22693V19.1839H2.36232V18.8384H2.49835V18.4899H2.63443V18.1415H2.76912V17.7959H2.63369V17.4473H2.49835V17.1018H2.36232V16.7533H2.22693V16.4078H2.09142ZM2.42781 16.0623H2.49552V15.9241H2.56389V16.0623H2.63225V16.2004H2.56389V16.3417H2.49552V16.2004H2.42781V16.0623ZM2.42781 15.5785V15.7829H2.36084V15.9932H2.29247V16.2696H2.36084V16.4769H2.42781V16.6842H2.6323V16.4769H2.70001V16.2696H2.76698V15.9932H2.70001V15.7829H2.6323V15.5785H2.42781ZM0.597462 16.0592H0.665829V15.9211H0.734195V16.0592H0.800471V16.2004H0.734195V16.3386H0.665829V16.2004H0.597462V16.0592ZM0.597462 15.5755V15.7828H0.529749V15.9901H0.461426V16.2695H0.529749V16.4768H0.597462V16.6841H0.800514V16.4768H0.868881V16.2695H0.935243V15.9901H0.868881V15.7828H0.800514V15.5755H0.597462ZM1.34409 16.0592H1.41107V15.9211H1.48017V16.0592H1.54714V16.2004H1.48017V16.3386H1.41107V16.2004H1.34409V16.0592ZM1.68327 16.0592H1.75163V15.9211H1.82V16.0592H1.88697V16.2004H1.82V16.3386H1.75163V16.2004H1.68327V16.0592ZM1.68327 15.5755V15.7828H1.54719V15.5755H1.34414V15.7828H1.27642V15.9901H1.20806V16.2695H1.27642V16.4768H1.34414V16.6841H1.54719V16.4768H1.68327V16.6841H1.88702V16.4768H1.95608V16.2695H2.02244V15.9901H1.95608V15.7828H1.88702V15.5755H1.68327ZM0.461426 15.4343H0.597462V15.0197H0.461426V15.4343ZM1.54719 15.4343H1.68327V15.0197H1.54719V15.4343ZM2.63365 15.4343H2.76907V15.0197H2.63365V15.4343ZM0.461426 13.7006H0.597462V13.4243H0.461426V13.7006ZM2.63365 13.7006H2.76907V13.4243H2.63365V13.7006ZM1.54719 12.7302H1.68327V12.3846H1.54719V12.7302ZM0.461426 11.7928V12.0001V12.0031V12.2103H0.597462V12.0031V12.0001V11.7928H0.461426ZM1.20801 11.7928V12.0001V12.0031V12.2103H1.34409V12.0031V12.0001V11.7928H1.20801ZM1.88702 11.7928V12.0001V12.0031V12.2103H2.0224V12.0031V12.0001V11.7928H1.88702ZM2.63365 11.7928V12.0001V12.0031V12.2103H2.76907V12.0031V12.0001V11.7928H2.63365ZM1.75163 11.5495V11.6877H1.68327V11.7928H1.54719V11.6877H1.48022V11.5495H1.34414V11.7568H1.41111V11.8619H1.48022V12.0001V12.0031V12.1383H1.41111V12.2435H1.34414V12.4507H1.48022V12.3126H1.54719V12.2104H1.68327V12.3126H1.75163V12.4507H1.88702V12.2435H1.82005V12.1383H1.75168V12.0031V12.0001V11.8619H1.82005V11.7568H1.88702V11.5495H1.75163ZM1.54719 11.6185H1.68327V11.273H1.54719V11.6185ZM0.461426 10.5789H0.597462V10.3025H0.461426V10.5789ZM2.63365 10.5789H2.76907V10.3025H2.63365V10.5789ZM0.461426 8.98352H0.597462V8.56596H0.461426V8.98352ZM1.54719 8.98352H1.68327V8.56596H1.54719V8.98352ZM2.63365 8.98352H2.76907V8.56596H2.63365V8.98352ZM1.005 12.0061V11.9971V11.8619H1.13969V11.6215H1.27647V11.342H1.48022V11.0146H1.54719V10.8553H1.6156H1.68327V11.0116H1.75163V11.3421H1.95604V11.4803V11.6215H2.09142V11.8619H2.22685V12.0001V12.1383H2.09142V12.3846H1.95604V12.5228V12.661H1.75163V12.9885H1.68327V13.1447H1.6156H1.54719V12.9885H1.48022V12.661H1.27647V12.3845H1.13969V12.1382H1.005V12.0061ZM2.09142 8.1483V8.49678H1.95473V8.84231H1.82005V9.19093H1.68327V9.46728V9.53642H1.54719V9.19088H1.41111V8.84227H1.27642V8.49673H1.13965V8.14826H1.00496V8.49673H0.868881V8.84227H0.732801V9.19088H0.597418V9.46723V9.53637H0.461426V9.88484H0.597462V10.2333H0.732845V10.5789H0.868924V10.9244H1.005V10.5789H1.13969V10.2333H1.27647V9.88484H1.13969V9.46719H1.27647V9.53632V9.74662H1.41115V10.3025H1.48026V10.645L1.27651 10.648V10.9244H1.13973V11.1317H1.00505V11.4802H0.868968V11.1317H0.732888V10.9244H0.597506V10.7171H0.461426V11.342H0.597462V11.6214H0.732845V11.8618H0.868924V12.0001V12.0031V12.1383H0.732845V12.3847H0.597462V12.6611H0.461426V13.286H0.597462V13.0757H0.732845V12.8684H0.868924V12.5229H1.005V12.8684H1.13969V13.0757H1.27647V13.3551L1.48022 13.3581V13.7006H1.41111V14.2565H1.27642V14.4638V14.5359H1.13965V14.1153H1.27642V13.7698H1.13965V13.4242H1.00496V13.0756H0.868881V13.4242H0.732801V13.7698H0.597418V14.1153H0.461426V14.4638H0.597462V14.5359V14.8093H0.734239V15.1579H0.868924V15.5064H1.005V15.8519H1.13969V15.5064H1.27647V15.1579H1.41115V14.8093H1.54723V14.4638H1.68331V14.5359V14.8093H1.82009V15.1579H1.95613V15.5064H2.09151V15.8519H2.22693V15.5064H2.36232V15.1579H2.49835V14.8093H2.63369V14.4638H2.76907V14.1153H2.63365V13.7698H2.49831V13.4242H2.36227V13.0756H2.22689V13.4242H2.09146V13.7698H1.95477V14.1153H2.09146V14.4638V14.5359H1.95477V14.4638V14.2565H1.82009V13.7006H1.8007H1.75172V13.3551H1.8007H1.83734H1.88706H1.95613V13.0757H2.09151V12.8684H2.22693V12.5229H2.36232V12.8684H2.49835V13.0757H2.63443V13.286H2.76912V12.6611H2.63439V12.3846H2.49831V12.1383H2.36227V12.0031V12.0001V11.8619H2.49831V11.6215H2.63439V11.3421H2.76912V10.7172H2.63439V10.9245H2.49831V11.1318H2.36227V11.4803H2.22689V11.1318H2.09146V10.9245H1.95608V10.6481H1.88702H1.8373H1.80066H1.75168V10.3025H1.80066H1.82005V9.74667H1.95473V9.53637V9.46723H2.09142V9.53637V9.88484H1.95473V10.2333H2.09142V10.5789H2.22685V10.9244H2.36223V10.5789H2.49827V10.2333H2.6336V9.88484H2.76912V9.53637H2.63369V9.19083H2.49835V8.84222H2.36232V8.49668H2.22693V8.14821H2.09142V8.1483ZM0.597462 7.80277H0.664522V7.66459H0.734239V7.80277H0.800514V7.94094H0.734239V8.08215H0.664522V7.94094H0.597462V7.80277ZM0.597462 7.52333H0.529749V7.73363H0.461426V8.01008H0.529749V8.22038H0.597462V8.42774H0.800514V8.22038H0.868881V8.01008H0.935243V7.73363H0.868881V7.52333H0.800514V7.31905H0.597462V7.52333ZM1.34409 7.80277H1.41107V7.66459H1.48017V7.80277H1.54714V7.94094H1.48017V8.08215H1.41107V7.94094H1.34409V7.80277ZM1.68327 7.80277H1.75163V7.66459H1.82V7.80277H1.88697V7.94094H1.82V8.08215H1.75163V7.94094H1.68327V7.80277ZM1.34409 7.52333H1.27638V7.73363H1.20801V8.01008H1.27638V8.22038H1.34409V8.42774H1.54714V8.22038H1.68322V8.42774H1.88697V8.22038H1.95604V8.01008H2.0224V7.73363H1.95604V7.52333H1.88697V7.31905H1.68322V7.52333H1.54714V7.31905H1.34409V7.52333ZM2.42781 7.79978H2.49552V7.66454H2.56389V7.79978H2.63225V7.94099H2.56389V8.07912H2.49552V7.94099H2.42781V7.79978ZM2.42781 7.31607V7.52333H2.36084V7.73363H2.29247V8.01008H2.36084V8.21734H2.42781V8.4247H2.6323V8.21734H2.70001V8.01008H2.76698V7.73363H2.70001V7.52333H2.6323V7.31607H2.42781ZM0.461426 7.17784H0.597462V6.76322H0.461426V7.17784ZM1.54719 7.17784H1.68327V6.76322H1.54719V7.17784ZM2.63365 7.17784H2.76907V6.76322H2.63365V7.17784ZM1.005 6.20739H1.13969V5.85877H1.005V6.20739ZM2.09142 6.20739H2.22685V5.85877H2.09142V6.20739ZM0.461426 5.16481H0.597462V4.75018H0.461426V5.16481ZM1.54719 5.16481H1.68327V4.75018H1.54719V5.16481ZM2.63365 5.16481H2.76907V4.75018H2.63365V5.16481ZM0.734239 5.85882H0.868924V5.51328H1.005V5.16481H1.13969V5.51328H1.27647V5.85882H1.41115V6.20743H1.27647V6.55297H1.13969V6.90144H1.005V6.55297H0.868924V6.20743H0.734239V5.85882ZM1.82005 5.85882H1.95608V5.51328H2.09146V5.16481H2.22689V5.51328H2.36227V5.85882H2.49831V6.20743H2.36227V6.55297H2.22689V6.90144H2.09146V6.55297H1.95608V6.20743H1.82005V5.85882ZM2.09142 4.4707V4.81932H1.95604V5.16486H1.82V5.51333H1.68322V5.85887H1.54714V5.51333H1.41107V5.16486H1.27638V4.81932H1.14104V4.4707H1.00496V4.81932H0.868881V5.16486H0.734195V5.51333H0.597418V5.85887H0.461426V6.20748H0.597462V6.55302H0.734239V6.90149H0.868924V7.24997H1.005V7.5955H1.13969V7.24997H1.27647V6.90149H1.41115V6.55302H1.54723V6.20748H1.68331V6.55302H1.82009V6.90149H1.95477V7.24997H2.09146V7.5955H2.22689V7.24997H2.36227V6.90149H2.49831V6.55302H2.63365V6.20748H2.76907V5.85887H2.63435V5.51333H2.49827V5.16486H2.36223V4.81932H2.22685V4.4707H2.09142Z" fill="#FF4B55"/>
</svg>
