<svg width="24" height="24" viewBox="0 0 24 24" fill="none" xmlns="http://www.w3.org/2000/svg">
<path d="M23.5861 4H0.413812C0.185297 4 0 4.1885 0 4.42102V19.5789C0 19.8115 0.185297 20 0.413812 20H23.5862C23.8147 20 24 19.8115 24 19.5789V4.42102C24 4.1885 23.8147 4 23.5861 4Z" fill="#82C3D2"/>
<path d="M2.71964 5.78043C2.68206 5.62133 2.6727 5.56268 2.74409 5.49134C2.77889 5.45654 2.77889 5.40015 2.74409 5.36535C2.70929 5.33054 2.6529 5.33054 2.6181 5.36535C2.47362 5.50987 2.5081 5.65984 2.54549 5.81866C2.43158 5.78146 2.31344 5.80907 2.25014 5.88893C2.21872 5.92876 2.15796 6.0405 2.27182 6.21893C2.2983 6.26036 2.35304 6.27255 2.39485 6.2463C2.43638 6.21983 2.44846 6.16466 2.42199 6.12327C2.37928 6.05607 2.37801 6.01464 2.38996 5.99949C2.40407 5.98157 2.44781 5.97212 2.49361 5.98835C2.52319 5.9986 2.59195 6.03411 2.59195 6.14133C2.59195 6.22697 2.55235 6.30547 2.48331 6.35645C2.41413 6.40761 2.32459 6.42205 2.23829 6.39525C2.13172 6.3627 2.05727 6.25044 2.05727 6.12219C2.05727 6.03044 2.07693 5.9377 2.11305 5.85643C2.11879 5.84444 2.25498 5.56231 2.29007 5.45715C2.35944 5.24914 2.28894 5.14454 2.24083 5.10085C2.17645 5.04221 2.08234 5.02758 2.00135 5.06309C1.98903 5.06854 1.97887 5.07644 1.9682 5.08378C1.95752 5.0764 1.94732 5.06854 1.93504 5.06309C1.8541 5.02758 1.76005 5.04221 1.69557 5.10085C1.64746 5.14454 1.57696 5.24918 1.64633 5.45715C1.68141 5.56231 1.81756 5.84444 1.82208 5.85384C1.85937 5.93774 1.87908 6.03048 1.87908 6.12224C1.87908 6.25054 1.80468 6.36275 1.69806 6.39529C1.61143 6.42205 1.52217 6.4078 1.45304 6.35649C1.384 6.30547 1.3444 6.22702 1.3444 6.14138C1.3444 6.03415 1.41316 5.99869 1.44274 5.98839C1.48869 5.97222 1.53219 5.98157 1.54639 5.99954C1.55834 6.01468 1.55707 6.05612 1.51436 6.12332C1.48789 6.16475 1.49997 6.21992 1.5415 6.24635C1.58336 6.27283 1.63829 6.26046 1.66453 6.21898C1.77834 6.04055 1.71762 5.92885 1.68621 5.88897C1.62286 5.80912 1.50477 5.78151 1.39086 5.81871C1.4283 5.65999 1.46272 5.50991 1.31825 5.36539C1.28345 5.33059 1.22706 5.33059 1.19226 5.36539C1.15746 5.40019 1.15746 5.45658 1.19226 5.49139C1.2636 5.56273 1.25434 5.62137 1.21671 5.78048C1.19414 5.8758 1.16611 5.9947 1.16611 6.14124C1.16611 6.23873 1.20039 6.33199 1.25805 6.4086H1.25518C1.20594 6.4086 1.16606 6.44844 1.16606 6.49772C1.16606 6.54696 1.2059 6.58684 1.25518 6.58684H1.25805C1.20039 6.66345 1.16611 6.75667 1.16611 6.85416C1.16611 7.0007 1.19414 7.11959 1.21667 7.21497C1.25424 7.37407 1.2636 7.43272 1.19221 7.50406C1.15741 7.53886 1.15741 7.59525 1.19221 7.63005C1.20961 7.64745 1.23242 7.65615 1.25523 7.65615C1.27799 7.65615 1.30085 7.64745 1.31825 7.63005C1.46272 7.48553 1.42825 7.33551 1.39086 7.17674C1.50477 7.21379 1.62291 7.18633 1.68621 7.10647C1.71762 7.06664 1.77839 6.9549 1.66453 6.77647C1.63815 6.73503 1.58307 6.72271 1.5415 6.7491C1.49997 6.77557 1.48789 6.83074 1.51436 6.87213C1.55707 6.93933 1.55834 6.98076 1.54639 6.99591C1.53223 7.01364 1.48869 7.02304 1.44274 7.00705C1.41316 6.9968 1.3444 6.96129 1.3444 6.85407C1.3444 6.76843 1.384 6.68993 1.45304 6.63895C1.52222 6.58778 1.61167 6.57316 1.69806 6.60015C1.80463 6.6327 1.87908 6.74496 1.87908 6.87321C1.87908 6.96496 1.85942 7.0577 1.82208 7.1416L1.23839 8.45472C1.19042 8.5626 1.16606 8.67735 1.16606 8.79549C1.16606 8.94754 1.2352 9.08637 1.34402 9.17112C1.23524 9.25586 1.16606 9.3947 1.16606 9.54674C1.16606 9.66493 1.19047 9.77963 1.23839 9.88752L1.82198 11.2005C1.85928 11.2844 1.87898 11.3772 1.87898 11.4689C1.87898 11.5972 1.80458 11.7094 1.69797 11.742C1.61134 11.769 1.52208 11.7545 1.45294 11.7032C1.3839 11.6522 1.3443 11.5737 1.3443 11.4881C1.3443 11.3808 1.41306 11.3454 1.44264 11.3351C1.48859 11.3191 1.53209 11.3283 1.5463 11.3462C1.55824 11.3614 1.55697 11.4028 1.51427 11.47C1.48779 11.5114 1.49988 11.5666 1.54141 11.593C1.58326 11.6195 1.63819 11.6073 1.66443 11.5657C1.77825 11.3872 1.71753 11.2755 1.68612 11.2357C1.62277 11.1558 1.50468 11.1283 1.39077 11.1654C1.42821 11.0067 1.46263 10.8566 1.31816 10.7121C1.28335 10.6773 1.22697 10.6773 1.19216 10.7121C1.15736 10.7469 1.15736 10.8033 1.19216 10.8381C1.26351 10.9094 1.25424 10.9681 1.21662 11.1272C1.19409 11.2225 1.16606 11.3414 1.16606 11.488C1.16606 11.5855 1.20035 11.6787 1.25801 11.7553H1.25514C1.2059 11.7553 1.16602 11.7952 1.16602 11.8445C1.16602 11.8938 1.20585 11.9336 1.25514 11.9336H1.25801C1.2003 12.0102 1.16606 12.1034 1.16606 12.2009C1.16606 12.3475 1.19409 12.4664 1.21662 12.5618C1.2542 12.7209 1.26355 12.7795 1.19216 12.8508C1.15736 12.8857 1.15736 12.942 1.19216 12.9768C1.20956 12.9942 1.23237 13.0029 1.25518 13.0029C1.27795 13.0029 1.3008 12.9942 1.3182 12.9768C1.46268 12.8323 1.42821 12.6823 1.39082 12.5235C1.50472 12.5606 1.62286 12.5331 1.68616 12.4533C1.71758 12.4134 1.77834 12.3017 1.66448 12.1233C1.6381 12.0818 1.58303 12.0695 1.54145 12.0959C1.49993 12.1224 1.48784 12.1775 1.51432 12.2189C1.55702 12.2861 1.55829 12.3276 1.54634 12.3427C1.53219 12.3606 1.48864 12.3701 1.44269 12.3538C1.41311 12.3436 1.34435 12.3081 1.34435 12.2009C1.34435 12.1152 1.38395 12.0367 1.45299 11.9857C1.52217 11.9346 1.61162 11.9199 1.69801 11.9469C1.80458 11.9795 1.87903 12.0917 1.87903 12.22C1.87903 12.3117 1.85937 12.4045 1.82203 12.4884L1.23839 13.8016C1.19042 13.9095 1.16606 14.0243 1.16606 14.1424C1.16606 14.2945 1.2352 14.4333 1.34402 14.518C1.23524 14.6028 1.16606 14.7416 1.16606 14.8937C1.16606 15.0119 1.19047 15.1266 1.23839 15.2344L1.82198 16.5475C1.85928 16.6314 1.87898 16.7241 1.87898 16.8159C1.87898 16.9442 1.80458 17.0564 1.69797 17.0889C1.61134 17.1159 1.52208 17.1013 1.45294 17.0501C1.3839 16.9991 1.3443 16.9206 1.3443 16.835C1.3443 16.7278 1.41306 16.6923 1.44264 16.682C1.48859 16.666 1.53209 16.6752 1.5463 16.6932C1.55824 16.7083 1.55697 16.7497 1.51427 16.8169C1.48779 16.8584 1.49988 16.9135 1.54141 16.94C1.58326 16.9664 1.63819 16.9542 1.66443 16.9126C1.77825 16.7342 1.71753 16.6225 1.68612 16.5826C1.62277 16.5025 1.50468 16.4751 1.39077 16.5123C1.42821 16.3536 1.46263 16.2035 1.31816 16.059C1.28335 16.0242 1.22697 16.0242 1.19216 16.059C1.15736 16.0938 1.15736 16.1502 1.19216 16.185C1.26351 16.2564 1.25424 16.315 1.21662 16.4741C1.19409 16.5695 1.16606 16.6883 1.16606 16.8349C1.16606 16.9745 1.23299 17.1075 1.34487 17.1913C1.23299 17.2752 1.16606 17.4082 1.16606 17.5478C1.16606 17.6944 1.19409 17.8133 1.21662 17.9086C1.2542 18.0677 1.26355 18.1264 1.19216 18.1977C1.15736 18.2325 1.15736 18.2889 1.19216 18.3237C1.20956 18.3411 1.23237 18.3498 1.25518 18.3498C1.27795 18.3498 1.3008 18.3411 1.3182 18.3237C1.46268 18.1792 1.42821 18.0292 1.39082 17.8704C1.50472 17.9075 1.62286 17.88 1.68616 17.8001C1.71758 17.7603 1.77834 17.6486 1.66448 17.4701C1.6381 17.4287 1.58303 17.4165 1.54145 17.4428C1.49993 17.4692 1.48784 17.5244 1.51432 17.5658C1.55702 17.633 1.55829 17.6744 1.54634 17.6896C1.53219 17.7075 1.48864 17.7167 1.44269 17.7007C1.41311 17.6905 1.34435 17.655 1.34435 17.5477C1.34435 17.4621 1.38395 17.3836 1.45299 17.3326C1.52217 17.2815 1.61162 17.267 1.69801 17.2938C1.80458 17.3264 1.87903 17.4386 1.87903 17.5669C1.87903 17.6586 1.85937 17.7514 1.82325 17.8326C1.81752 17.8446 1.68132 18.1268 1.64623 18.2319C1.57687 18.4399 1.64736 18.5445 1.69547 18.5882C1.73662 18.6257 1.78963 18.6453 1.84381 18.6453C1.87452 18.6453 1.90565 18.6389 1.935 18.626C1.94732 18.6206 1.95748 18.6127 1.96815 18.6053C1.97883 18.6127 1.98903 18.6206 2.00131 18.626C2.03061 18.6389 2.06179 18.6453 2.0925 18.6453C2.14653 18.6453 2.19963 18.6257 2.24083 18.5882C2.28894 18.5445 2.35944 18.4399 2.29007 18.2319C2.25498 18.1268 2.11883 17.8446 2.11432 17.8352C2.07702 17.7513 2.05732 17.6586 2.05732 17.5668C2.05732 17.4385 2.13172 17.3263 2.23834 17.2938C2.32501 17.267 2.41423 17.2814 2.48336 17.3326C2.5524 17.3836 2.592 17.462 2.592 17.5477C2.592 17.6549 2.52324 17.6904 2.49366 17.7007C2.4479 17.7167 2.40407 17.7075 2.39001 17.6895C2.37806 17.6744 2.37933 17.633 2.42203 17.5657C2.44851 17.5243 2.43642 17.4692 2.3949 17.4427C2.35328 17.4166 2.29839 17.4288 2.27187 17.4701C2.15806 17.6485 2.21877 17.7602 2.25019 17.8001C2.31354 17.88 2.43163 17.9075 2.54553 17.8704C2.5081 18.0291 2.47367 18.1792 2.61815 18.3237C2.63555 18.3411 2.65836 18.3498 2.68117 18.3498C2.70398 18.3498 2.72678 18.3411 2.74419 18.3237C2.77899 18.2889 2.77899 18.2325 2.74419 18.1977C2.67284 18.1263 2.68211 18.0677 2.71973 17.9086C2.74226 17.8132 2.77029 17.6943 2.77029 17.5478C2.77029 17.4081 2.70336 17.2751 2.59148 17.1913C2.70336 17.1075 2.77029 16.9745 2.77029 16.8348C2.77029 16.6883 2.74226 16.5694 2.71973 16.474C2.68215 16.3149 2.67279 16.2563 2.74419 16.1849C2.77899 16.1501 2.77899 16.0937 2.74419 16.0589C2.70938 16.0241 2.653 16.0241 2.61819 16.0589C2.47372 16.2034 2.50819 16.3534 2.54558 16.5122C2.43167 16.475 2.31354 16.5024 2.25023 16.5825C2.21882 16.6223 2.15806 16.7341 2.27191 16.9125C2.29839 16.9539 2.35313 16.9661 2.39494 16.9399C2.43647 16.9134 2.44856 16.8582 2.42208 16.8168C2.37938 16.7496 2.37811 16.7082 2.39005 16.6931C2.40416 16.6751 2.4479 16.6659 2.49371 16.6819C2.52329 16.6922 2.59205 16.7277 2.59205 16.8349C2.59205 16.9206 2.55245 16.999 2.48341 17.05C2.41423 17.1012 2.32468 17.1158 2.23838 17.0888C2.13181 17.0563 2.05737 16.944 2.05737 16.8158C2.05737 16.724 2.07702 16.6313 2.11437 16.5474L2.69796 15.2344C2.74593 15.1265 2.77029 15.0117 2.77029 14.8936C2.77029 14.7415 2.70115 14.6027 2.59233 14.518C2.70111 14.4332 2.77029 14.2944 2.77029 14.1423C2.77029 14.0241 2.74588 13.9094 2.69796 13.8016L2.11441 12.4886C2.07712 12.4047 2.05741 12.312 2.05741 12.2202C2.05741 12.0919 2.13181 11.9797 2.23843 11.9472C2.32511 11.9204 2.41432 11.9348 2.48345 11.986C2.55249 12.037 2.59209 12.1154 2.59209 12.2011C2.59209 12.3083 2.52333 12.3438 2.49375 12.3541C2.44799 12.3703 2.40416 12.3609 2.3901 12.3429C2.37815 12.3278 2.37942 12.2864 2.42213 12.2191C2.4486 12.1777 2.43652 12.1226 2.39499 12.0961C2.35337 12.07 2.29849 12.0822 2.27196 12.1235C2.15815 12.3019 2.21887 12.4136 2.25028 12.4535C2.31363 12.5334 2.43172 12.5609 2.54563 12.5238C2.50819 12.6825 2.47377 12.8326 2.61824 12.9771C2.63564 12.9945 2.65845 13.0032 2.68126 13.0032C2.70407 13.0032 2.72688 12.9945 2.74428 12.9771C2.77908 12.9423 2.77908 12.8859 2.74428 12.8511C2.67294 12.7797 2.6822 12.7211 2.71982 12.562C2.74235 12.4666 2.77038 12.3477 2.77038 12.2012C2.77038 12.1037 2.7361 12.0104 2.67844 11.9338H2.68131C2.73055 11.9338 2.77043 11.894 2.77043 11.8447C2.77043 11.7955 2.73059 11.7556 2.68131 11.7556H2.67844C2.73614 11.679 2.77038 11.5858 2.77038 11.4882C2.77038 11.3417 2.74235 11.2228 2.71982 11.1274C2.68225 10.9683 2.67289 10.9097 2.74428 10.8383C2.77908 10.8035 2.77908 10.7471 2.74428 10.7123C2.70948 10.6775 2.65309 10.6775 2.61829 10.7123C2.47381 10.8568 2.50829 11.0069 2.54567 11.1656C2.43177 11.1286 2.31363 11.156 2.25033 11.2359C2.21891 11.2757 2.15815 11.3875 2.27201 11.5659C2.29849 11.6073 2.35323 11.6194 2.39504 11.5933C2.43657 11.5668 2.44865 11.5116 2.42217 11.4702C2.37947 11.403 2.3782 11.3616 2.39015 11.3465C2.40426 11.3285 2.44799 11.3193 2.4938 11.3353C2.52338 11.3456 2.59214 11.3811 2.59214 11.4883C2.59214 11.574 2.55254 11.6524 2.4835 11.7034C2.41432 11.7546 2.32478 11.769 2.23848 11.7422C2.13191 11.7097 2.05746 11.5974 2.05746 11.4692C2.05746 11.3774 2.07712 11.2847 2.11446 11.2008L2.69805 9.88775C2.74602 9.77987 2.77038 9.66512 2.77038 9.54698C2.77038 9.39493 2.70125 9.2561 2.59242 9.17135C2.7012 9.08661 2.77038 8.94777 2.77038 8.79573C2.77038 8.67754 2.74597 8.56284 2.69805 8.45495L2.11446 7.14193C2.07717 7.05803 2.05746 6.96529 2.05746 6.87354C2.05746 6.74524 2.13186 6.63303 2.23848 6.60048C2.32515 6.57368 2.41437 6.58811 2.4835 6.63928C2.55254 6.69031 2.59214 6.76875 2.59214 6.8544C2.59214 6.96162 2.52338 6.99708 2.4938 7.00738C2.44804 7.02342 2.40421 7.01397 2.39015 6.99624C2.3782 6.98109 2.37947 6.93966 2.42217 6.87245C2.44865 6.83102 2.43657 6.77586 2.39504 6.74942C2.35342 6.72332 2.29853 6.73532 2.27201 6.77675C2.1582 6.95518 2.21891 7.06687 2.25033 7.10676C2.31368 7.18661 2.43177 7.21412 2.54567 7.17702C2.50824 7.33574 2.47381 7.48581 2.61829 7.63034C2.63569 7.64774 2.6585 7.65644 2.68131 7.65644C2.70412 7.65644 2.72693 7.64774 2.74433 7.63034C2.77913 7.59553 2.77913 7.53914 2.74433 7.50434C2.67298 7.433 2.68225 7.37435 2.71987 7.21525C2.7424 7.11988 2.77043 7.00099 2.77043 6.85444C2.77043 6.75695 2.73614 6.66369 2.67849 6.58708H2.68135C2.73059 6.58708 2.77048 6.54725 2.77048 6.49796C2.77048 6.44872 2.73064 6.40884 2.68135 6.40884H2.67849C2.73619 6.33223 2.77043 6.23906 2.77043 6.14147C2.77015 5.99469 2.74212 5.8758 2.71964 5.78043ZM1.81526 5.40067C1.78361 5.30567 1.79466 5.25153 1.81554 5.23253C1.82918 5.21965 1.84987 5.22017 1.86299 5.22609C1.87908 5.23324 1.87908 5.24457 1.87908 5.25012C1.87908 5.29936 1.91891 5.33924 1.9682 5.33924C2.01744 5.33924 2.05732 5.29941 2.05732 5.25012C2.05732 5.24457 2.05732 5.23324 2.0734 5.22609C2.08629 5.22017 2.10684 5.21965 2.12086 5.23253C2.14174 5.25153 2.15279 5.30567 2.12114 5.40067C2.09809 5.46956 2.01471 5.64893 1.96825 5.74629C1.92272 5.65119 1.83844 5.47003 1.81526 5.40067ZM1.96815 9.07767C1.99374 9.11242 2.02266 9.14478 2.05784 9.17112C2.02266 9.1975 1.99374 9.22981 1.96815 9.26457C1.94257 9.22981 1.91364 9.19745 1.87847 9.17112C1.91364 9.14473 1.94257 9.11247 1.96815 9.07767ZM1.96815 14.4246C1.99374 14.4593 2.02266 14.4917 2.05784 14.518C2.02266 14.5444 1.99374 14.5767 1.96815 14.6114C1.94257 14.5767 1.91364 14.5443 1.87847 14.518C1.91364 14.4916 1.94257 14.4594 1.96815 14.4246ZM2.121 18.2885C2.15265 18.3835 2.1416 18.4376 2.12072 18.4566C2.1067 18.4693 2.08615 18.4688 2.07326 18.4631C2.05718 18.4559 2.05718 18.4446 2.05718 18.439C2.05718 18.3898 2.01734 18.3499 1.96806 18.3499C1.91877 18.3499 1.87894 18.3898 1.87894 18.439C1.87894 18.4446 1.87894 18.4559 1.86285 18.4631C1.84978 18.4688 1.82909 18.4694 1.8154 18.4566C1.79452 18.4376 1.78347 18.3835 1.81512 18.2885C1.83816 18.2196 1.92155 18.0402 1.96801 17.9429C2.01353 18.0379 2.09781 18.2191 2.121 18.2885ZM2.05699 17.1914C2.02327 17.2177 1.99336 17.2491 1.96815 17.2846C1.94299 17.2491 1.91303 17.2177 1.87931 17.1914C1.91303 17.1652 1.94294 17.1338 1.96815 17.0983C1.99331 17.1338 2.02322 17.1652 2.05699 17.1914ZM2.5349 15.162L1.9681 16.4372L1.4013 15.162C1.36401 15.0781 1.3443 14.9853 1.3443 14.8936C1.3443 14.7653 1.41871 14.653 1.52532 14.6205C1.61195 14.5937 1.70131 14.6082 1.77035 14.6593C1.83938 14.7104 1.87898 14.7888 1.87898 14.8744C1.87898 14.9817 1.81023 15.0171 1.78064 15.0274C1.7347 15.0435 1.69101 15.0342 1.67699 15.0163C1.66505 15.0011 1.66632 14.9597 1.70902 14.8925C1.7355 14.8511 1.72341 14.7959 1.68188 14.7695C1.64026 14.7434 1.58538 14.7555 1.55885 14.7968C1.44504 14.9753 1.50576 15.087 1.53717 15.1268C1.6017 15.2083 1.72308 15.2363 1.83915 15.1957C1.85236 15.1912 1.86577 15.1855 1.87898 15.1788V15.4041C1.87898 15.4041 1.87884 15.404 1.87884 15.404C1.87616 15.3571 1.83732 15.32 1.78991 15.32C1.74067 15.32 1.70079 15.3599 1.70079 15.4092C1.70079 15.4673 1.74142 15.5681 1.87898 15.5993V15.7656C1.87898 15.8148 1.91882 15.8547 1.9681 15.8547C2.01739 15.8547 2.05723 15.8149 2.05723 15.7656V15.5993C2.19479 15.5681 2.23542 15.4673 2.23542 15.4092C2.23542 15.3599 2.19568 15.3171 2.14649 15.3171C2.09725 15.3171 2.05755 15.354 2.05755 15.4033C2.05751 15.4034 2.05723 15.4037 2.05718 15.4038V15.1789C2.07039 15.1856 2.0838 15.1913 2.09701 15.1958C2.21308 15.2364 2.33442 15.2083 2.39899 15.1269C2.4304 15.0871 2.49117 14.9754 2.37731 14.7969C2.35083 14.7555 2.29585 14.7433 2.25428 14.7696C2.21275 14.796 2.20067 14.8512 2.22714 14.8926C2.26985 14.9598 2.27112 15.0012 2.25917 15.0164C2.24506 15.0343 2.20137 15.0435 2.15552 15.0275C2.12594 15.0173 2.05718 14.9818 2.05718 14.8745C2.05718 14.7889 2.09678 14.7104 2.16582 14.6594C2.235 14.6082 2.32454 14.5936 2.41084 14.6206C2.51741 14.6532 2.59186 14.7654 2.59186 14.8937C2.59195 14.9853 2.57229 15.0781 2.5349 15.162ZM2.5349 13.874C2.5722 13.9579 2.5919 14.0507 2.5919 14.1424C2.5919 14.2707 2.5175 14.3829 2.41089 14.4155C2.3244 14.4425 2.2349 14.4278 2.16586 14.3767C2.09682 14.3256 2.05723 14.2472 2.05723 14.1616C2.05723 14.0543 2.12598 14.0189 2.15556 14.0086C2.20142 13.9925 2.24516 14.0018 2.25922 14.0197C2.27116 14.0349 2.26989 14.0763 2.22719 14.1435C2.20071 14.1849 2.2128 14.2401 2.25433 14.2665C2.29618 14.293 2.35111 14.2808 2.37736 14.2392C2.49117 14.0607 2.43045 13.949 2.39904 13.9092C2.33446 13.8277 2.21313 13.8 2.09706 13.8403C2.08384 13.8448 2.07044 13.8506 2.05723 13.8572V13.6318L2.05737 13.6321C2.06005 13.6789 2.09889 13.716 2.1463 13.716C2.19554 13.716 2.23542 13.6762 2.23542 13.6269C2.23542 13.5688 2.19479 13.4679 2.05723 13.4367V13.2704C2.05723 13.2212 2.01739 13.1813 1.9681 13.1813C1.91882 13.1813 1.87898 13.2212 1.87898 13.2704V13.4367C1.74142 13.4679 1.70079 13.5688 1.70079 13.6269C1.70079 13.6761 1.74053 13.7189 1.78972 13.7189C1.83896 13.7189 1.87865 13.682 1.87865 13.6328C1.8787 13.6326 1.87898 13.6324 1.87898 13.6324L1.87903 13.8572C1.86581 13.8505 1.85241 13.8448 1.8392 13.8402C1.72313 13.8 1.60174 13.8277 1.53722 13.9091C1.5058 13.9489 1.44504 14.0607 1.5589 14.2391C1.58538 14.2805 1.64036 14.2926 1.68193 14.2665C1.72346 14.24 1.73554 14.1848 1.70907 14.1435C1.66636 14.0763 1.66509 14.0348 1.67704 14.0197C1.69105 14.0018 1.73474 13.9925 1.78069 14.0085C1.81027 14.0188 1.87903 14.0543 1.87903 14.1615C1.87903 14.2472 1.83943 14.3256 1.77039 14.3766C1.70121 14.4278 1.61186 14.4424 1.52537 14.4154C1.4188 14.3829 1.34435 14.2706 1.34435 14.1424C1.34435 14.0506 1.36401 13.9579 1.40135 13.874L1.96815 12.5987L2.5349 13.874ZM2.05699 11.8446C2.02327 11.8708 1.99336 11.9023 1.96815 11.9378C1.94299 11.9023 1.91303 11.8709 1.87931 11.8446C1.91303 11.8184 1.94294 11.7869 1.96815 11.7514C1.99331 11.7869 2.02322 11.8183 2.05699 11.8446ZM2.5349 9.81514L1.9681 11.0904L1.4013 9.81514C1.36401 9.73124 1.3443 9.6385 1.3443 9.54674C1.3443 9.41845 1.41871 9.30623 1.52532 9.27369C1.61195 9.24688 1.70131 9.26132 1.77035 9.31249C1.83938 9.36352 1.87898 9.44196 1.87898 9.5276C1.87898 9.63483 1.81023 9.67029 1.78064 9.68059C1.7347 9.69677 1.69101 9.68741 1.67699 9.66944C1.66505 9.6543 1.66632 9.61287 1.70902 9.54566C1.7355 9.50423 1.72341 9.44906 1.68188 9.42263C1.64026 9.39639 1.58538 9.40852 1.55885 9.45C1.44504 9.62843 1.50576 9.74013 1.53717 9.78001C1.6017 9.86146 1.72308 9.88931 1.83915 9.84891C1.85236 9.84434 1.86577 9.83865 1.87898 9.83193V10.0573L1.87884 10.057C1.87616 10.0102 1.83732 9.97311 1.78991 9.97311C1.74067 9.97311 1.70079 10.0129 1.70079 10.0622C1.70079 10.1204 1.74142 10.2212 1.87898 10.2524V10.4187C1.87898 10.4679 1.91882 10.5078 1.9681 10.5078C2.01739 10.5078 2.05723 10.468 2.05723 10.4187V10.2524C2.19479 10.2212 2.23542 10.1204 2.23542 10.0622C2.23542 10.013 2.19568 9.97015 2.14649 9.97015C2.09725 9.97015 2.05755 10.0071 2.05755 10.0563C2.05751 10.0564 2.05723 10.0567 2.05723 10.0567L2.05718 9.83188C2.07039 9.83861 2.0838 9.8443 2.09701 9.84886C2.21308 9.88921 2.33442 9.86137 2.39899 9.77996C2.4304 9.74013 2.49117 9.62839 2.37731 9.44996C2.35083 9.40833 2.29585 9.3962 2.25428 9.42258C2.21275 9.44906 2.20067 9.50423 2.22714 9.54561C2.26985 9.61282 2.27112 9.65425 2.25917 9.6694C2.24506 9.68731 2.20137 9.69677 2.15552 9.68054C2.12594 9.67029 2.05718 9.63478 2.05718 9.52755C2.05718 9.44191 2.09678 9.36342 2.16582 9.31244C2.235 9.26127 2.32454 9.24683 2.41084 9.27364C2.51741 9.30619 2.59186 9.41845 2.59186 9.5467C2.59195 9.6385 2.57229 9.73124 2.5349 9.81514ZM2.5349 8.52714C2.5722 8.61104 2.5919 8.70378 2.5919 8.79554C2.5919 8.92384 2.5175 9.03605 2.41089 9.06859C2.3244 9.09559 2.2349 9.08096 2.16586 9.02979C2.09682 8.97877 2.05723 8.90032 2.05723 8.81468C2.05723 8.70745 2.12598 8.67199 2.15556 8.66169C2.20142 8.64566 2.24516 8.65487 2.25922 8.67284C2.27116 8.68798 2.26989 8.72942 2.22719 8.79662C2.20071 8.83805 2.2128 8.89317 2.25433 8.91965C2.29618 8.94589 2.35111 8.9339 2.37736 8.89228C2.49117 8.71385 2.43045 8.60215 2.39904 8.56227C2.33446 8.48082 2.21313 8.45298 2.09706 8.49337C2.08384 8.49794 2.07044 8.50363 2.05723 8.51035V8.28499C2.05723 8.28503 2.05737 8.28513 2.05737 8.28513C2.06005 8.33206 2.09889 8.36908 2.1463 8.36908C2.19554 8.36908 2.23542 8.32924 2.23542 8.27995C2.23542 8.22183 2.19479 8.12099 2.05723 8.08977V7.92352C2.05723 7.87428 2.01739 7.8344 1.9681 7.8344C1.91882 7.8344 1.87898 7.87423 1.87898 7.92352V8.08977C1.74142 8.12099 1.70079 8.22183 1.70079 8.27995C1.70079 8.32919 1.74053 8.37204 1.78972 8.37204C1.83896 8.37204 1.87865 8.33512 1.87865 8.28588C1.8787 8.28574 1.87898 8.2855 1.87903 8.28536V8.51031C1.86581 8.50358 1.85241 8.49789 1.8392 8.49333C1.72313 8.45298 1.60174 8.48082 1.53722 8.56223C1.5058 8.60206 1.44504 8.7138 1.5589 8.89223C1.58538 8.93367 1.64036 8.9457 1.68193 8.9196C1.72346 8.89313 1.73554 8.83796 1.70907 8.79657C1.66636 8.72937 1.66509 8.68794 1.67704 8.67279C1.69105 8.65487 1.73474 8.64566 1.78069 8.66165C1.81027 8.6719 1.87903 8.70741 1.87903 8.81463C1.87903 8.90027 1.83943 8.97877 1.77039 9.02975C1.70121 9.08091 1.61186 9.09554 1.52537 9.06855C1.4188 9.036 1.34435 8.92374 1.34435 8.79549C1.34435 8.70374 1.36401 8.611 1.40135 8.5271L1.96815 7.25184L2.5349 8.52714ZM1.87927 6.49772C1.91299 6.47148 1.9429 6.44007 1.9681 6.40456C1.99327 6.44007 2.02322 6.47143 2.05694 6.49772C2.02322 6.52397 1.99331 6.55538 1.9681 6.59089C1.94294 6.55538 1.91303 6.52397 1.87927 6.49772Z" fill="#FFE15A"/>
<path d="M12.6531 12.9376C13.8377 12.9376 14.798 11.9773 14.798 10.7928C14.798 9.60822 13.8377 8.64795 12.6531 8.64795C11.4686 8.64795 10.5083 9.60822 10.5083 10.7928C10.5083 11.9773 11.4686 12.9376 12.6531 12.9376Z" fill="#FFE15A"/>
<path d="M12.8145 8.0583C12.8145 8.14714 12.7424 8.21919 12.6536 8.21919C12.5647 8.21919 12.4927 8.14714 12.4927 8.0583C12.4927 7.96946 12.6536 7.57568 12.6536 7.57568C12.6536 7.57568 12.8145 7.96946 12.8145 8.0583Z" fill="#FFE15A"/>
<path d="M12.4927 13.5281C12.4927 13.4392 12.5647 13.3672 12.6536 13.3672C12.7424 13.3672 12.8145 13.4392 12.8145 13.5281C12.8145 13.6169 12.6536 14.0107 12.6536 14.0107C12.6536 14.0107 12.4927 13.617 12.4927 13.5281Z" fill="#FFE15A"/>
<path d="M15.3884 10.9541C15.2996 10.9541 15.2275 10.8821 15.2275 10.7932C15.2275 10.7044 15.2996 10.6323 15.3884 10.6323C15.4773 10.6323 15.871 10.7932 15.871 10.7932C15.871 10.7932 15.4773 10.9541 15.3884 10.9541Z" fill="#FFE15A"/>
<path d="M9.91865 10.6323C10.0075 10.6323 10.0795 10.7044 10.0795 10.7932C10.0795 10.8821 10.0075 10.9541 9.91865 10.9541C9.82981 10.9541 9.43604 10.7932 9.43604 10.7932C9.43604 10.7932 9.82981 10.6323 9.91865 10.6323Z" fill="#FFE15A"/>
<path d="M14.7009 8.97312C14.6381 9.03596 14.5363 9.03596 14.4734 8.97312C14.4105 8.91029 14.4106 8.80847 14.4734 8.7456C14.5362 8.68272 14.9284 8.51807 14.9284 8.51807C14.9284 8.51807 14.7638 8.91029 14.7009 8.97312Z" fill="#FFE15A"/>
<path d="M10.6059 12.613C10.6687 12.5502 10.7706 12.5502 10.8334 12.613C10.8963 12.6759 10.8963 12.7777 10.8334 12.8406C10.7706 12.9034 10.3784 13.0681 10.3784 13.0681C10.3784 13.0681 10.5431 12.6759 10.6059 12.613Z" fill="#FFE15A"/>
<path d="M14.4734 12.8406C14.4106 12.7778 14.4106 12.6759 14.4734 12.6131C14.5362 12.5502 14.638 12.5502 14.7009 12.6131C14.7638 12.6759 14.9284 13.0681 14.9284 13.0681C14.9284 13.0681 14.5362 12.9034 14.4734 12.8406Z" fill="#FFE15A"/>
<path d="M10.8335 8.74555C10.8963 8.80838 10.8963 8.9102 10.8335 8.97308C10.7706 9.03596 10.6688 9.03591 10.6059 8.97308C10.5431 8.91025 10.3784 8.51807 10.3784 8.51807C10.3784 8.51807 10.7706 8.68276 10.8335 8.74555Z" fill="#FFE15A"/>
<path d="M11.7557 8.20469C11.7897 8.2868 11.7507 8.38086 11.6686 8.41486C11.5865 8.44886 11.4924 8.40988 11.4584 8.32776C11.4244 8.24565 11.4224 7.82031 11.4224 7.82031C11.4224 7.82031 11.7217 8.12257 11.7557 8.20469Z" fill="#FFE15A"/>
<path d="M13.5513 13.3812C13.5173 13.299 13.5563 13.205 13.6384 13.171C13.7206 13.137 13.8146 13.176 13.8486 13.2581C13.8826 13.3402 13.8847 13.7655 13.8847 13.7655C13.8847 13.7655 13.5853 13.4633 13.5513 13.3812Z" fill="#FFE15A"/>
<path d="M15.242 9.89536C15.1599 9.92936 15.0658 9.89037 15.0318 9.80826C14.9978 9.72614 15.0368 9.63209 15.1189 9.59808C15.201 9.56408 15.6263 9.56201 15.6263 9.56201C15.6263 9.56201 15.3241 9.86131 15.242 9.89536Z" fill="#FFE15A"/>
<path d="M10.0655 11.691C10.1476 11.657 10.2417 11.696 10.2757 11.7781C10.3097 11.8602 10.2707 11.9543 10.1886 11.9883C10.1065 12.0223 9.68115 12.0243 9.68115 12.0243C9.68115 12.0243 9.98341 11.725 10.0655 11.691Z" fill="#FFE15A"/>
<path d="M13.8486 8.3282C13.8146 8.41032 13.7205 8.44926 13.6384 8.4153C13.5563 8.3813 13.5174 8.28719 13.5513 8.20513C13.5853 8.12306 13.8846 7.8208 13.8846 7.8208C13.8846 7.8208 13.8826 8.24614 13.8486 8.3282Z" fill="#FFE15A"/>
<path d="M11.4584 13.2581C11.4924 13.1759 11.5865 13.137 11.6686 13.171C11.7507 13.205 11.7896 13.2991 11.7557 13.3811C11.7217 13.4632 11.4224 13.7655 11.4224 13.7655C11.4224 13.7655 11.4244 13.3402 11.4584 13.2581Z" fill="#FFE15A"/>
<path d="M15.1189 11.9883C15.0368 11.9543 14.9978 11.8601 15.0318 11.7781C15.0658 11.696 15.1599 11.657 15.242 11.691C15.324 11.7249 15.6263 12.0243 15.6263 12.0243C15.6263 12.0243 15.2009 12.0223 15.1189 11.9883Z" fill="#FFE15A"/>
<path d="M10.1886 9.59804C10.2707 9.63204 10.3096 9.72614 10.2757 9.80821C10.2417 9.89028 10.1475 9.92927 10.0655 9.89531C9.98341 9.86131 9.68115 9.56201 9.68115 9.56201C9.68115 9.56201 10.1065 9.56399 10.1886 9.59804Z" fill="#FFE15A"/>
<path d="M12.278 8.07968C12.2953 8.16682 12.2387 8.25152 12.1516 8.26883C12.0644 8.28618 11.9797 8.22961 11.9624 8.14242C11.945 8.05527 12.026 7.6377 12.026 7.6377C12.026 7.6377 12.2606 7.99253 12.278 8.07968Z" fill="#FFE15A"/>
<path d="M13.0295 13.5067C13.0121 13.4196 13.0687 13.3349 13.1559 13.3176C13.2431 13.3002 13.3278 13.3568 13.3451 13.444C13.3624 13.5311 13.2814 13.9487 13.2814 13.9487C13.2814 13.9487 13.0468 13.5939 13.0295 13.5067Z" fill="#FFE15A"/>
<path d="M15.3671 10.4176C15.2799 10.435 15.1952 10.3784 15.1779 10.2912C15.1606 10.204 15.2172 10.1194 15.3043 10.102C15.3915 10.0847 15.8091 10.1657 15.8091 10.1657C15.8091 10.1657 15.4542 10.4003 15.3671 10.4176Z" fill="#FFE15A"/>
<path d="M9.94003 11.1691C10.0272 11.1518 10.1119 11.2084 10.1292 11.2956C10.1465 11.3828 10.09 11.4674 10.0028 11.4847C9.91562 11.5021 9.49805 11.4211 9.49805 11.4211C9.49805 11.4211 9.85288 11.1865 9.94003 11.1691Z" fill="#FFE15A"/>
<path d="M14.3069 8.60838C14.2575 8.68227 14.1576 8.70211 14.0837 8.65273C14.0098 8.60335 13.99 8.50346 14.0394 8.42958C14.0887 8.35569 14.4412 8.11768 14.4412 8.11768C14.4412 8.11768 14.3562 8.53445 14.3069 8.60838Z" fill="#FFE15A"/>
<path d="M11.0006 12.9777C11.0499 12.9039 11.1498 12.884 11.2237 12.9334C11.2976 12.9827 11.3175 13.0827 11.2681 13.1566C11.2187 13.2304 10.8662 13.4685 10.8662 13.4685C10.8662 13.4685 10.9512 13.0517 11.0006 12.9777Z" fill="#FFE15A"/>
<path d="M14.8381 12.4465C14.7642 12.3972 14.7444 12.2972 14.7938 12.2234C14.8431 12.1495 14.943 12.1296 15.0169 12.179C15.0908 12.2283 15.3288 12.5809 15.3288 12.5809C15.3288 12.5809 14.912 12.4958 14.8381 12.4465Z" fill="#FFE15A"/>
<path d="M10.4687 9.14022C10.5426 9.18956 10.5625 9.28949 10.5131 9.36338C10.4637 9.43726 10.3638 9.45711 10.2899 9.40773C10.216 9.35835 9.97803 9.00586 9.97803 9.00586C9.97803 9.00586 10.3949 9.09089 10.4687 9.14022Z" fill="#FFE15A"/>
<path d="M11.2681 8.42953C11.3174 8.50341 11.2976 8.6033 11.2237 8.65268C11.1499 8.70206 11.05 8.68217 11.0006 8.60833C10.9512 8.53445 10.8662 8.11768 10.8662 8.11768C10.8662 8.11768 11.2187 8.35569 11.2681 8.42953Z" fill="#FFE15A"/>
<path d="M14.0393 13.1565C13.99 13.0826 14.0098 12.9827 14.0837 12.9334C14.1575 12.884 14.2574 12.9039 14.3068 12.9777C14.3562 13.0516 14.4412 13.4684 14.4412 13.4684C14.4412 13.4684 14.0887 13.2304 14.0393 13.1565Z" fill="#FFE15A"/>
<path d="M15.0169 9.40773C14.943 9.45706 14.8431 9.43721 14.7937 9.36338C14.7444 9.28949 14.7642 9.1896 14.8381 9.14022C14.912 9.09089 15.3287 9.00586 15.3287 9.00586C15.3287 9.00586 15.0908 9.35839 15.0169 9.40773Z" fill="#FFE15A"/>
<path d="M10.2904 12.179C10.3643 12.1296 10.4641 12.1495 10.5135 12.2233C10.5629 12.2972 10.543 12.3971 10.4692 12.4465C10.3953 12.4958 9.97852 12.5808 9.97852 12.5808C9.97852 12.5808 10.2165 12.2283 10.2904 12.179Z" fill="#FFE15A"/>
<path d="M13.3451 8.14242C13.3277 8.22956 13.2431 8.28618 13.1559 8.26883C13.0688 8.25148 13.0121 8.16682 13.0295 8.07968C13.0468 7.99253 13.2814 7.6377 13.2814 7.6377C13.2814 7.6377 13.3624 8.05527 13.3451 8.14242Z" fill="#FFE15A"/>
<path d="M11.9624 13.444C11.9797 13.3569 12.0644 13.3002 12.1515 13.3176C12.2387 13.3349 12.2953 13.4196 12.278 13.5067C12.2606 13.5939 12.026 13.9487 12.026 13.9487C12.026 13.9487 11.9451 13.5311 11.9624 13.444Z" fill="#FFE15A"/>
<path d="M15.3043 11.4847C15.2172 11.4674 15.1606 11.3827 15.1779 11.2956C15.1953 11.2084 15.2799 11.1518 15.3671 11.1691C15.4542 11.1865 15.8091 11.4211 15.8091 11.4211C15.8091 11.4211 15.3915 11.502 15.3043 11.4847Z" fill="#FFE15A"/>
<path d="M10.0028 10.102C10.0899 10.1194 10.1465 10.204 10.1292 10.2912C10.1118 10.3783 10.0272 10.435 9.94003 10.4176C9.85289 10.4003 9.49805 10.1657 9.49805 10.1657C9.49805 10.1657 9.91562 10.0847 10.0028 10.102Z" fill="#FFE15A"/>
<path d="M17.6987 11.3574C17.6359 11.331 17.5641 11.3613 17.5379 11.4237C17.5379 11.424 17.5379 11.424 17.5379 11.424C17.5374 11.4252 17.535 11.431 17.5308 11.4408C17.4378 11.658 17.2455 11.9754 17.0512 12.274C17.2321 11.6916 17.3975 11.0696 17.4091 11.0259C17.4263 10.9606 17.3877 10.8935 17.3224 10.8758C17.2571 10.8582 17.19 10.8962 17.1717 10.9613C17.0872 11.2638 16.9146 11.6619 16.7553 11.9989C16.7845 11.6231 16.79 11.275 16.7904 11.2498C16.7914 11.1833 16.7392 11.1282 16.6727 11.1251C16.6101 11.127 16.5497 11.1727 16.5448 11.2392C16.3873 13.4057 14.3025 14.3749 14.0995 14.4641C13.9933 14.4747 13.4986 14.5304 13.0496 14.6863C12.9987 14.704 12.9554 14.7217 12.9122 14.7393C12.8962 14.7333 12.879 14.7299 12.8608 14.731C11.4828 14.8307 10.384 14.2654 9.59427 13.0543C8.9976 12.1392 8.81047 11.1786 8.80864 11.1691C8.79604 11.1023 8.73208 11.0592 8.66501 11.071C8.59823 11.0837 8.55435 11.1479 8.567 11.2147C8.57199 11.2412 8.6541 11.6605 8.88022 12.2123C8.57768 11.7347 8.36684 11.1561 8.29263 10.8548C8.29113 10.8488 8.28727 10.8442 8.28501 10.8387C8.28153 10.8302 8.27862 10.8216 8.27349 10.8142C8.26987 10.809 8.26512 10.8052 8.26084 10.8006C8.25411 10.7935 8.24767 10.7866 8.23944 10.7813C8.23474 10.7782 8.22947 10.7767 8.22434 10.7743C8.21527 10.7701 8.20638 10.7659 8.19627 10.7639C8.18926 10.7626 8.18211 10.7635 8.17482 10.7633C8.16744 10.7632 8.16048 10.7614 8.15291 10.7627C8.15126 10.763 8.14999 10.7641 8.14835 10.7645C8.14675 10.7648 8.14524 10.7643 8.14364 10.7646C8.13706 10.7662 8.13203 10.7703 8.12601 10.7729C8.11834 10.7763 8.11049 10.7788 8.10376 10.7834C8.09713 10.788 8.09219 10.7939 8.08669 10.7996C8.08119 10.8052 8.07545 10.8102 8.07112 10.8168C8.06675 10.8234 8.0644 10.8309 8.06129 10.8382C8.05833 10.8454 8.0549 10.8522 8.05335 10.86C8.05175 10.8679 8.05245 10.8761 8.0525 10.8844C8.0525 10.8911 8.05066 10.8974 8.05184 10.9042C8.05231 10.9071 8.05325 10.91 8.05377 10.9128V10.9133C8.05391 10.9138 8.0541 10.9145 8.05424 10.9151C8.13033 11.3634 8.31168 11.8282 8.47567 12.1826C8.21527 11.8871 7.99766 11.5467 7.92053 11.345C7.91832 11.3392 7.91386 11.3351 7.91085 11.3298C7.90628 11.3217 7.90229 11.3133 7.89613 11.3066C7.89175 11.3018 7.88644 11.2987 7.88145 11.2947C7.87397 11.2887 7.86687 11.2826 7.85822 11.2785C7.85267 11.2759 7.84665 11.275 7.84077 11.2732C7.83169 11.2705 7.8229 11.2674 7.81326 11.2668C7.80569 11.2663 7.79816 11.2682 7.7905 11.2692C7.7834 11.2701 7.77639 11.2692 7.76933 11.2714C7.76797 11.2719 7.76703 11.2729 7.76576 11.2734C7.76444 11.2738 7.76313 11.2736 7.76181 11.2741C7.75513 11.2766 7.75038 11.2816 7.74441 11.2851C7.7374 11.2892 7.72992 11.2926 7.72395 11.298C7.71784 11.3035 7.7136 11.3103 7.70881 11.3169C7.70424 11.323 7.69917 11.3285 7.69578 11.3354C7.69225 11.3426 7.69094 11.3504 7.68891 11.3582C7.68689 11.3657 7.68421 11.3728 7.68369 11.3807C7.68313 11.3887 7.6851 11.3966 7.68614 11.4047C7.68703 11.4116 7.68609 11.4185 7.68826 11.4254C7.8221 11.8571 8.14397 12.3708 8.39614 12.7326C8.18602 12.5707 8.03157 12.3956 7.98675 12.3427C7.98191 12.337 7.97716 12.3312 7.97231 12.3255C7.92895 12.2733 7.85234 12.2659 7.79981 12.3084C7.74747 12.3511 7.73924 12.4281 7.78156 12.4806C7.78387 12.4835 7.79308 12.4951 7.80851 12.5131C7.99305 12.7326 8.1941 12.9376 8.37625 13.1106L8.12709 13.0044C8.07028 12.9799 8.00349 13.002 7.97241 13.056C7.94127 13.1101 7.95534 13.1785 8.00519 13.216C8.02945 13.234 8.47069 13.5637 8.85266 13.7585C8.81663 13.7607 8.77435 13.758 8.72704 13.7544C8.66929 13.7489 8.61248 13.7902 8.59842 13.8488C8.58459 13.9076 8.61535 13.9677 8.67122 13.9908C8.68063 13.9946 8.79702 14.0427 8.94075 14.0938C8.90721 14.1075 8.88055 14.1356 8.8695 14.1721C8.85294 14.2267 8.87622 14.2858 8.9257 14.3141C8.93858 14.3216 9.11245 14.4213 9.32761 14.5097C9.32187 14.5185 9.31717 14.5281 9.31364 14.5387C9.29681 14.5904 9.31604 14.6471 9.36086 14.6781C9.3982 14.7037 10.2337 15.2707 11.2095 15.2707C11.2735 15.2707 11.3382 15.2683 11.4033 15.2631C11.4709 15.2578 11.5215 15.1985 11.5161 15.1307C11.5107 15.0629 11.452 15.0117 11.3836 15.018C10.7707 15.068 10.1801 14.8378 9.8289 14.6619C9.87527 14.6506 9.90193 14.6403 9.90857 14.6377C9.96274 14.6156 9.99397 14.5586 9.98339 14.5012C9.97281 14.4438 9.92333 14.4017 9.86483 14.4005C9.72224 14.3976 9.52476 14.3282 9.35465 14.2537C9.41889 14.2215 9.45642 14.1907 9.45972 14.1881C9.49673 14.1571 9.51234 14.1076 9.49974 14.061C9.48704 14.0146 9.44829 13.9798 9.40079 13.9721C9.34854 13.9635 9.2834 13.9466 9.21521 13.926C9.28152 13.8878 9.30974 13.8457 9.32056 13.8243C9.33763 13.7902 9.338 13.7503 9.32164 13.716C9.30518 13.6817 9.27386 13.6569 9.23656 13.6489C9.20439 13.642 9.16795 13.6302 9.12858 13.6148C9.13578 13.6076 9.14241 13.5994 9.14777 13.5901C9.17909 13.537 9.16616 13.4688 9.11753 13.4306C9.11499 13.4286 9.01952 13.3537 8.87495 13.229C8.8979 13.2206 8.91817 13.205 8.93284 13.1838C8.96384 13.1392 8.96172 13.0793 8.92767 13.037C8.92494 13.0336 8.82933 12.9134 8.69756 12.7309C8.74106 12.7646 8.78451 12.7991 8.82797 12.8271C8.84843 12.8401 8.87157 12.8466 8.89452 12.8466C8.92565 12.8466 8.95636 12.8348 8.98002 12.8119C8.98975 12.8025 8.99737 12.7917 9.00339 12.7802C9.07802 12.8599 9.15642 12.9323 9.23877 12.994C9.24949 13.0021 9.26252 13.0019 9.27456 13.006C9.30946 13.0645 9.34576 13.1231 9.38386 13.1817C10.1308 14.331 11.1841 14.9466 12.4473 14.9836C12.331 15.0542 12.2047 15.1272 12.0048 15.2051C11.9611 15.2221 11.9226 15.2391 11.8838 15.2562C11.8651 15.2599 11.8475 15.2666 11.8329 15.2783C11.484 15.4398 11.3395 15.5994 11.2809 15.7111C11.2224 15.8221 11.2728 15.9359 11.3443 15.995C11.3665 16.0133 11.3947 16.0226 11.4231 16.0226C11.4425 16.0226 11.462 16.0183 11.4796 16.0094C11.5231 15.9878 11.5522 15.9419 11.5503 15.8936C11.5553 15.8881 11.5767 15.8704 11.6437 15.8682C11.6926 15.8641 11.7954 15.8751 11.9155 15.8847C12.0296 15.8941 12.1666 15.9048 12.3122 15.9123C12.2211 16.0185 12.1152 16.1415 12.1152 16.1415C12.0834 16.1785 12.0764 16.2309 12.0976 16.2749C12.1189 16.3191 12.1647 16.3465 12.2127 16.3447C12.3099 16.3414 12.3759 16.3394 12.4193 16.3385C12.4571 16.3881 12.5035 16.4077 12.5334 16.4154C12.618 16.437 12.7024 16.4032 12.7658 16.363C12.8139 16.3977 12.862 16.4123 12.9001 16.4178C12.9859 16.4296 13.0655 16.4046 13.123 16.3763C13.1826 16.4147 13.2409 16.4246 13.2854 16.4246C13.286 16.4246 13.2867 16.4246 13.2874 16.4246C13.3834 16.4241 13.4674 16.3777 13.5268 16.3323C13.5794 16.3635 13.6295 16.3736 13.6683 16.3753C13.7564 16.3784 13.8294 16.3446 13.878 16.3128C14.0513 16.3476 14.2007 16.266 14.2995 16.1759C14.3445 16.2021 14.3874 16.2086 14.4215 16.2069C14.5093 16.2038 14.5762 16.1504 14.6191 16.1026C14.8157 16.1263 14.9567 16.0901 15.0382 15.9933C15.0827 15.9407 15.1007 15.8814 15.1056 15.8273C15.6509 15.8242 15.7002 15.5265 15.7042 15.4897C15.7078 15.4563 15.6976 15.4229 15.6759 15.3972C15.6543 15.3716 15.6229 15.3557 15.5894 15.3537L14.1599 15.2678C14.1001 15.2634 14.0467 15.3036 14.0328 15.362C14.0325 15.3629 14.0082 15.4537 13.9319 15.5263C13.8293 15.6243 13.6641 15.676 13.4844 15.7035C13.4851 15.687 13.4828 15.6703 13.4765 15.6539C13.452 15.5905 13.3806 15.5597 13.3174 15.5835C13.0223 15.698 12.5445 15.6837 12.1707 15.6576C12.228 15.6108 12.2971 15.5644 12.3522 15.5341C12.3988 15.5084 12.4238 15.4558 12.414 15.4035C12.4068 15.3654 12.3793 15.3389 12.3461 15.3219C12.45 15.2694 12.5353 15.2187 12.6161 15.1694C12.7564 15.0835 12.889 15.0024 13.1305 14.9186C13.5965 14.7567 14.1359 14.7075 14.1413 14.7069C14.1535 14.706 14.1656 14.7029 14.177 14.6983C14.1962 14.6903 15.7176 14.053 16.4343 12.5824C16.4249 12.6268 16.4149 12.6675 16.4039 12.703C16.3852 12.7635 16.4154 12.8282 16.4738 12.8526C16.5189 12.8716 16.5703 12.8617 16.605 12.8296C16.5597 12.949 16.5188 13.0429 16.4853 13.0984C16.4512 13.1549 16.4677 13.2281 16.5226 13.2646C16.5355 13.2731 16.5492 13.2788 16.5634 13.2822C16.5079 13.3634 16.4516 13.4403 16.3955 13.5107C16.3582 13.5575 16.3604 13.6243 16.3994 13.6685C16.3031 13.7694 16.2177 13.8526 16.1528 13.9054C16.1104 13.9398 16.0966 13.9972 16.116 14.0462C16.0534 14.082 16.002 14.1073 15.9664 14.118C15.9066 14.1361 15.8698 14.1963 15.8811 14.2579C15.887 14.2903 15.9053 14.3177 15.9305 14.3357C15.8553 14.3559 15.773 14.3753 15.6836 14.3931C15.6333 14.4031 15.5944 14.4433 15.5862 14.4939C15.5781 14.5446 15.6021 14.5951 15.6466 14.6206C15.6504 14.6227 15.6924 14.6465 15.7568 14.6739C15.5188 14.7697 15.0939 14.8949 14.3967 14.9636C14.3292 14.9704 14.2797 15.0307 14.2865 15.0982C14.293 15.1657 14.3514 15.2126 14.421 15.2087C15.7445 15.0778 16.1532 14.7465 16.1699 14.7323C16.2081 14.7003 16.2232 14.6482 16.2081 14.6007C16.198 14.5692 16.1759 14.5438 16.1475 14.529C16.5703 14.3959 16.7519 14.2486 16.7614 14.2407C16.8078 14.2023 16.8194 14.1358 16.7889 14.0836C16.7581 14.0315 16.6941 14.0089 16.6383 14.0315C16.6225 14.0375 16.5974 14.0437 16.5657 14.0499C16.8495 13.8556 17.1507 13.6242 17.2832 13.5209C17.3065 13.5036 17.3276 13.487 17.3462 13.4714C17.3977 13.4282 17.4049 13.3517 17.3624 13.2996C17.3203 13.2478 17.2435 13.2391 17.1909 13.2806C17.1717 13.2958 17.1517 13.3114 17.131 13.3275C17.0699 13.3729 16.9917 13.4243 16.9064 13.4771C17.2284 13.1115 17.5527 12.7151 17.6453 12.6012C17.6537 12.5909 17.6619 12.5806 17.6704 12.5702C17.7129 12.5173 17.7046 12.44 17.6517 12.3975C17.5987 12.3542 17.5213 12.3631 17.4789 12.4157L17.4786 12.416L17.4785 12.4163C17.4762 12.4189 17.4658 12.4319 17.4482 12.4535C17.3512 12.5719 17.2491 12.6866 17.1483 12.7937C17.4764 12.1991 17.7248 11.6138 17.7612 11.5271C17.7625 11.524 17.7637 11.5209 17.765 11.5177C17.7911 11.4555 17.7615 11.3834 17.6987 11.3574ZM11.9334 15.5039L11.967 15.5082C11.9258 15.5468 11.8922 15.5899 11.8656 15.6345C11.8072 15.6298 11.7542 15.6257 11.7127 15.6238C11.7699 15.5864 11.8435 15.5459 11.9334 15.5039Z" fill="#FFE15A"/>
</svg>
