<svg width="18" height="18" viewBox="0 0 18 18" fill="none" xmlns="http://www.w3.org/2000/svg">
<rect x="0.5" y="0.5" width="17" height="17" rx="8.5" stroke="#F0CA22"/>
<path d="M8.40886 7.56338C8.0723 7.81303 7.66466 7.94839 7.24561 7.94963C6.80949 7.94963 6.40936 7.80338 6.08199 7.56338C5.80074 7.79776 5.52024 8.13338 5.29074 8.54701C4.75711 9.50813 4.69824 10.494 5.15949 10.7498C5.36499 10.8668 5.58174 10.779 5.80524 10.5638C5.7634 10.7957 5.74244 11.0309 5.74261 11.2665C5.74261 12.3683 6.17011 13.2585 6.69624 13.2585C7.01349 13.2585 7.17061 12.9341 7.24599 12.438C7.32099 12.9308 7.47849 13.2585 7.79349 13.2585C8.31736 13.2585 8.74824 12.3679 8.74824 11.2665C8.74824 11.019 8.72499 10.7828 8.68524 10.5641C8.91024 10.7798 9.12624 10.869 9.33249 10.7505C9.79261 10.4948 9.73299 9.50926 9.19974 8.54776C8.97099 8.13376 8.68974 7.79851 8.40849 7.56413L8.40886 7.56338ZM7.24524 7.57463C7.45603 7.57456 7.66475 7.53297 7.85947 7.45223C8.05419 7.37149 8.23111 7.25319 8.38011 7.10409C8.52911 6.95498 8.64729 6.77798 8.72789 6.5832C8.80849 6.38843 8.84994 6.17968 8.84986 5.96888C8.84979 5.75809 8.8082 5.54937 8.72746 5.35465C8.64672 5.15993 8.52842 4.98301 8.37932 4.83401C8.23021 4.68501 8.05321 4.56683 7.85843 4.48623C7.66366 4.40563 7.45491 4.36418 7.24411 4.36426C6.81829 4.36441 6.40997 4.53371 6.10897 4.83491C5.80798 5.13612 5.63896 5.54456 5.63911 5.97038C5.63926 6.3962 5.80856 6.80453 6.10977 7.10552C6.41098 7.40652 6.81942 7.57553 7.24524 7.57538V7.57463ZM11.2454 9.62588C11.8109 9.62588 12.2699 9.16688 12.2699 8.60063C12.2699 8.03438 11.8101 7.57463 11.245 7.57463C10.9729 7.57473 10.712 7.68286 10.5196 7.87525C10.3272 8.06764 10.2191 8.32855 10.219 8.60063C10.2192 8.87271 10.3274 9.13358 10.5199 9.3259C10.7123 9.51823 10.9733 9.62588 11.2454 9.62588ZM12.4941 10.2473C12.3479 9.98288 12.1686 9.76838 11.9886 9.61838C11.7786 9.77213 11.5236 9.86588 11.245 9.86588C10.966 9.86588 10.7102 9.77213 10.5014 9.61838C10.3214 9.76838 10.1421 9.98288 9.99511 10.2473C9.65386 10.8615 9.61636 11.4915 9.91111 11.655C10.0424 11.73 10.1811 11.6738 10.3236 11.5365C10.2975 11.6847 10.2845 11.8349 10.2846 11.9854C10.2846 12.6904 10.5576 13.2593 10.894 13.2593C11.0965 13.2593 11.1977 13.0519 11.2457 12.735C11.2937 13.05 11.3942 13.2589 11.596 13.2589C11.9309 13.2589 12.2061 12.6896 12.2061 11.9854C12.2061 11.8279 12.1911 11.6764 12.1656 11.5369C12.3092 11.6745 12.4476 11.7319 12.5796 11.6558C12.8729 11.493 12.8346 10.8626 12.4941 10.2484V10.2473Z" fill="#F0CA22"/>
</svg>
