<svg width="20" height="20" viewBox="0 0 20 20" fill="none" xmlns="http://www.w3.org/2000/svg">
<path d="M13.7608 1.76099C14.0537 1.46226 14.4028 1.22455 14.7881 1.06158C15.1735 0.89862 15.5872 0.813643 16.0056 0.811563C16.4239 0.809483 16.8385 0.890341 17.2254 1.04947C17.6123 1.20859 17.9639 1.44282 18.2597 1.73862C18.5555 2.03443 18.7898 2.38593 18.949 2.77282C19.1081 3.15971 19.189 3.5743 19.187 3.99265C19.1849 4.41099 19.1 4.82478 18.9371 5.2101C18.7742 5.59542 18.5365 5.94463 18.2378 6.23753L17.2139 7.26237L17.6424 7.71978C17.9883 8.08873 18.1772 8.57775 18.1691 9.08343C18.161 9.58912 17.9565 10.0718 17.5989 10.4295L16.0195 12.0089C15.912 12.1163 15.7663 12.1767 15.6143 12.1767C15.4623 12.1767 15.3166 12.1163 15.2091 12.0089C15.1017 11.9014 15.0413 11.7557 15.0413 11.6037C15.0413 11.4517 15.1017 11.306 15.2091 11.1985L16.7885 9.61912C16.9359 9.4719 17.0203 9.2731 17.0237 9.06481C17.0271 8.85651 16.9493 8.65506 16.8069 8.50308L16.4031 8.0727L7.16079 17.3164C6.8115 17.6658 6.37452 17.9147 5.89579 18.0369L1.54804 19.1483C1.45166 19.173 1.35052 19.1722 1.25457 19.1459C1.15861 19.1196 1.07116 19.0688 1.00081 18.9984C0.930463 18.9281 0.879647 18.8406 0.853363 18.7447C0.82708 18.6487 0.826235 18.5476 0.850914 18.4512L1.96329 14.1039C2.08561 13.6255 2.33449 13.1889 2.68379 12.8398L13.7608 1.76099Z" fill="white"/>
</svg>
