<svg width="17" height="17" viewBox="0 0 17 17" fill="none" xmlns="http://www.w3.org/2000/svg">
<path d="M7.33366 14.0003C8.81281 14 10.2493 13.5049 11.4145 12.5937L15.0778 16.257L16.2562 15.0787L12.5928 11.4153C13.5045 10.25 14 8.81319 14.0003 7.33366C14.0003 3.65783 11.0095 0.666992 7.33366 0.666992C3.65783 0.666992 0.666992 3.65783 0.666992 7.33366C0.666992 11.0095 3.65783 14.0003 7.33366 14.0003ZM7.33366 2.33366C10.0912 2.33366 12.3337 4.57616 12.3337 7.33366C12.3337 10.0912 10.0912 12.3337 7.33366 12.3337C4.57616 12.3337 2.33366 10.0912 2.33366 7.33366C2.33366 4.57616 4.57616 2.33366 7.33366 2.33366Z" fill="#77787A"/>
</svg>
