<svg width="44" height="44" viewBox="0 0 44 44" fill="none" xmlns="http://www.w3.org/2000/svg">
<rect width="44" height="44" rx="4" fill="url(#paint0_linear_2273_20831)"/>
<path d="M17.7499 19.1665C17.7646 18.0438 18.2171 16.9714 19.0109 16.1775C19.8048 15.3836 20.8773 14.9311 21.9999 14.9165C23.1225 14.9311 24.195 15.3836 24.9889 16.1775C25.7828 16.9714 26.2352 18.0438 26.2499 19.1665C26.2352 20.2891 25.7828 21.3616 24.9889 22.1554C24.195 22.9493 23.1225 23.4018 21.9999 23.4165C20.8773 23.4018 19.8048 22.9493 19.0109 22.1554C18.2171 21.3616 17.7646 20.2891 17.7499 19.1665ZM21.9999 31.9165L27.6666 33.3331V28.9698C25.9576 29.9989 23.9946 30.5289 21.9999 30.4998C20.0052 30.5289 18.0422 29.9989 16.3332 28.9698V33.3331M21.9999 10.6665C20.8835 10.6461 19.7748 10.8543 18.7418 11.2782C17.7088 11.7021 16.7735 12.3328 15.9932 13.1315C15.1859 13.9126 14.5479 14.8514 14.119 15.8897C13.69 16.9279 13.4793 18.0433 13.4999 19.1665C13.4851 20.2825 13.6987 21.3898 14.1275 22.4203C14.5562 23.4508 15.1912 24.3828 15.9932 25.159C16.7699 25.9653 17.7036 26.6039 18.7367 27.0352C19.7699 27.4665 20.8805 27.6813 21.9999 27.6665C23.1194 27.6813 24.23 27.4665 25.2631 27.0352C26.2962 26.6039 27.23 25.9653 28.0066 25.159C28.8086 24.3828 29.4436 23.4508 29.8723 22.4203C30.3011 21.3898 30.5147 20.2825 30.4999 19.1665C30.5205 18.0433 30.3098 16.9279 29.8808 15.8897C29.4519 14.8514 28.8139 13.9126 28.0066 13.1315C27.2263 12.3328 26.291 11.7021 25.258 11.2782C24.225 10.8543 23.1163 10.6461 21.9999 10.6665M33.3332 19.1665C33.3031 20.5263 33.0296 21.8697 32.5257 23.1331C32.0718 24.4186 31.3851 25.6096 30.4999 26.6465V37.5831L21.9999 34.7498L13.4999 37.5831V26.6465C11.6663 24.5873 10.6574 21.9237 10.6666 19.1665C10.6416 17.6798 10.9216 16.2038 11.4893 14.8295C12.0571 13.4553 12.9004 12.212 13.9674 11.1765C15.0068 10.0999 16.2558 9.24785 17.6374 8.67282C19.0189 8.09779 20.5036 7.81201 21.9999 7.83312C23.4962 7.81201 24.9809 8.09779 26.3624 8.67282C27.744 9.24785 28.993 10.0999 30.0324 11.1765C31.0994 12.212 31.9427 13.4553 32.5105 14.8295C33.0782 16.2038 33.3582 17.6798 33.3332 19.1665V19.1665Z" fill="white"/>
<defs>
<linearGradient id="paint0_linear_2273_20831" x1="22" y1="0" x2="22" y2="44" gradientUnits="userSpaceOnUse">
<stop stop-color="#86F8FF"/>
<stop offset="1" stop-color="#1DC4CF"/>
</linearGradient>
</defs>
</svg>
