<svg width="24" height="24" viewBox="0 0 24 24" fill="none" xmlns="http://www.w3.org/2000/svg">
<path d="M18.132 6.85721C19.2782 6.85721 19.6939 6.97656 20.1129 7.20067C20.532 7.42478 20.8609 7.75365 21.085 8.1727L21.1641 8.33111C21.3371 8.70707 21.4284 9.15068 21.4284 10.1536V11.1429C21.4284 11.6163 21.0447 12.0001 20.5713 12.0001C20.0979 12.0001 19.7141 11.6163 19.7141 11.1429V10.1536C19.7141 9.36738 19.677 9.17508 19.5733 8.98115C19.509 8.86085 19.4248 8.77669 19.3045 8.71235C19.1383 8.62345 18.9732 8.58347 18.4343 8.57386L18.132 8.5715H5.86771L5.56538 8.57386C5.02648 8.58347 4.86145 8.62345 4.69523 8.71235C4.57493 8.77669 4.49076 8.86085 4.42642 8.98115C4.33012 9.16123 4.29122 9.3399 4.28615 9.99403L4.28557 16.2423C4.28557 17.8995 4.39668 18.4748 4.71264 19.0656C4.96373 19.5351 5.32196 19.8933 5.79147 20.1444C6.38226 20.4604 6.9576 20.5715 8.61473 20.5715H10.2856C10.759 20.5715 11.1427 20.9553 11.1427 21.4286C11.1427 21.902 10.759 22.2858 10.2856 22.2858H8.61473L8.1165 22.2812C6.38625 22.248 5.68724 22.0327 4.98301 21.6561C4.21476 21.2452 3.61183 20.6423 3.20096 19.8741C2.80721 19.1378 2.58986 18.4073 2.57243 16.4981L2.57129 10.1536C2.57129 9.0074 2.69064 8.59175 2.91475 8.1727C3.13885 7.75365 3.46773 7.42478 3.88677 7.20067L4.04519 7.12157C4.3943 6.96094 4.80173 6.87068 5.66118 6.85861L18.132 6.85721ZM16.2856 12.0001C19.1259 12.0001 21.4284 14.3026 21.4284 17.1429C21.4284 19.9832 19.1259 22.2858 16.2856 22.2858C13.4453 22.2858 11.1427 19.9832 11.1427 17.1429C11.1427 14.3026 13.4453 12.0001 16.2856 12.0001ZM16.2856 13.7144C15.846 13.7144 15.4837 14.0452 15.4342 14.4715L15.4284 14.5715V16.2858H13.7141C13.2408 16.2858 12.857 16.6695 12.857 17.1429C12.857 17.5825 13.1879 17.9448 13.6142 17.9943L13.7141 18.0001H15.4284V19.7144C15.4284 20.1877 15.8122 20.5715 16.2856 20.5715C16.7251 20.5715 17.0874 20.2406 17.137 19.8143L17.1427 19.7144V18.0001H18.857C19.3304 18.0001 19.7141 17.6163 19.7141 17.1429C19.7141 16.7034 19.3833 16.3411 18.957 16.2916L18.857 16.2858H17.1427V14.5715C17.1427 14.0981 16.759 13.7144 16.2856 13.7144ZM7.71415 10.2858C8.18753 10.2858 8.57129 10.6695 8.57129 11.1429C8.57129 11.6163 8.18753 12.0001 7.71415 12.0001C7.24076 12.0001 6.857 11.6163 6.857 11.1429C6.857 10.6695 7.24076 10.2858 7.71415 10.2858ZM11.9999 1.71436C14.8402 1.71436 17.1427 4.01689 17.1427 6.85721H15.4284C15.4284 4.96367 13.8934 3.42864 11.9999 3.42864C10.1063 3.42864 8.57129 4.96367 8.57129 6.85721H6.857C6.857 4.01689 9.15954 1.71436 11.9999 1.71436Z" fill="#1DC4CF"/>
</svg>
