<svg width="24" height="24" viewBox="0 0 24 24" fill="none" xmlns="http://www.w3.org/2000/svg">
<path d="M5 22C3.89543 22 3 21.1046 3 20V19C3 17.8954 3.89543 17 5 17H19C20.1046 17 21 17.8954 21 19V20C21 21.1046 20.1046 22 19 22H5Z" fill="#1DC4CF"/>
<path d="M5.5 20C5.22386 20 5 19.7761 5 19.5C5 19.2239 5.22386 19 5.5 19H18.5C18.7761 19 19 19.2239 19 19.5C19 19.7761 18.7761 20 18.5 20H5.5Z" fill="white"/>
<path d="M5 15C3.89543 15 3 14.1046 3 13V12C3 10.8954 3.89543 10 5 10H19C20.1046 10 21 10.8954 21 12V13C21 14.1046 20.1046 15 19 15H5Z" fill="#1DC4CF"/>
<path d="M5.5 13C5.22386 13 5 12.7761 5 12.5C5 12.2239 5.22386 12 5.5 12H18.5C18.7761 12 19 12.2239 19 12.5C19 12.7761 18.7761 13 18.5 13H5.5Z" fill="white"/>
<path d="M5 8C3.89543 8 3 7.10457 3 6V5C3 3.89543 3.89543 3 5 3H19C20.1046 3 21 3.89543 21 5V6C21 7.10457 20.1046 8 19 8H5Z" fill="#1DC4CF"/>
<path d="M5.5 6C5.22386 6 5 5.77614 5 5.5C5 5.22386 5.22386 5 5.5 5H18.5C18.7761 5 19 5.22386 19 5.5C19 5.77614 18.7761 6 18.5 6H5.5Z" fill="white"/>
</svg>
