<svg width="24" height="24" viewBox="0 0 24 24" fill="none" xmlns="http://www.w3.org/2000/svg">
<path fill-rule="evenodd" clip-rule="evenodd" d="M7.6001 10.8996L7.63343 10.8996C8.02494 10.8996 8.37143 10.8996 8.65859 10.8762C8.96437 10.8512 9.28122 10.7952 9.58968 10.638C10.0413 10.4079 10.4084 10.0408 10.6385 9.58919C10.7957 9.28074 10.8517 8.96388 10.8767 8.6581C10.9001 8.37095 10.9001 8.02447 10.9001 7.63298V7.63297V7.63296V7.63294L10.9001 7.59961V6.39961L10.9001 6.36628C10.9001 5.97477 10.9001 5.62828 10.8767 5.34113C10.8517 5.03534 10.7957 4.71849 10.6385 4.41004C10.4084 3.95845 10.0413 3.59129 9.58968 3.3612C9.28122 3.20403 8.96437 3.14802 8.65859 3.12304C8.37145 3.09958 8.02498 3.09959 7.6335 3.09961H7.63344L7.6001 3.09961L6.4001 3.09961L6.36676 3.09961H6.3667C5.97522 3.09959 5.62875 3.09958 5.34162 3.12304C5.03583 3.14802 4.71898 3.20403 4.41052 3.3612C3.95893 3.59129 3.59178 3.95845 3.36169 4.41003C3.20452 4.71849 3.14851 5.03534 3.12353 5.34113C3.10007 5.62826 3.10008 5.97473 3.1001 6.36621V6.36628L3.1001 6.39961L3.1001 7.59961L3.1001 7.63295V7.63301C3.10008 8.02449 3.10007 8.37096 3.12353 8.6581C3.14851 8.96388 3.20452 9.28073 3.36168 9.58919C3.59178 10.0408 3.95893 10.4079 4.41052 10.638C4.71898 10.7952 5.03583 10.8512 5.34161 10.8762C5.62876 10.8996 5.97524 10.8996 6.36673 10.8996H6.36674H6.36675H6.36676L6.4001 10.8996H7.6001ZM8.77249 9.03422C8.76008 9.04054 8.70648 9.06628 8.51201 9.08217C8.30703 9.09891 8.03499 9.09961 7.6001 9.09961L6.4001 9.09961C5.96521 9.09961 5.69317 9.09891 5.48819 9.08217C5.29372 9.06628 5.24012 9.04054 5.22771 9.03422C5.11481 8.97669 5.02302 8.8849 4.9655 8.77201C4.95917 8.75959 4.93344 8.70599 4.91755 8.51152C4.9008 8.30654 4.9001 8.0345 4.9001 7.59961L4.9001 6.39961C4.9001 5.96472 4.9008 5.69268 4.91755 5.4877C4.93344 5.29323 4.95917 5.23963 4.9655 5.22722C5.02302 5.11432 5.11481 5.02253 5.22771 4.96501C5.24012 4.95868 5.29372 4.93295 5.48819 4.91706C5.69317 4.90031 5.96521 4.89961 6.4001 4.89961L7.6001 4.89961C8.03499 4.89961 8.30703 4.90031 8.51201 4.91706C8.70648 4.93295 8.76008 4.95868 8.7725 4.96501C8.88539 5.02253 8.97718 5.11432 9.0347 5.22722C9.04103 5.23963 9.06676 5.29323 9.08265 5.4877C9.0994 5.69268 9.1001 5.96472 9.1001 6.39961L9.1001 7.59961C9.1001 8.0345 9.0994 8.30654 9.08265 8.51152C9.06676 8.70599 9.04103 8.75959 9.0347 8.77201C8.97718 8.8849 8.88539 8.97669 8.77249 9.03422ZM7.6001 20.8996L7.63343 20.8996H7.63353C8.025 20.8996 8.37146 20.8996 8.65859 20.8762C8.96437 20.8512 9.28122 20.7952 9.58968 20.638C10.0413 20.4079 10.4084 20.0408 10.6385 19.5892C10.7957 19.2807 10.8517 18.9639 10.8767 18.6581C10.9001 18.371 10.9001 18.0245 10.9001 17.633V17.633V17.633V17.6329L10.9001 17.5996V16.3996L10.9001 16.3663C10.9001 15.9748 10.9001 15.6283 10.8767 15.3411C10.8517 15.0353 10.7957 14.7185 10.6385 14.41C10.4084 13.9584 10.0413 13.5913 9.58968 13.3612C9.28122 13.204 8.96437 13.148 8.65859 13.123C8.37145 13.0996 8.02498 13.0996 7.63351 13.0996H7.6335H7.63349H7.63344L7.6001 13.0996H6.4001L6.36677 13.0996H6.36671H6.3667H6.36669C5.97522 13.0996 5.62875 13.0996 5.34162 13.123C5.03583 13.148 4.71898 13.204 4.41052 13.3612C3.95893 13.5913 3.59178 13.9584 3.36169 14.41C3.20452 14.7185 3.14851 15.0353 3.12353 15.3411C3.10007 15.6283 3.10008 15.9747 3.1001 16.3662V16.3663L3.1001 16.3996L3.1001 17.5996L3.1001 17.6329V17.633C3.10008 18.0245 3.10007 18.371 3.12353 18.6581C3.14851 18.9639 3.20452 19.2807 3.36168 19.5892C3.59178 20.0408 3.95893 20.4079 4.41052 20.638C4.71898 20.7952 5.03583 20.8512 5.34161 20.8762C5.62874 20.8996 5.9752 20.8996 6.36667 20.8996H6.36676L6.4001 20.8996H7.6001ZM8.77249 19.0342C8.76008 19.0405 8.70648 19.0663 8.51201 19.0822C8.30703 19.0989 8.03499 19.0996 7.6001 19.0996H6.4001C5.96521 19.0996 5.69317 19.0989 5.48819 19.0822C5.29372 19.0663 5.24012 19.0405 5.22771 19.0342C5.11481 18.9767 5.02302 18.8849 4.9655 18.772C4.95917 18.7596 4.93344 18.706 4.91755 18.5115C4.9008 18.3065 4.9001 18.0345 4.9001 17.5996L4.9001 16.3996C4.9001 15.9647 4.9008 15.6927 4.91755 15.4877C4.93344 15.2932 4.95917 15.2396 4.9655 15.2272C5.02302 15.1143 5.11481 15.0225 5.22771 14.965C5.24012 14.9587 5.29372 14.9329 5.48819 14.9171C5.69317 14.9003 5.96521 14.8996 6.4001 14.8996H7.6001C8.03499 14.8996 8.30703 14.9003 8.51201 14.9171C8.70648 14.9329 8.76008 14.9587 8.7725 14.965C8.88539 15.0225 8.97718 15.1143 9.0347 15.2272C9.04103 15.2396 9.06676 15.2932 9.08265 15.4877C9.0994 15.6927 9.1001 15.9647 9.1001 16.3996L9.1001 17.5996C9.1001 18.0345 9.0994 18.3065 9.08265 18.5115C9.06676 18.706 9.04103 18.7596 9.0347 18.772C8.97718 18.8849 8.88539 18.9767 8.77249 19.0342ZM17.6334 10.8996L17.6001 10.8996H16.4001L16.3668 10.8996H16.3668H16.3667C15.9752 10.8996 15.6288 10.8996 15.3416 10.8762C15.0358 10.8512 14.719 10.7952 14.4105 10.638C13.9589 10.4079 13.5918 10.0408 13.3617 9.58919C13.2045 9.28073 13.1485 8.96388 13.1235 8.6581C13.1001 8.37094 13.1001 8.02445 13.1001 7.63295L13.1001 7.59961V6.39961L13.1001 6.36628C13.1001 5.97477 13.1001 5.62828 13.1235 5.34113C13.1485 5.03534 13.2045 4.71849 13.3617 4.41003C13.5918 3.95845 13.9589 3.59129 14.4105 3.3612C14.719 3.20403 15.0358 3.14802 15.3416 3.12304C15.6288 3.09958 15.9752 3.09959 16.3667 3.09961H16.3668L16.4001 3.09961L17.6001 3.09961L17.6334 3.09961H17.6335C18.025 3.09959 18.3714 3.09958 18.6586 3.12304C18.9644 3.14802 19.2812 3.20403 19.5897 3.3612C20.0413 3.59129 20.4084 3.95845 20.6385 4.41004C20.7957 4.71849 20.8517 5.03534 20.8767 5.34113C20.9001 5.62828 20.9001 5.97477 20.9001 6.36628L20.9001 6.39961V7.59961L20.9001 7.63294C20.9001 8.02445 20.9001 8.37094 20.8767 8.6581C20.8517 8.96388 20.7957 9.28074 20.6385 9.58919C20.4084 10.0408 20.0413 10.4079 19.5897 10.638C19.2812 10.7952 18.9644 10.8512 18.6586 10.8762C18.3714 10.8996 18.0249 10.8996 17.6334 10.8996ZM18.512 9.08217C18.7065 9.06628 18.7601 9.04054 18.7725 9.03422C18.8854 8.97669 18.9772 8.8849 19.0347 8.77201C19.041 8.75959 19.0668 8.70599 19.0827 8.51152C19.0994 8.30654 19.1001 8.0345 19.1001 7.59961V6.39961C19.1001 5.96472 19.0994 5.69268 19.0827 5.4877C19.0668 5.29323 19.041 5.23963 19.0347 5.22722C18.9772 5.11432 18.8854 5.02253 18.7725 4.96501C18.7601 4.95868 18.7065 4.93295 18.512 4.91706C18.307 4.90031 18.035 4.89961 17.6001 4.89961L16.4001 4.89961C15.9652 4.89961 15.6932 4.90031 15.4882 4.91706C15.2937 4.93295 15.2401 4.95868 15.2277 4.96501C15.1148 5.02253 15.023 5.11432 14.9655 5.22722C14.9592 5.23963 14.9334 5.29323 14.9175 5.4877C14.9008 5.69268 14.9001 5.96472 14.9001 6.39961V7.59961C14.9001 8.0345 14.9008 8.30654 14.9175 8.51152C14.9334 8.70599 14.9592 8.75959 14.9655 8.77201C15.023 8.8849 15.1148 8.97669 15.2277 9.03422C15.2401 9.04054 15.2937 9.06628 15.4882 9.08217C15.6932 9.09891 15.9652 9.09961 16.4001 9.09961L17.6001 9.09961C18.035 9.09961 18.307 9.09891 18.512 9.08217ZM17.6001 20.8996L17.6334 20.8996H17.6335C18.025 20.8996 18.3715 20.8996 18.6586 20.8762C18.9644 20.8512 19.2812 20.7952 19.5897 20.638C20.0413 20.4079 20.4084 20.0408 20.6385 19.5892C20.7957 19.2807 20.8517 18.9639 20.8767 18.6581C20.9001 18.3709 20.9001 18.0245 20.9001 17.6329L20.9001 17.5996V16.3996L20.9001 16.3663C20.9001 15.9748 20.9001 15.6283 20.8767 15.3411C20.8517 15.0353 20.7957 14.7185 20.6385 14.41C20.4084 13.9584 20.0413 13.5913 19.5897 13.3612C19.2812 13.204 18.9644 13.148 18.6586 13.123C18.3714 13.0996 18.025 13.0996 17.6335 13.0996H17.6334L17.6001 13.0996H16.4001L16.3668 13.0996H16.3667C15.9752 13.0996 15.6288 13.0996 15.3416 13.123C15.0358 13.148 14.719 13.204 14.4105 13.3612C13.9589 13.5913 13.5918 13.9584 13.3617 14.41C13.2045 14.7185 13.1485 15.0353 13.1235 15.3411C13.1001 15.6283 13.1001 15.9748 13.1001 16.3663L13.1001 16.3996V17.5996L13.1001 17.6329C13.1001 18.0245 13.1001 18.3709 13.1235 18.6581C13.1485 18.9639 13.2045 19.2807 13.3617 19.5892C13.5918 20.0408 13.9589 20.4079 14.4105 20.638C14.719 20.7952 15.0358 20.8512 15.3416 20.8762C15.6287 20.8996 15.9752 20.8996 16.3667 20.8996H16.3668L16.4001 20.8996H17.6001ZM18.7725 19.0342C18.7601 19.0405 18.7065 19.0663 18.512 19.0822C18.307 19.0989 18.035 19.0996 17.6001 19.0996H16.4001C15.9652 19.0996 15.6932 19.0989 15.4882 19.0822C15.2937 19.0663 15.2401 19.0405 15.2277 19.0342C15.1148 18.9767 15.023 18.8849 14.9655 18.772C14.9592 18.7596 14.9334 18.706 14.9175 18.5115C14.9008 18.3065 14.9001 18.0345 14.9001 17.5996V16.3996C14.9001 15.9647 14.9008 15.6927 14.9175 15.4877C14.9334 15.2932 14.9592 15.2396 14.9655 15.2272C15.023 15.1143 15.1148 15.0225 15.2277 14.965C15.2401 14.9587 15.2937 14.9329 15.4882 14.9171C15.6932 14.9003 15.9652 14.8996 16.4001 14.8996H17.6001C18.035 14.8996 18.307 14.9003 18.512 14.9171C18.7065 14.9329 18.7601 14.9587 18.7725 14.965C18.8854 15.0225 18.9772 15.1143 19.0347 15.2272C19.041 15.2396 19.0668 15.2932 19.0827 15.4877C19.0994 15.6927 19.1001 15.9647 19.1001 16.3996V17.5996C19.1001 18.0345 19.0994 18.3065 19.0827 18.5115C19.0668 18.706 19.041 18.7596 19.0347 18.772C18.9772 18.8849 18.8854 18.9767 18.7725 19.0342Z" fill="#AAAEB3"/>
</svg>
