<svg width="318" height="318" viewBox="0 0 318 318" fill="none" xmlns="http://www.w3.org/2000/svg">
<path fill-rule="evenodd" clip-rule="evenodd" d="M76.0764 0H242.191C283.767 0 317.781 34.014 317.781 75.5906V241.705C317.781 283.282 283.767 317.296 242.191 317.296H76.0764C34.4999 317.296 0.48584 283.282 0.48584 241.705V75.5906C0.48584 34.014 34.4999 0 76.0764 0Z" fill="#21C3CE"/>
<path fill-rule="evenodd" clip-rule="evenodd" d="M205.302 25.1597C203.267 33.669 198.897 41.4423 192.703 47.6364C183.772 56.5673 171.771 61.5387 159.137 61.5387C146.504 61.5387 134.503 56.5673 125.572 47.6364C119.378 41.4423 115.008 33.669 112.973 25.1597C114.008 23.8028 114.571 22.1431 114.571 20.4183C114.571 16.0947 111.068 12.5913 106.744 12.5913C102.42 12.5913 98.917 16.0947 98.917 20.4183C98.917 22.9097 100.098 25.2249 102.064 26.6929C104.46 37.5671 109.933 47.5176 117.814 55.3944C128.807 66.3875 143.587 72.5126 159.137 72.5126C174.688 72.5126 189.468 66.3913 200.461 55.3944C208.338 47.5176 213.815 37.5671 216.211 26.6929C218.177 25.2249 219.358 22.9097 219.358 20.4183C219.358 16.0947 215.854 12.5913 211.531 12.5913C207.207 12.5913 203.704 16.0947 203.704 20.4183C203.704 22.147 204.271 23.8067 205.302 25.1597Z" fill="white"/>
<path fill-rule="evenodd" clip-rule="evenodd" d="M258.837 206.652C252.613 209.592 245.395 209.278 239.458 205.798C233.256 202.164 229.48 195.732 229.48 188.534V152.438C229.48 145.236 233.256 138.808 239.458 135.175C245.395 131.694 252.613 131.38 258.837 134.32L297.052 152.366C304.14 155.712 308.651 162.626 308.651 170.484C308.651 178.342 304.14 185.256 297.052 188.607L258.841 206.656L258.837 206.652Z" fill="#F21313"/>
<path d="M22.0078 207.695C19.3132 207.695 17.2396 206.951 15.783 205.46C14.3303 203.969 13.6021 201.915 13.6021 199.289V140.878C13.6021 138.111 14.3112 136.018 15.7294 134.6C17.1476 133.181 19.2059 132.472 21.9005 132.472C24.5261 132.472 26.5461 133.181 27.9643 134.6C29.3825 136.018 30.0916 138.111 30.0916 140.878V193.754H58.6053C60.8744 193.754 62.63 194.356 63.8718 195.564C65.1137 196.771 65.7347 198.473 65.7347 200.669C65.7347 202.938 65.1137 204.678 63.8718 205.882C62.63 207.089 60.8744 207.691 58.6053 207.691H22.004L22.0078 207.695ZM103.612 208.864C98.2922 208.864 93.5929 208.174 89.5146 206.79C85.4363 205.407 82.0134 203.368 79.246 200.673C76.4786 197.978 74.4049 194.59 73.0212 190.512C71.6375 186.433 70.9475 181.7 70.9475 176.31V140.135C70.9475 137.367 71.6567 135.274 73.0749 133.856C74.4931 132.438 76.5514 131.729 79.246 131.729C81.8716 131.729 83.8916 132.438 85.3098 133.856C86.728 135.274 87.4371 137.367 87.4371 140.135V176.414C87.4371 182.512 88.8208 187.108 91.5882 190.193C94.3557 193.279 98.3612 194.824 103.609 194.824C108.856 194.824 112.846 193.283 115.579 190.193C118.308 187.108 119.676 182.516 119.676 176.414V140.135C119.676 137.367 120.386 135.274 121.804 133.856C123.222 132.438 125.246 131.729 127.868 131.729C130.493 131.729 132.494 132.438 133.878 133.856C135.261 135.274 135.951 137.367 135.951 140.135V176.31C135.951 183.474 134.729 189.484 132.279 194.345C129.834 199.205 126.216 202.839 121.428 205.25C116.641 207.66 110.7 208.868 103.609 208.868L103.612 208.864ZM158.194 208.649C155.71 208.649 153.813 207.959 152.502 206.576C151.191 205.192 150.536 203.226 150.536 200.673V140.027C150.536 137.333 151.191 135.274 152.502 133.856C153.813 132.438 155.569 131.729 157.769 131.729C159.685 131.729 161.157 132.101 162.184 132.844C163.212 133.588 164.4 134.814 165.749 136.516L200.2 180.393L200.219 139.602C200.219 137.118 200.875 135.186 202.186 133.802C203.496 132.419 205.394 131.729 207.878 131.729C210.361 131.729 212.259 132.419 213.57 133.802C214.881 135.186 215.54 137.118 215.54 139.602V200.991C215.54 203.333 214.938 205.192 213.731 206.576C212.523 207.959 210.894 208.649 208.836 208.649C206.85 208.649 205.271 208.258 204.102 207.48C202.933 206.698 201.672 205.46 200.327 203.755L165.845 159.713L165.856 200.669C165.856 203.222 165.216 205.192 163.94 206.572C162.664 207.956 160.747 208.646 158.194 208.646V208.649Z" fill="white"/>
<path fill-rule="evenodd" clip-rule="evenodd" d="M253.092 194.49L291.303 176.441C293.748 175.287 295.197 173.072 295.193 170.484C295.193 167.897 293.745 165.682 291.303 164.528L253.088 146.482C250.846 145.424 248.385 145.531 246.254 146.781C244.123 148.031 242.923 150.07 242.923 152.442L256.729 159.043V181.937L242.923 188.538C242.923 190.91 244.123 192.949 246.254 194.199C248.385 195.449 250.846 195.556 253.088 194.494L253.092 194.49ZM266.615 163.761L280.678 170.484L266.615 177.207V163.761Z" fill="white"/>
<path d="M70.4454 281.519C69.7478 281.519 69.215 281.319 68.8394 280.921C68.4676 280.522 68.2798 279.974 68.2798 279.276V256.838C68.2798 256.117 68.4791 255.561 68.8777 255.178C69.2763 254.791 69.8245 254.599 70.5221 254.599C71.143 254.599 71.6375 254.718 71.9978 254.956C72.3581 255.193 72.6877 255.596 72.9867 256.171L82.2089 273.232H81.013L90.2352 256.171C90.5342 255.6 90.8561 255.193 91.2049 254.956C91.5537 254.718 92.0405 254.599 92.6615 254.599C93.3591 254.599 93.8919 254.791 94.2675 255.178C94.6393 255.565 94.8271 256.117 94.8271 256.838V279.276C94.8271 279.974 94.647 280.522 94.2867 280.921C93.9264 281.319 93.3859 281.519 92.6615 281.519C91.9639 281.519 91.4311 281.319 91.0555 280.921C90.6837 280.522 90.4958 279.974 90.4958 279.276V261.989H91.3161L83.4776 276.286C83.2285 276.708 82.9678 277.022 82.6919 277.222C82.4197 277.421 82.0441 277.521 81.5726 277.521C81.1011 277.521 80.714 277.413 80.4151 277.203C80.1161 276.992 79.8554 276.685 79.6293 276.286L71.7141 261.951H72.6111V279.272C72.6111 279.97 72.4309 280.518 72.0706 280.917C71.7103 281.315 71.1699 281.515 70.4454 281.515V281.519ZM106.594 281.519C105.996 281.519 105.517 281.381 105.157 281.108C104.797 280.836 104.578 280.468 104.505 280.008C104.429 279.548 104.517 279.031 104.766 278.46L114.621 256.619C114.943 255.899 115.338 255.381 115.797 255.071C116.257 254.76 116.786 254.603 117.384 254.603C117.955 254.603 118.473 254.76 118.933 255.071C119.393 255.381 119.784 255.899 120.11 256.619L130.003 278.46C130.275 279.031 130.374 279.556 130.302 280.027C130.229 280.499 130.014 280.867 129.665 281.128C129.316 281.388 128.857 281.519 128.285 281.519C127.588 281.519 127.047 281.35 126.66 281.016C126.273 280.679 125.932 280.165 125.633 279.468L123.207 273.83L125.223 275.137H109.469L111.485 273.83L109.097 279.468C108.775 280.188 108.438 280.714 108.089 281.036C107.741 281.358 107.242 281.522 106.594 281.522V281.519ZM117.308 260.088L112.079 272.519L111.11 271.323H123.578L122.647 272.519L117.384 260.088H117.312H117.308ZM142.218 281.519C141.448 281.519 140.854 281.3 140.444 280.867C140.034 280.43 139.827 279.828 139.827 279.058V257.328C139.827 256.531 140.037 255.929 140.463 255.519C140.884 255.109 141.482 254.902 142.253 254.902H151.249C154.135 254.902 156.362 255.592 157.93 256.976C159.498 258.356 160.283 260.291 160.283 262.783C160.283 264.4 159.931 265.796 159.218 266.965C158.509 268.134 157.481 269.031 156.136 269.652C154.791 270.273 153.162 270.583 151.245 270.583L151.582 270.023H152.813C153.832 270.023 154.722 270.272 155.481 270.771C156.239 271.269 156.906 272.051 157.477 273.124L160.276 278.314C160.575 278.835 160.713 279.345 160.686 279.844C160.659 280.342 160.475 280.744 160.126 281.059C159.777 281.369 159.268 281.526 158.597 281.526C157.926 281.526 157.378 281.384 156.952 281.097C156.531 280.809 156.155 280.369 155.833 279.771L152.061 272.825C151.613 271.978 151.084 271.415 150.475 271.127C149.865 270.84 149.087 270.698 148.14 270.698H144.595V279.062C144.595 279.832 144.395 280.438 143.997 280.871C143.598 281.308 143 281.522 142.207 281.522L142.218 281.519ZM144.606 267.145H150.429C152.146 267.145 153.445 266.788 154.331 266.079C155.216 265.37 155.657 264.305 155.657 262.886C155.657 261.491 155.216 260.441 154.331 259.732C153.445 259.023 152.146 258.666 150.429 258.666H144.606V267.141V267.145ZM173.549 281.519C172.779 281.519 172.185 281.3 171.775 280.867C171.364 280.43 171.157 279.828 171.157 279.058V257.029C171.157 256.232 171.364 255.63 171.775 255.22C172.185 254.81 172.775 254.603 173.549 254.603C174.32 254.603 174.91 254.81 175.324 255.22C175.734 255.63 175.941 256.236 175.941 257.029V266.551H176.018L186.731 255.799C187.13 255.4 187.528 255.102 187.927 254.902C188.325 254.703 188.774 254.603 189.272 254.603C189.993 254.603 190.51 254.791 190.821 255.163C191.131 255.535 191.258 255.972 191.193 256.47C191.131 256.968 190.89 257.428 190.464 257.85L179.563 268.64L179.602 266.474L190.989 278.046C191.511 278.544 191.787 279.065 191.81 279.614C191.837 280.162 191.668 280.614 191.308 280.974C190.947 281.335 190.418 281.515 189.721 281.515C189.123 281.515 188.644 281.392 188.283 281.143C187.923 280.894 187.505 280.533 187.034 280.062L176.022 269.05H175.945V279.054C175.945 279.824 175.746 280.43 175.347 280.863C174.948 281.3 174.35 281.515 173.557 281.515L173.549 281.519ZM204.248 281.22C203.427 281.22 202.799 281.001 202.362 280.568C201.925 280.131 201.71 279.502 201.71 278.682V257.44C201.71 256.619 201.929 255.991 202.362 255.554C202.799 255.117 203.427 254.902 204.248 254.902H217.575C218.196 254.902 218.675 255.063 219.012 255.389C219.35 255.711 219.515 256.175 219.515 256.769C219.515 257.39 219.346 257.869 219.012 258.206C218.675 258.544 218.196 258.712 217.575 258.712H206.302V265.957H216.755C217.403 265.957 217.889 266.118 218.211 266.443C218.533 266.765 218.698 267.241 218.698 267.862C218.698 268.483 218.537 268.958 218.211 269.28C217.889 269.602 217.403 269.767 216.755 269.767H206.302V277.421H217.575C218.196 277.421 218.675 277.582 219.012 277.908C219.35 278.23 219.515 278.705 219.515 279.326C219.515 279.947 219.346 280.422 219.012 280.744C218.675 281.066 218.196 281.231 217.575 281.231H204.248V281.22ZM238.269 281.519C237.499 281.519 236.909 281.3 236.495 280.867C236.085 280.43 235.878 279.828 235.878 279.058V258.896H228.599C227.951 258.896 227.449 258.716 227.089 258.356C226.728 257.995 226.548 257.505 226.548 256.88C226.548 256.232 226.728 255.742 227.089 255.404C227.449 255.067 227.955 254.902 228.599 254.902H247.936C248.584 254.902 249.086 255.071 249.45 255.404C249.811 255.742 249.991 256.232 249.991 256.88C249.991 257.501 249.811 257.995 249.45 258.356C249.09 258.716 248.584 258.896 247.936 258.896H240.657V279.058C240.657 279.828 240.458 280.434 240.059 280.867C239.661 281.304 239.063 281.519 238.269 281.519Z" fill="white"/>
</svg>
