<svg width="34" height="34" viewBox="0 0 34 34" fill="none" xmlns="http://www.w3.org/2000/svg">
<path d="M14.4539 12.5347H13.2788V10.6937C13.2788 8.64191 14.9481 6.97266 16.9999 6.97266C19.0517 6.97266 20.721 8.64191 20.721 10.6937V12.5347H19.5459V10.6937C19.5459 9.2899 18.4038 8.14771 16.9999 8.14771C15.596 8.14771 14.4539 9.28984 14.4539 10.6937V12.5347ZM17.5875 19.3893V17.6267H16.4124V19.3893C16.4124 19.7138 16.1494 19.9769 15.8249 19.9769H14.0622V21.1519H15.8249C16.1493 21.1519 16.4124 21.415 16.4124 21.7395V23.5021H17.5875V21.7395C17.5875 21.415 17.8505 21.1519 18.175 21.1519H19.9377V19.9769H18.175C17.8505 19.9769 17.5875 19.7138 17.5875 19.3893ZM24.442 27.0273H9.55783C9.20614 27.0273 8.93321 26.7204 8.97432 26.3712L10.5411 13.0536C10.5759 12.7577 10.8267 12.5347 11.1246 12.5347H13.2788V15.0024C13.2788 15.3268 13.5419 15.5899 13.8664 15.5899C14.1909 15.5899 14.454 15.3269 14.454 15.0024V12.5347H19.546V15.0024C19.546 15.3268 19.809 15.5899 20.1336 15.5899C20.4581 15.5899 20.7211 15.3269 20.7211 15.0024V12.5347H22.8753C23.1733 12.5347 23.4241 12.7577 23.4589 13.0536L25.0256 26.3712C25.0666 26.7204 24.7937 27.0273 24.442 27.0273ZM21.1127 19.3893C21.1127 19.0648 20.8497 18.8017 20.5252 18.8017H18.7625V17.0392C18.7625 16.7147 18.4995 16.4516 18.175 16.4516H15.8248C15.5003 16.4516 15.2372 16.7147 15.2372 17.0392V18.8018H13.4746C13.1501 18.8018 12.887 19.0648 12.887 19.3894V21.7395C12.887 22.064 13.1501 22.3271 13.4746 22.3271H15.2372V24.0897C15.2372 24.4142 15.5003 24.6773 15.8248 24.6773H18.175C18.4994 24.6773 18.7625 24.4143 18.7625 24.0897V22.3271H20.5252C20.8496 22.3271 21.1127 22.0641 21.1127 21.7395V19.3893Z" fill="url(#paint0_linear_539_17602)"/>
<defs>
<linearGradient id="paint0_linear_539_17602" x1="17" y1="6.97266" x2="17" y2="27.0273" gradientUnits="userSpaceOnUse">
<stop stop-color="#86F8FF"/>
<stop offset="1" stop-color="#1DC4CF"/>
</linearGradient>
</defs>
</svg>
