<svg width="24" height="24" viewBox="0 0 24 24" fill="none" xmlns="http://www.w3.org/2000/svg">
<path d="M17.7952 3.1001C18.9471 3.1001 19.5344 3.2135 20.1456 3.54038C20.7098 3.84215 21.1581 4.29035 21.4598 4.8546C21.7616 5.4188 21.8814 5.96258 21.898 6.94889L21.9001 7.20495V12.0001C21.9001 12.4972 21.4972 12.9001 21.0001 12.9001C20.5413 12.9001 20.1626 12.5568 20.1071 12.113L20.1001 12.0001L20.0991 8.9001H3.8991L3.9001 14.7952C3.9001 15.6754 3.95929 15.9819 4.12765 16.2967C4.26165 16.5473 4.45291 16.7385 4.70348 16.8725C4.99406 17.028 5.27759 17.0903 6.01176 17.099L6.20495 17.1001H18.8271L17.3637 15.6365C17.0415 15.3143 17.0147 14.8086 17.2832 14.4559L17.3637 14.3637C17.6859 14.0415 18.1916 14.0147 18.5443 14.2832L18.6365 14.3637L21.6365 17.3637C21.9587 17.6859 21.9855 18.1916 21.717 18.5443L21.6365 18.6365L18.6365 21.6365C18.285 21.988 17.7152 21.988 17.3637 21.6365C17.0415 21.3143 17.0147 20.8086 17.2832 20.4559L17.3637 20.3637L18.8271 18.9001H6.20495C5.14167 18.9001 4.5595 18.8035 3.99549 18.5315L3.8546 18.4598C3.29035 18.1581 2.84215 17.7098 2.54038 17.1456C2.23865 16.5814 2.11881 16.0376 2.10216 15.0513L2.1001 14.7952V7.20495C2.1001 6.05307 2.2135 5.46582 2.54038 4.8546C2.84215 4.29035 3.29035 3.84215 3.8546 3.54038C4.4188 3.23865 4.96258 3.11881 5.94889 3.10216L6.20495 3.1001H17.7952ZM17.7952 4.9001H6.20495C5.3248 4.9001 5.01828 4.95929 4.70348 5.12765C4.45291 5.26165 4.26165 5.45291 4.12765 5.70348C3.97224 5.99406 3.90985 6.27759 3.90117 7.01176L3.9001 7.1001H20.0981L20.099 7.01176C20.0903 6.27759 20.028 5.99406 19.8725 5.70348C19.7385 5.45291 19.5473 5.26165 19.2967 5.12765C19.0061 4.97224 18.7226 4.90985 17.9884 4.90117L17.7952 4.9001Z" fill="#1DC4CF"/>
</svg>
