<svg width="24" height="24" viewBox="0 0 24 24" fill="none" xmlns="http://www.w3.org/2000/svg">
<path fill-rule="evenodd" clip-rule="evenodd" d="M5.8921 3C4.83063 3 3.95406 3.82923 3.89518 4.88906L3.1174 18.8891C3.05371 20.0355 3.96615 21 5.11432 21H18.8859C20.0341 21 20.9465 20.0355 20.8829 18.8891L20.1051 4.88906C20.0462 3.82923 19.1696 3 18.1082 3H5.8921ZM10.0001 8.73333C10.0001 10.0671 10.974 11 12.0001 11C13.0262 11 14.0001 10.0671 14.0001 8.73333V8C14.0001 7.44772 14.4478 7 15.0001 7C15.5524 7 16.0001 7.44772 16.0001 8V8.73333C16.0001 11.0079 14.2877 13 12.0001 13C9.71253 13 8.00013 11.0079 8.00013 8.73333V8C8.00013 7.44772 8.44784 7 9.00013 7C9.55241 7 10.0001 7.44772 10.0001 8V8.73333Z" fill="#C4C8CC"/>
</svg>
