<svg width="20" height="20" viewBox="0 0 20 20" fill="none" xmlns="http://www.w3.org/2000/svg">
<path fill-rule="evenodd" clip-rule="evenodd" d="M12.1301 6.7513C12.5435 6.77714 12.8577 7.13322 12.8319 7.54662L12.4152 14.2133C12.3894 14.6267 12.0333 14.9409 11.6199 14.915C11.2065 14.8892 10.8923 14.5331 10.9181 14.1197L11.3348 7.45305C11.3606 7.03965 11.7167 6.72546 12.1301 6.7513Z" fill="#1DC4CF"/>
<path fill-rule="evenodd" clip-rule="evenodd" d="M7.86988 6.7513C7.45648 6.77714 7.14229 7.13322 7.16813 7.54662L7.58479 14.2133C7.61063 14.6267 7.96671 14.9409 8.38012 14.915C8.79352 14.8892 9.10771 14.5331 9.08187 14.1197L8.66521 7.45305C8.63937 7.03965 8.28329 6.72546 7.86988 6.7513Z" fill="#1DC4CF"/>
<path fill-rule="evenodd" clip-rule="evenodd" d="M2.5 3.4165C2.08579 3.4165 1.75 3.75229 1.75 4.1665C1.75 4.58072 2.08579 4.9165 2.5 4.9165H3.48369L4.44588 15.1798C4.48366 15.583 4.516 15.928 4.56507 16.211C4.61684 16.5095 4.69585 16.7971 4.85747 17.0688C5.10264 17.4809 5.46487 17.8107 5.89806 18.0164C6.18363 18.1519 6.47733 18.2037 6.77941 18.2274C7.06573 18.2499 7.41224 18.2499 7.81722 18.2498H12.1828C12.5878 18.2499 12.9343 18.2499 13.2206 18.2274C13.5227 18.2037 13.8164 18.1519 14.1019 18.0164C14.5351 17.8107 14.8974 17.4809 15.1425 17.0688C15.3042 16.7971 15.3832 16.5095 15.4349 16.211C15.484 15.928 15.5163 15.583 15.5541 15.1798L16.5163 4.9165H17.5C17.9142 4.9165 18.25 4.58072 18.25 4.1665C18.25 3.75229 17.9142 3.4165 17.5 3.4165H13.163C12.8245 1.98315 11.5368 0.916504 10 0.916504C8.46321 0.916504 7.17555 1.98315 6.83697 3.4165H2.5ZM5.93673 15.0121C5.97784 15.4506 6.00519 15.7366 6.04301 15.9547C6.07925 16.1636 6.11624 16.2508 6.14659 16.3018C6.23959 16.4582 6.37699 16.5833 6.5413 16.6613C6.59494 16.6867 6.6852 16.7154 6.89664 16.732C7.11731 16.7493 7.40455 16.7498 7.84503 16.7498H12.155C12.5955 16.7498 12.8827 16.7493 13.1034 16.732C13.3148 16.7154 13.4051 16.6867 13.4587 16.6613C13.623 16.5833 13.7604 16.4582 13.8534 16.3018C13.8838 16.2508 13.9208 16.1636 13.957 15.9547C13.9948 15.7366 14.0222 15.4506 14.0633 15.0121L15.0097 4.9165H4.99027L5.93673 15.0121ZM10 2.4165C9.3019 2.4165 8.69927 2.82527 8.41841 3.4165H11.5816C11.3007 2.82527 10.6981 2.4165 10 2.4165Z" fill="#1DC4CF"/>
</svg>
