<svg width="16" height="16" viewBox="0 0 16 16" fill="none" xmlns="http://www.w3.org/2000/svg">
<g clip-path="url(#clip0_3839_14926)">
<path fill-rule="evenodd" clip-rule="evenodd" d="M15.528 2.97336C15.6672 3.02892 15.7866 3.12492 15.8707 3.24898C15.9549 3.37304 15.9999 3.51946 16 3.66936V12.3314C15.9999 12.4813 15.9549 12.6277 15.8707 12.7517C15.7866 12.8758 15.6672 12.9718 15.528 13.0274L8.278 15.9274C8.09922 15.9989 7.89978 15.9989 7.721 15.9274L0.471 13.0274C0.331969 12.9716 0.212805 12.8756 0.128861 12.7515C0.0449156 12.6275 3.48599e-05 12.4811 0 12.3314L0 3.66936C3.48599e-05 3.51958 0.0449156 3.37324 0.128861 3.24919C0.212805 3.12515 0.331969 3.02908 0.471 2.97336L7.443 0.184357L7.447 0.183357L7.721 0.0733567C7.90008 0.00158943 8.09992 0.00158943 8.279 0.0733567L8.553 0.183357L8.557 0.184357L15.528 2.97336ZM14.154 3.50036L8 5.96236L1.846 3.50036L1 3.83936V4.23936L7.5 6.83936V14.7614L8 14.9614L8.5 14.7614V6.84036L15 4.24036V3.84036L14.154 3.50036Z" fill="#1DC4CF"/>
</g>
<defs>
<clipPath id="clip0_3839_14926">
<rect width="16" height="16" fill="white"/>
</clipPath>
</defs>
</svg>
