<svg width="12" height="14" viewBox="0 0 12 14" fill="none" xmlns="http://www.w3.org/2000/svg">
<path d="M6 13.125L3.298 11.6843C2.52771 11.2745 1.88355 10.6627 1.43466 9.9145C0.98576 9.16632 0.749076 8.31002 0.750003 7.4375V1.75C0.750234 1.51801 0.842496 1.29558 1.00654 1.13154C1.17058 0.967493 1.39301 0.875232 1.625 0.875H10.375C10.607 0.875232 10.8294 0.967493 10.9935 1.13154C11.1575 1.29558 11.2498 1.51801 11.25 1.75V7.4375C11.2509 8.31002 11.0142 9.16632 10.5653 9.9145C10.1165 10.6627 9.47229 11.2745 8.702 11.6843L6 13.125ZM1.625 1.75V7.4375C1.62428 8.15141 1.81799 8.85205 2.18534 9.4642C2.55269 10.0763 3.07981 10.5769 3.71013 10.9121L6 12.1332L8.28988 10.9126C8.92026 10.5773 9.44743 10.0767 9.81478 9.46445C10.1821 8.85221 10.3758 8.15149 10.375 7.4375V1.75H1.625Z" fill="#1DC4CF"/>
</svg>
