<svg width="19" height="18" viewBox="0 0 19 18" fill="none" xmlns="http://www.w3.org/2000/svg">
<path d="M8.375 9.33188L6.91812 7.875L6.125 8.66812L8.375 10.9181L12.875 6.41812L12.0819 5.625L8.375 9.33188Z" fill="#1DC4CF"/>
<path d="M9.5 16.875L6.026 15.0227C5.03563 14.4958 4.20742 13.7092 3.63027 12.7472C3.05312 11.7853 2.74881 10.6843 2.75 9.5625V2.25C2.7503 1.95172 2.86892 1.66575 3.07984 1.45483C3.29075 1.24392 3.57673 1.1253 3.875 1.125H15.125C15.4233 1.1253 15.7093 1.24392 15.9202 1.45483C16.1311 1.66575 16.2497 1.95172 16.25 2.25V9.5625C16.2512 10.6843 15.9469 11.7853 15.3697 12.7472C14.7926 13.7092 13.9644 14.4958 12.974 15.0227L9.5 16.875ZM3.875 2.25V9.5625C3.87407 10.4804 4.12312 11.3812 4.59543 12.1683C5.06774 12.9553 5.74547 13.5989 6.55588 14.0299L9.5 15.5998L12.4441 14.0304C13.2546 13.5994 13.9324 12.9557 14.4047 12.1686C14.877 11.3814 15.126 10.4805 15.125 9.5625V2.25H3.875Z" fill="#1DC4CF"/>
</svg>
