<svg width="24" height="24" viewBox="0 0 24 24" fill="none" xmlns="http://www.w3.org/2000/svg">
<rect x="0.5" y="0.5" width="23" height="23" rx="11.5" fill="#1DC4CF"/>
<path d="M10.2096 6H13.5723C14.0614 6 14.3481 6.14238 14.629 6.47243C14.6434 6.48937 14.8803 6.78391 15.1382 7.10223C15.3961 7.42055 15.9212 7.77273 16.4034 7.77273H16.7257C18.2728 7.77273 18.9819 8.71818 18.9819 10.2939V15.1788C18.9819 16.5712 17.8274 17.7 16.4034 17.7H7.37856C5.95449 17.7 4.80005 16.5712 4.80005 15.1788V10.2939C4.80005 8.71818 5.50914 7.77273 7.05625 7.77273H7.37856C7.86068 7.77273 8.38586 7.42055 8.64375 7.10223C8.90164 6.78391 9.13849 6.48937 9.15292 6.47243C9.43384 6.14238 9.72051 6 10.2096 6ZM8.3455 12.3818C8.3455 14.3389 9.93387 15.9273 11.891 15.9273C13.8481 15.9273 15.4364 14.3389 15.4364 12.3818C15.4364 10.4247 13.8481 8.83636 11.891 8.83636C9.93387 8.83636 8.3455 10.4247 8.3455 12.3818ZM9.48005 12.3818C9.48005 11.0502 10.5593 9.97091 11.891 9.97091C13.2226 9.97091 14.3019 11.0502 14.3019 12.3818C14.3019 13.7135 13.2226 14.7927 11.891 14.7927C10.5593 14.7927 9.48005 13.7135 9.48005 12.3818Z" fill="white"/>
<rect x="0.5" y="0.5" width="23" height="23" rx="11.5" stroke="#F1F1F1"/>
</svg>
