<svg width="35" height="34" viewBox="0 0 35 34" fill="none" xmlns="http://www.w3.org/2000/svg">
<path d="M14.1411 4.9585H20.8592C21.8364 4.9585 22.4092 5.24295 22.9704 5.90234C22.9992 5.93619 23.4724 6.52463 23.9876 7.1606C24.5029 7.79656 25.5521 8.50016 26.5153 8.50016H27.1593C30.2502 8.50016 31.6668 10.3891 31.6668 13.5372V23.2965C31.6668 26.0783 29.3604 28.3335 26.5153 28.3335H8.48501C5.63991 28.3335 3.3335 26.0783 3.3335 23.2965V13.5372C3.3335 10.3891 4.75016 8.50016 7.84107 8.50016H8.48501C9.44821 8.50016 10.4974 7.79656 11.0127 7.1606C11.5279 6.52463 12.0011 5.93619 12.0299 5.90234C12.5912 5.24295 13.1639 4.9585 14.1411 4.9585ZM10.4168 17.7085C10.4168 21.6185 13.5902 24.7918 17.5002 24.7918C21.4102 24.7918 24.5835 21.6185 24.5835 17.7085C24.5835 13.7985 21.4102 10.6252 17.5002 10.6252C13.5902 10.6252 10.4168 13.7985 10.4168 17.7085ZM12.6835 17.7085C12.6835 15.048 14.8397 12.8918 17.5002 12.8918C20.1606 12.8918 22.3168 15.048 22.3168 17.7085C22.3168 20.369 20.1606 22.5252 17.5002 22.5252C14.8397 22.5252 12.6835 20.369 12.6835 17.7085Z" fill="#1DC4CF"/>
</svg>
