<svg width="20" height="16" viewBox="0 0 20 16" fill="none" xmlns="http://www.w3.org/2000/svg">
<path fill-rule="evenodd" clip-rule="evenodd" d="M15.7952 0.0996094C16.9471 0.0996094 17.5344 0.213012 18.1456 0.539893C18.7098 0.841657 19.1581 1.28986 19.4598 1.85411C19.7616 2.41831 19.8814 2.96209 19.898 3.9484L19.9001 4.20447V11.7948L19.898 12.0508C19.8814 13.0371 19.7616 13.5809 19.4598 14.1451C19.1581 14.7094 18.7098 15.1576 18.1456 15.4593L18.0047 15.531C17.4407 15.803 16.8585 15.8996 15.7952 15.8996H4.20495C3.14167 15.8996 2.5595 15.803 1.99549 15.531L1.8546 15.4593C1.29035 15.1576 0.842145 14.7094 0.540382 14.1451C0.238645 13.5809 0.118808 13.0371 0.102156 12.0508L0.100098 11.7948V4.20447C0.100098 3.05258 0.213501 2.46533 0.540382 1.85411C0.842145 1.28986 1.29035 0.841657 1.8546 0.539893C2.4188 0.238157 2.96258 0.118319 3.94889 0.101668L4.20495 0.0996094H15.7952ZM18.0991 5.89961L18.1001 11.7948C18.1001 12.6749 18.0409 12.9814 17.8725 13.2962C17.7385 13.5468 17.5473 13.7381 17.2967 13.8721C17.0061 14.0275 16.7226 14.0899 15.9884 14.0985L15.7952 14.0996H4.20495L4.01176 14.0985C3.27759 14.0899 2.99406 14.0275 2.70348 13.8721C2.45291 13.7381 2.26165 13.5468 2.12765 13.2962C1.95929 12.9814 1.9001 12.6749 1.9001 11.7948L1.8991 5.89961H18.0991ZM4.20495 1.89961H15.7952L15.9884 1.90068C16.7226 1.90936 17.0061 1.97175 17.2967 2.12716C17.5473 2.26116 17.7385 2.45243 17.8725 2.70299C18.028 2.99357 18.0903 3.27711 18.099 4.01127L18.0981 4.09961H1.9001L1.90117 4.01127C1.90985 3.27711 1.97224 2.99357 2.12765 2.70299C2.26165 2.45243 2.45291 2.26116 2.70348 2.12716C3.01828 1.9588 3.3248 1.89961 4.20495 1.89961Z" fill="#1DC4CF"/>
<path d="M4.00009 10.7996C4.00009 10.5196 4.00009 10.3796 4.05459 10.2726C4.10253 10.1786 4.17902 10.1021 4.2731 10.0541C4.38005 9.99963 4.52007 9.99963 4.80009 9.99963H5.20009C5.48012 9.99963 5.62013 9.99963 5.72709 10.0541C5.82117 10.1021 5.89766 10.1786 5.94559 10.2726C6.00009 10.3796 6.00009 10.5196 6.00009 10.7996V11.1996C6.00009 11.4797 6.00009 11.6197 5.94559 11.7266C5.89766 11.8207 5.82117 11.8972 5.72709 11.9451C5.62013 11.9996 5.48012 11.9996 5.20009 11.9996H4.80009C4.52007 11.9996 4.38005 11.9996 4.2731 11.9451C4.17902 11.8972 4.10253 11.8207 4.05459 11.7266C4.00009 11.6197 4.00009 11.4797 4.00009 11.1996V10.7996Z" fill="#1DC4CF"/>
</svg>
