<svg width="24" height="24" viewBox="0 0 24 24" fill="none" xmlns="http://www.w3.org/2000/svg">
<defs>
<linearGradient id="paint0_linear_60_1726" x1="11.8753" y1="3" x2="11.8753" y2="21.16" gradientUnits="userSpaceOnUse">
<stop stop-color="#86F8FF"/>
<stop offset="1" stop-color="#1DC4CF"/>
</linearGradient>
</defs>
<path d="M16.1482 3H7.60233C6.71875 3 5.99998 3.71876 5.99998 4.60235V5.13645H17.7506V4.60235C17.7506 3.71876 17.0318 3 16.1482 3ZM5.99998 16.887H17.7506V6.2047H5.99998V16.887ZM12.4094 18.4894C12.4094 18.7846 12.1705 19.0235 11.8753 19.0235C11.5801 19.0235 11.3412 18.7846 11.3412 18.4894V17.9553H5.99998V19.5577C5.99998 20.4412 6.71875 21.16 7.60233 21.16H16.1482C17.0318 21.16 17.7506 20.4412 17.7506 19.5577V17.9553H12.4094V18.4894H12.4094Z" fill="url(#paint0_linear_60_1726)"/>

</svg>
