<svg width="24" height="24" viewBox="0 0 24 24" fill="none" xmlns="http://www.w3.org/2000/svg">
<defs>
<linearGradient id="paint0_linear_60_1747" x1="12.0719" y1="2" x2="12.0719" y2="22.16" gradientUnits="userSpaceOnUse">
<stop stop-color="#86F8FF"/>
<stop offset="1" stop-color="#1DC4CF"/>
</linearGradient>
</defs>
<path d="M9.5125 7.59126H8.33127V5.74061C8.33127 3.67802 10.0093 2 12.0719 2C14.1345 2 15.8125 3.67802 15.8125 5.74061V7.59126H14.6313V5.74061C14.6313 4.32941 13.4831 3.18123 12.0719 3.18123C10.6606 3.18123 9.5125 4.32935 9.5125 5.74061V7.59126ZM12.6625 14.4818V12.71H11.4813V14.4818C11.4813 14.808 11.2169 15.0725 10.8907 15.0725H9.11877V16.2537H10.8907C11.2168 16.2537 11.4813 16.5181 11.4813 16.8444V18.6162H12.6625V16.8444C12.6625 16.5182 12.9269 16.2537 13.2532 16.2537H15.0251V15.0725H13.2532C12.9269 15.0725 12.6625 14.8081 12.6625 14.4818ZM19.553 22.16H4.59072C4.23718 22.16 3.96282 21.8515 4.00414 21.5004L5.57916 8.11289C5.61414 7.81543 5.8662 7.59126 6.16573 7.59126H8.33127V10.0719C8.33127 10.398 8.59568 10.6625 8.92191 10.6625C9.24815 10.6625 9.51256 10.3981 9.51256 10.0719V7.59126H14.6313V10.0719C14.6313 10.398 14.8958 10.6625 15.222 10.6625C15.5482 10.6625 15.8126 10.3981 15.8126 10.0719V7.59126H17.9782C18.2777 7.59126 18.5298 7.81543 18.5647 8.11289L20.1398 21.5004C20.1809 21.8515 19.9066 22.16 19.553 22.16ZM16.2063 14.4818C16.2063 14.1557 15.9419 13.8912 15.6156 13.8912H13.8438V12.1194C13.8438 11.7932 13.5793 11.5287 13.2531 11.5287H10.8906C10.5644 11.5287 10.2999 11.7932 10.2999 12.1194V13.8913H8.52806C8.20189 13.8913 7.93741 14.1557 7.93741 14.4819V16.8444C7.93741 17.1706 8.20183 17.4351 8.52806 17.4351H10.2999V19.207C10.2999 19.5331 10.5644 19.7976 10.8906 19.7976H13.2531C13.5793 19.7976 13.8438 19.5332 13.8438 19.207V17.4351H15.6156C15.9418 17.4351 16.2063 17.1707 16.2063 16.8444V14.4818Z" fill="url(#paint0_linear_60_1747)"/>

</svg>
