<svg width="24" height="24" viewBox="0 0 24 24" fill="none" xmlns="http://www.w3.org/2000/svg">
<defs>
<linearGradient id="paint0_linear_60_1806" x1="12.08" y1="4" x2="12.08" y2="20.0554" gradientUnits="userSpaceOnUse">
<stop stop-color="#86F8FF"/>
<stop offset="1" stop-color="#1DC4CF"/>
</linearGradient>
</defs>
<path d="M20.6259 4H3.5341C3.23885 4 3 4.23939 3 4.53518V15.2388C3 15.5345 3.23891 15.7739 3.5341 15.7739H11.5458V17.0486L7.56814 19.0414C7.30422 19.1736 7.19779 19.495 7.32924 19.7595C7.4231 19.9471 7.61192 20.0553 7.80705 20.0553C7.88738 20.0553 7.96874 20.037 8.04595 19.9988L12.08 17.9779L16.114 19.999C16.1913 20.0371 16.2726 20.0554 16.353 20.0554C16.548 20.0554 16.7368 19.9472 16.8308 19.7596C16.9622 19.4952 16.8558 19.1738 16.5919 19.0415L12.6142 17.0487V15.7739H20.6259C20.9212 15.7739 21.16 15.5345 21.16 15.2388V4.53518C21.16 4.23939 20.9211 4 20.6259 4Z" fill="url(#paint0_linear_60_1806)"/>

</svg>
