<svg width="24" height="24" viewBox="0 0 24 24" fill="none" xmlns="http://www.w3.org/2000/svg">
<defs>
<linearGradient id="paint0_linear_60_1772" x1="12.08" y1="6" x2="12.08" y2="18.8082" gradientUnits="userSpaceOnUse">
<stop stop-color="#86F8FF"/>
<stop offset="1" stop-color="#1DC4CF"/>
</linearGradient>
</defs>
<path d="M21.1036 12.6991L18.1941 6.88497C17.9208 6.33927 17.3716 6 16.7608 6H15.2847C14.9894 6 14.7505 6.23866 14.7505 6.53367C14.7505 6.82868 14.9894 7.06735 15.2847 7.06735H16.7608C16.9648 7.06735 17.1478 7.18046 17.2386 7.36236L19.7616 12.4041C19.6102 12.4041 4.58533 12.4041 4.39844 12.4041L6.9214 7.36236C7.01214 7.18046 7.19525 7.06735 7.39922 7.06735H8.87534C9.17059 7.06735 9.4095 6.82868 9.4095 6.53367C9.4095 6.23866 9.17059 6 8.87534 6H7.39922C6.78845 6 6.2392 6.33927 5.96584 6.88497L3.05634 12.6991C2.99086 12.9293 3.02423 12.8308 3 12.9378V14.5388C3 16.8929 4.91684 18.8082 7.27294 18.8082C9.25802 18.8082 10.9164 17.4423 11.3942 15.6061H12.7658C13.2436 17.4423 14.902 18.8082 16.8871 18.8082C19.2431 18.8082 21.16 16.8929 21.16 14.5388V12.9378C21.1475 12.8777 21.133 12.8078 21.1036 12.6991ZM12.6141 14.5388H11.5458V13.4714H12.6141V14.5388Z" fill="url(#paint0_linear_60_1772)"/>

</svg>
