<svg width="20" height="21" viewBox="0 0 20 21" fill="none" xmlns="http://www.w3.org/2000/svg">
<g clip-path="url(#clip0_192_9012)">
<path fill-rule="evenodd" clip-rule="evenodd" d="M10 20.5C15.5228 20.5 20 16.0228 20 10.5C20 4.97715 15.5228 0.5 10 0.5C4.47715 0.5 0 4.97715 0 10.5C0 16.0228 4.47715 20.5 10 20.5ZM15.35 7.77971C15.6426 7.48649 15.6421 7.01162 15.3488 6.71905C15.0556 6.42648 14.5807 6.427 14.2882 6.72021L8.33325 12.6882L5.80992 10.1601C5.5173 9.86696 5.04243 9.86651 4.74926 10.1591C4.45609 10.4517 4.45564 10.9266 4.74826 11.2198L7.8025 14.2798C7.94321 14.4208 8.13421 14.5 8.33339 14.5C8.53257 14.4999 8.72356 14.4207 8.86424 14.2797L15.35 7.77971Z" fill="#1DC4CF"/>
</g>
<defs>
<clipPath id="clip0_192_9012">
<rect width="20" height="20" fill="white" transform="translate(0 0.5)"/>
</clipPath>
</defs>
</svg>
