<svg width="20" height="21" viewBox="0 0 20 21" fill="none" xmlns="http://www.w3.org/2000/svg">
<g clip-path="url(#clip0_270_12361)">
<path fill-rule="evenodd" clip-rule="evenodd" d="M10 20.5C15.5228 20.5 20 16.0228 20 10.5C20 4.97715 15.5228 0.5 10 0.5C4.47715 0.5 0 4.97715 0 10.5C0 16.0228 4.47715 20.5 10 20.5ZM10 19.5C14.9706 19.5 19 15.4706 19 10.5C19 5.52944 14.9706 1.5 10 1.5C5.02944 1.5 1 5.52944 1 10.5C1 15.4706 5.02944 19.5 10 19.5Z" fill="#AAAEB3"/>
<path fill-rule="evenodd" clip-rule="evenodd" d="M10 20.5C15.5228 20.5 20 16.0228 20 10.5C20 4.97715 15.5228 0.5 10 0.5C4.47715 0.5 0 4.97715 0 10.5C0 16.0228 4.47715 20.5 10 20.5ZM10 19.5C14.9706 19.5 19 15.4706 19 10.5C19 5.52944 14.9706 1.5 10 1.5C5.02944 1.5 1 5.52944 1 10.5C1 15.4706 5.02944 19.5 10 19.5Z" fill="#AAAEB3"/>
</g>
<defs>
<clipPath id="clip0_270_12361">
<rect width="20" height="20" fill="white" transform="translate(0 0.5)"/>
</clipPath>
</defs>
</svg>
