<svg width="44" height="44" viewBox="0 0 44 44" fill="none" xmlns="http://www.w3.org/2000/svg">
<defs>
<linearGradient id="paint0_linear_771_18452" x1="22" y1="0" x2="22" y2="44" gradientUnits="userSpaceOnUse">
<stop stop-color="#86F8FF"/>
<stop offset="1" stop-color="#1DC4CF"/>
</linearGradient>
<clipPath id="clip0_771_18452">
<rect width="44" height="44" rx="4" fill="white"/>
</clipPath>
</defs>
<g clip-path="url(#clip0_771_18452)">
<rect width="44" height="44" rx="4" fill="url(#paint0_linear_771_18452)"/>
<path fill-rule="evenodd" clip-rule="evenodd" d="M20.9688 13.75C18.6906 13.75 16.8438 15.5968 16.8438 17.875C16.8438 18.7743 17.1299 19.6027 17.6164 20.2794C18.0597 20.896 17.9192 21.7552 17.3026 22.1984C16.686 22.6417 15.8268 22.5012 15.3836 21.8846C14.572 20.7558 14.0938 19.3692 14.0938 17.875C14.0938 14.078 17.1718 11 20.9688 11C24.7657 11 27.8438 14.078 27.8438 17.875C27.8438 18.4664 27.7688 19.0422 27.6271 19.5927C27.4378 20.3282 26.6882 20.7709 25.9527 20.5816C25.2173 20.3923 24.7746 19.6427 24.9639 18.9073C25.0484 18.5788 25.0938 18.2332 25.0938 17.875C25.0938 15.5968 23.2469 13.75 20.9688 13.75Z" fill="white"/>
<path fill-rule="evenodd" clip-rule="evenodd" d="M20.9688 8.25C15.653 8.25 11.3438 12.5593 11.3438 17.875C11.3438 20.1525 12.1331 22.2419 13.4542 23.89C13.9292 24.4825 13.8339 25.3479 13.2414 25.8228C12.6489 26.2978 11.7835 26.2025 11.3085 25.61C9.6104 23.4917 8.59375 20.8002 8.59375 17.875C8.59375 11.0405 14.1342 5.5 20.9688 5.5C27.8033 5.5 33.3438 11.0405 33.3438 17.875C33.3438 19.3035 33.1011 20.6783 32.6538 21.9585C32.4032 22.6754 31.619 23.0535 30.9021 22.803C30.1853 22.5525 29.8072 21.7683 30.0577 21.0514C30.4046 20.0587 30.5938 18.9904 30.5938 17.875C30.5938 12.5593 26.2845 8.25 20.9688 8.25Z" fill="white"/>
<path d="M21.5973 35.2667L16.1578 28.7394C15.6614 28.1436 15.9198 27.2351 16.6555 26.9898C16.9898 26.8784 17.3571 26.9336 17.6438 27.1384L22 30.25L19.5789 18.1447C19.4088 17.2938 20.0649 16.5 20.9326 16.5C21.5591 16.5 22.1098 16.9235 22.267 17.5299L24.1389 24.75L30.2056 25.7706C31.4452 25.9791 32.3855 27.0015 32.4899 28.2541L32.848 32.5505C32.9398 33.6524 32.3515 34.6993 31.3625 35.1938C30.6564 35.5468 30.1398 36.1908 29.9483 36.9566L29.8229 37.4585C29.6699 38.0706 29.1199 38.5 28.4889 38.5H23.7611C23.1301 38.5 22.5801 38.0706 22.4271 37.4585L22.1526 36.3603C22.0522 35.9586 21.8623 35.5848 21.5973 35.2667Z" fill="white"/>
</g>

</svg>
