<svg width="44" height="44" viewBox="0 0 44 44" fill="none" xmlns="http://www.w3.org/2000/svg">
<defs>
<linearGradient id="paint0_linear_770_20653" x1="22" y1="0" x2="22" y2="44" gradientUnits="userSpaceOnUse">
<stop stop-color="#86F8FF"/>
<stop offset="1" stop-color="#1DC4CF"/>
</linearGradient>
<clipPath id="clip0_770_20653">
<rect width="14" height="14" fill="white" transform="translate(25 4)"/>
</clipPath>
</defs>
<rect width="44" height="44" rx="4" fill="url(#paint0_linear_770_20653)"/>
<path fill-rule="evenodd" clip-rule="evenodd" d="M11.2439 9C9.62224 9 8.28303 10.2669 8.19307 11.8861L7.0048 33.275C6.9075 35.0264 8.3015 36.5 10.0557 36.5H31.0956C32.8498 36.5 34.2438 35.0264 34.1465 33.275L32.9582 11.8861C32.8682 10.2669 31.529 9 29.9073 9H11.2439ZM17.5201 17.7593C17.5201 19.7969 19.008 21.2222 20.5756 21.2222C22.1433 21.2222 23.6312 19.7969 23.6312 17.7593V16.6389C23.6312 15.7951 24.3152 15.1111 25.159 15.1111C26.0027 15.1111 26.6867 15.7951 26.6867 16.6389V17.7593C26.6867 21.2343 24.0706 24.2778 20.5756 24.2778C17.0807 24.2778 14.4645 21.2343 14.4645 17.7593V16.6389C14.4645 15.7951 15.1485 15.1111 15.9923 15.1111C16.8361 15.1111 17.5201 15.7951 17.5201 16.6389V17.7593Z" fill="white"/>
<g clip-path="url(#clip0_770_20653)">
<path d="M38.6 11C38.6 14.6451 35.6451 17.6 32 17.6C28.3549 17.6 25.4 14.6451 25.4 11C25.4 7.35492 28.3549 4.4 32 4.4C35.6451 4.4 38.6 7.35492 38.6 11Z" fill="white" stroke="#73EEF6" stroke-width="0.8"/>
<path d="M32.875 11.875V14.5C32.875 14.9832 32.4832 15.375 32 15.375C31.5168 15.375 31.125 14.9832 31.125 14.5V11.875H28.5C28.0168 11.875 27.625 11.4832 27.625 11C27.625 10.5168 28.0168 10.125 28.5 10.125H31.125V7.5C31.125 7.01675 31.5168 6.625 32 6.625C32.4832 6.625 32.875 7.01675 32.875 7.5V10.125H35.5C35.9832 10.125 36.375 10.5168 36.375 11C36.375 11.4832 35.9832 11.875 35.5 11.875H32.875Z" fill="#73EEF6"/>
</g>

</svg>
