<svg width="20" height="20" viewBox="0 0 20 20" fill="none" xmlns="http://www.w3.org/2000/svg">
<path d="M5 7.01L5.01 6.999M9 7.01L9.01 6.999M5 11.01L5.01 10.999M9 11.01L9.01 10.999M5 15.01L5.01 14.999M9 15.01L9.01 14.999M13 19H1.6C1.44087 19 1.28826 18.9368 1.17574 18.8243C1.06321 18.7117 1 18.5591 1 18.4V3.6C1 3.44087 1.06321 3.28826 1.17574 3.17574C1.28826 3.06321 1.44087 3 1.6 3H7V1.6C7 1.44087 7.06321 1.28826 7.17574 1.17574C7.28826 1.06321 7.44087 1 7.6 1H12.4C12.5591 1 12.7117 1.06321 12.8243 1.17574C12.9368 1.28826 13 1.44087 13 1.6V7M13 19H18.4C18.5591 19 18.7117 18.9368 18.8243 18.8243C18.9368 18.7117 19 18.5591 19 18.4V7.6C19 7.44087 18.9368 7.28826 18.8243 7.17574C18.7117 7.06321 18.5591 7 18.4 7H13M13 19V15M13 7V11M13 11H15M13 11V15M13 15H15" stroke="#1DC4CF" stroke-width="1.3" stroke-linecap="round" stroke-linejoin="round"/>
</svg>
