<svg width="20" height="20" viewBox="0 0 20 20" fill="none" xmlns="http://www.w3.org/2000/svg">
<path d="M1.03914 5.42885H19.1431M3.14314 0.857422H16.8574C17.4636 0.857422 18.045 1.09824 18.4737 1.52689C18.9023 1.95555 19.1431 2.53693 19.1431 3.14314V16.846C19.1431 17.4522 18.9023 18.0336 18.4737 18.4622C18.045 18.8909 17.4636 19.1317 16.8574 19.1317H3.14314C2.53693 19.1317 1.95555 18.8909 1.52689 18.4622C1.09824 18.0336 0.857422 17.4522 0.857422 16.846V3.14314C0.857422 2.53693 1.09824 1.95555 1.52689 1.52689C1.95555 1.09824 2.53693 0.857422 3.14314 0.857422V0.857422Z" stroke="#1DC4CF" stroke-width="1.14286" stroke-linecap="round" stroke-linejoin="round"/>
</svg>
