<svg width="20" height="20" viewBox="0 0 20 20" fill="none" xmlns="http://www.w3.org/2000/svg">
<path d="M1.03914 5.42885H19.1431M3.14314 0.857422H16.8574C17.4636 0.857422 18.045 1.09824 18.4737 1.52689C18.9023 1.95555 19.1431 2.53693 19.1431 3.14314V16.846C19.1431 17.4522 18.9023 18.0336 18.4737 18.4622C18.045 18.8909 17.4636 19.1317 16.8574 19.1317H3.14314C2.53693 19.1317 1.95555 18.8909 1.52689 18.4622C1.09824 18.0336 0.857422 17.4522 0.857422 16.846V3.14314C0.857422 2.53693 1.09824 1.95555 1.52689 1.52689C1.95555 1.09824 2.53693 0.857422 3.14314 0.857422V0.857422Z" stroke="#1DC4CF" stroke-width="1.14286" stroke-linecap="round" stroke-linejoin="round"/>
<path fill-rule="evenodd" clip-rule="evenodd" d="M5.79027 13.0347V11.8016H6.79599C7.55942 11.8016 8.07827 11.3501 8.07827 10.6907C8.07827 10.0884 7.60399 9.63128 6.8177 9.63128C6.00284 9.63128 5.50113 10.0496 5.44513 10.7696H3.88627C3.94456 9.28499 5.08742 8.28613 6.90113 8.28613C8.68742 8.28613 9.68056 9.27356 9.67484 10.4518C9.66913 11.4278 9.05542 12.0701 8.19027 12.2816V12.3878C9.31142 12.549 9.99256 13.2633 9.99256 14.341C9.99256 15.7524 8.66456 16.7524 6.84513 16.7524C5.0257 16.7524 3.78684 15.757 3.71484 14.2336H5.32741C5.3777 14.9147 5.95827 15.3501 6.82342 15.3501C7.67713 15.3501 8.27484 14.8861 8.27484 14.189C8.27484 13.4747 7.71599 13.0347 6.81199 13.0347H5.79027ZM13.4474 16.5456V10.133H13.348L11.372 11.4953V9.92728L13.4531 8.49299H15.1331V16.5456H13.4474Z" fill="#1DC4CF"/>
</svg>
