<svg width="16" height="16" viewBox="0 0 16 16" fill="none" xmlns="http://www.w3.org/2000/svg">
<path d="M8 16C12.4183 16 16 12.4183 16 8C16 3.58172 12.4183 0 8 0C3.58172 0 0 3.58172 0 8C0 12.4183 3.58172 16 8 16Z" fill="#AAAEB3"/>
<path d="M11.1574 4.84224C11.3918 5.07655 11.3918 5.45645 11.1574 5.69077L8.8485 7.99984L11.1574 10.3089C11.3722 10.5237 11.3901 10.8608 11.2111 11.096L11.1574 11.1574C10.9231 11.3918 10.5432 11.3918 10.3089 11.1574L7.99984 8.8485L5.69077 11.1574C5.45645 11.3918 5.07655 11.3918 4.84224 11.1574C4.60793 10.9231 4.60793 10.5432 4.84224 10.3089L7.15117 7.99984L4.84224 5.69077C4.62745 5.47598 4.60955 5.13886 4.78854 4.90368L4.84224 4.84224C5.07655 4.60793 5.45645 4.60793 5.69077 4.84224L7.99984 7.15117L10.3089 4.84224C10.5432 4.60793 10.9231 4.60793 11.1574 4.84224Z" fill="white"/>
</svg>
