<svg width="24" height="24" viewBox="0 0 24 24" fill="none" xmlns="http://www.w3.org/2000/svg">
<path fill-rule="evenodd" clip-rule="evenodd" d="M4 5C4 3.89543 4.89543 3 6 3H18C19.1046 3 20 3.89543 20 5V19C20 20.1046 19.1046 21 18 21H6C4.89543 21 4 20.1046 4 19V5ZM11 8C11 7.44772 11.4477 7 12 7H16C16.5523 7 17 7.44772 17 8C17 8.55228 16.5523 9 16 9H12C11.4477 9 11 8.55228 11 8ZM12 11C11.4477 11 11 11.4477 11 12C11 12.5523 11.4477 13 12 13H16C16.5523 13 17 12.5523 17 12C17 11.4477 16.5523 11 16 11H12ZM11 16C11 15.4477 11.4477 15 12 15H16C16.5523 15 17 15.4477 17 16C17 16.5523 16.5523 17 16 17H12C11.4477 17 11 16.5523 11 16ZM8 7C7.44772 7 7 7.44772 7 8C7 8.55228 7.44772 9 8 9H9C9.55228 9 10 8.55228 10 8C10 7.44772 9.55228 7 9 7H8ZM7 12C7 11.4477 7.44772 11 8 11H9C9.55228 11 10 11.4477 10 12C10 12.5523 9.55228 13 9 13H8C7.44772 13 7 12.5523 7 12ZM8 15C7.44772 15 7 15.4477 7 16C7 16.5523 7.44772 17 8 17H9C9.55228 17 10 16.5523 10 16C10 15.4477 9.55228 15 9 15H8Z" fill="#C4C8CC"/>
</svg>
