<svg width="30" height="30" viewBox="0 0 30 30" fill="none" xmlns="http://www.w3.org/2000/svg">
<path d="M7.5 18.75V24.375H26.25V11.25H22.5V9.375H26.9231C27.3412 9.375 27.4931 9.41812 27.645 9.50062C27.7967 9.58021 27.9209 9.70372 28.0012 9.855C28.0819 10.0069 28.125 10.1587 28.125 10.5769V25.0481C28.125 25.4662 28.0819 25.6181 27.9994 25.77C27.9198 25.9217 27.7963 26.0459 27.645 26.1262C27.4931 26.2069 27.3412 26.25 26.9231 26.25H6.82688C6.40875 26.25 6.25688 26.2069 6.105 26.1244C5.9533 26.0448 5.82914 25.9213 5.74875 25.77C5.67 25.6181 5.625 25.4662 5.625 25.05V18.75H7.5Z" fill="white"/>
<path d="M22.5 5.625H3.75V18.75H22.5V5.625ZM24.375 4.95188V19.4231C24.375 19.8412 24.3319 19.9931 24.2494 20.145C24.1698 20.2967 24.0463 20.4209 23.895 20.5012C23.7431 20.5819 23.5912 20.625 23.1731 20.625H3.07688C2.65875 20.625 2.50688 20.5819 2.355 20.4994C2.2033 20.4198 2.07914 20.2963 1.99875 20.145C1.92 19.9931 1.875 19.8412 1.875 19.425V4.95188C1.875 4.53375 1.91813 4.38188 2.00063 4.23C2.08021 4.0783 2.20372 3.95414 2.355 3.87375C2.50688 3.795 2.65875 3.75 3.075 3.75H23.1712C23.5894 3.75 23.7413 3.79312 23.8931 3.87562C24.0448 3.95521 24.169 4.07872 24.2494 4.23C24.33 4.38188 24.3731 4.53375 24.3731 4.95188H24.375Z" fill="white"/>
<path d="M13.125 16.875C11.8818 16.875 10.6895 16.3811 9.81044 15.5021C8.93136 14.623 8.4375 13.4307 8.4375 12.1875C8.4375 10.9443 8.93136 9.75201 9.81044 8.87294C10.6895 7.99386 11.8818 7.5 13.125 7.5C14.3682 7.5 15.5605 7.99386 16.4396 8.87294C17.3186 9.75201 17.8125 10.9443 17.8125 12.1875C17.8125 13.4307 17.3186 14.623 16.4396 15.5021C15.5605 16.3811 14.3682 16.875 13.125 16.875ZM13.125 15C13.8709 15 14.5863 14.7037 15.1137 14.1762C15.6412 13.6488 15.9375 12.9334 15.9375 12.1875C15.9375 11.4416 15.6412 10.7262 15.1137 10.1988C14.5863 9.67132 13.8709 9.375 13.125 9.375C12.3791 9.375 11.6637 9.67132 11.1363 10.1988C10.6088 10.7262 10.3125 11.4416 10.3125 12.1875C10.3125 12.9334 10.6088 13.6488 11.1363 14.1762C11.6637 14.7037 12.3791 15 13.125 15Z" fill="white"/>
</svg>
