<svg width="24" height="24" viewBox="0 0 24 24" fill="none" xmlns="http://www.w3.org/2000/svg">
<path fill-rule="evenodd" clip-rule="evenodd" d="M6.24246 8.9001C6.62114 10.0611 7.71264 10.9001 9.0001 10.9001C10.2876 10.9001 11.3791 10.0611 11.7577 8.9001C14.5052 8.9001 17.2526 8.9001 20.0001 8.9001C20.4972 8.9001 20.9001 8.49715 20.9001 8.0001C20.9001 7.50304 20.4972 7.1001 20.0001 7.1001C17.2526 7.1001 14.5052 7.1001 11.7577 7.1001C11.748 7.06973 11.761 7.11019 11.7577 7.1001C11.3791 5.93906 10.2876 5.1001 9.0001 5.1001C7.71264 5.1001 6.62114 5.93906 6.24246 7.1001C5.49501 7.1001 4.74755 7.1001 4.0001 7.1001C3.50304 7.1001 3.1001 7.50304 3.1001 8.0001C3.1001 8.49715 3.50304 8.9001 4.0001 8.9001C4.74755 8.9001 5.49501 8.9001 6.24246 8.9001ZM9.0001 6.9001C8.39258 6.9001 7.9001 7.39258 7.9001 8.0001C7.9001 8.60761 8.39258 9.1001 9.0001 9.1001C9.60761 9.1001 10.1001 8.60761 10.1001 8.0001C10.1001 7.39258 9.60761 6.9001 9.0001 6.9001Z" fill="#1DC4CF"/>
<path fill-rule="evenodd" clip-rule="evenodd" d="M3.1001 16.0001C3.1001 15.503 3.50304 15.1001 4.0001 15.1001C6.74755 15.1001 9.49501 15.1001 12.2425 15.1001C12.6211 13.9391 13.7126 13.1001 15.0001 13.1001C16.2876 13.1001 17.3791 13.9391 17.7577 15.1001C17.7577 15.1001 19.4787 15.1001 20.0001 15.1001C20.4972 15.1001 20.9001 15.503 20.9001 16.0001C20.9001 16.4972 20.4972 16.9001 20.0001 16.9001C19.7779 16.9001 17.7577 16.9001 17.7577 16.9001C17.3791 18.0611 16.2876 18.9001 15.0001 18.9001C13.7126 18.9001 12.6211 18.0611 12.2425 16.9001C9.49501 16.9001 6.74755 16.9001 4.0001 16.9001C3.50304 16.9001 3.1001 16.4972 3.1001 16.0001ZM13.9001 16.0001C13.9001 15.3926 14.3926 14.9001 15.0001 14.9001C15.6076 14.9001 16.1001 15.3926 16.1001 16.0001C16.1001 16.6076 15.6076 17.1001 15.0001 17.1001C14.3926 17.1001 13.9001 16.6076 13.9001 16.0001Z" fill="#1DC4CF"/>
</svg>
