<svg width="24" height="24" viewBox="0 0 24 24" fill="none" xmlns="http://www.w3.org/2000/svg">
<path d="M16.2923 2.85327C15.4604 2.53329 14.5394 2.53329 13.7075 2.85327L9.5543 4.45047C9.21462 4.58098 8.92247 4.81139 8.71638 5.11131C8.51029 5.41123 8.39995 5.76657 8.3999 6.13047V7.45047C9.18571 7.35136 9.98383 7.44823 10.7231 7.73247L14.8751 9.33087C15.4413 9.54824 15.9284 9.93215 16.272 10.4319C16.6156 10.9317 16.7997 11.5239 16.7999 12.1305V17.8665C16.7999 18.1075 16.7709 18.3476 16.7135 18.5817L20.4467 17.1465C20.7864 17.0159 21.0785 16.7855 21.2846 16.4856C21.4907 16.1857 21.6011 15.8304 21.6011 15.4665V6.13047C21.6011 5.76657 21.4907 5.41123 21.2846 5.11131C21.0785 4.81139 20.7864 4.58098 20.4467 4.45047L16.2935 2.85327H16.2923ZM18.5339 5.43807C18.6075 5.40978 18.6859 5.39626 18.7648 5.39829C18.8436 5.40032 18.9212 5.41786 18.9933 5.44989C19.0653 5.48193 19.1303 5.52784 19.1846 5.58501C19.2389 5.64217 19.2814 5.70947 19.3097 5.78307C19.338 5.85666 19.3515 5.9351 19.3495 6.01392C19.3474 6.09273 19.3299 6.17038 19.2979 6.24242C19.2658 6.31446 19.2199 6.37948 19.1628 6.43378C19.1056 6.48807 19.0383 6.53058 18.9647 6.55887L15.6455 7.83447C15.2296 7.99446 14.769 7.99446 14.3531 7.83447L11.0339 6.55887C10.8853 6.50158 10.7655 6.3876 10.7009 6.24199C10.6363 6.09639 10.6322 5.93109 10.6895 5.78247C10.7468 5.63384 10.8608 5.51406 11.0064 5.44947C11.152 5.38488 11.3173 5.38078 11.4659 5.43807L14.7839 6.71487C14.9229 6.7685 15.0769 6.7685 15.2159 6.71487L18.5339 5.43807ZM7.7075 8.85327C8.53939 8.53329 9.46041 8.53329 10.2923 8.85327L14.4455 10.4505C15.1415 10.7181 15.5987 11.3865 15.5987 12.1305V17.8665C15.5987 18.2302 15.4886 18.5855 15.2827 18.8854C15.0769 19.1853 14.785 19.4158 14.4455 19.5465L10.2923 21.1437C9.46041 21.4636 8.53939 21.4636 7.7075 21.1437L3.5543 19.5477C3.21462 19.4171 2.92247 19.1867 2.71638 18.8868C2.51029 18.5869 2.39995 18.2316 2.3999 17.8677V12.1317C2.39995 11.7678 2.51029 11.4124 2.71638 11.1125C2.92247 10.8126 3.21462 10.5822 3.5543 10.4517L7.7063 8.85447L7.7075 8.85327ZM13.3091 12.3513C13.2519 12.2028 13.1382 12.0832 12.9928 12.0186C12.8474 11.954 12.6824 11.9498 12.5339 12.0069L8.9999 13.3665L5.4647 12.0069C5.39073 11.9762 5.31137 11.9607 5.23131 11.9613C5.15126 11.9618 5.07211 11.9783 4.99854 12.0099C4.92498 12.0415 4.85847 12.0875 4.80296 12.1452C4.74744 12.2029 4.70402 12.2711 4.67527 12.3458C4.64652 12.4205 4.63301 12.5002 4.63555 12.5802C4.63808 12.6603 4.65661 12.739 4.69003 12.8117C4.72345 12.8845 4.77109 12.9498 4.83015 13.0039C4.88921 13.0579 4.95848 13.0996 5.0339 13.1265L8.3999 14.4213V17.4093C8.3999 17.5684 8.46312 17.721 8.57564 17.8335C8.68816 17.9461 8.84077 18.0093 8.9999 18.0093C9.15903 18.0093 9.31164 17.9461 9.42417 17.8335C9.53669 17.721 9.5999 17.5684 9.5999 17.4093V14.4213L12.9647 13.1265C13.1131 13.0693 13.2328 12.9555 13.2974 12.8102C13.362 12.6648 13.3662 12.4997 13.3091 12.3513Z" fill="#1DC4CF"/>
</svg>
