<svg width="24" height="24" viewBox="0 0 24 24" fill="none" xmlns="http://www.w3.org/2000/svg">
<path d="M19.5554 4H15.9999C15.7545 4 15.5554 4.19905 15.5554 4.4445C15.5554 4.68994 15.7545 4.88883 15.9999 4.88883H18.4825L14.7968 8.57468C14.6813 8.68617 14.635 8.85153 14.6756 9.00681C14.7163 9.16224 14.8377 9.28366 14.9931 9.32435C15.1484 9.36488 15.3137 9.31865 15.4252 9.20309L19.1111 5.51741V7.99998C19.1111 8.24542 19.31 8.44447 19.5554 8.44447C19.8009 8.44447 19.9999 8.24542 19.9999 7.99998V4.4445C19.9999 4.19905 19.8009 4 19.5554 4Z" fill="#AAAEB3"/>
<path d="M8.57468 14.7971L4.88883 18.4828V16.0003C4.88883 15.7548 4.68994 15.5558 4.4445 15.5558C4.19905 15.5558 4 15.7548 4 16.0003V19.5557C4 19.8012 4.19905 20.0002 4.4445 20.0002H7.99998C8.24542 20.0002 8.44447 19.8012 8.44447 19.5557C8.44447 19.3103 8.24542 19.1114 7.99998 19.1114H5.51741L9.20309 15.4255C9.37155 15.2512 9.36911 14.9741 9.19772 14.8025C9.02617 14.6311 8.74899 14.6287 8.57468 14.7971Z" fill="#AAAEB3"/>
<path d="M19.5555 15.5558C19.31 15.5558 19.1112 15.7548 19.1112 16.0003V18.4828L15.4253 14.7971C15.251 14.6287 14.9738 14.6311 14.8023 14.8025C14.6309 14.9741 14.6284 15.2512 14.7969 15.4255L18.4826 19.1114H16C15.7546 19.1114 15.5555 19.3103 15.5555 19.5557C15.5555 19.8012 15.7546 20.0002 16 20.0002H19.5555C19.8009 20.0002 20 19.8012 20 19.5557V16.0003C20 15.7548 19.8009 15.5558 19.5555 15.5558Z" fill="#AAAEB3"/>
<path d="M5.51741 4.88883H7.99998C8.24542 4.88883 8.44447 4.68994 8.44447 4.4445C8.44447 4.19905 8.24542 4 7.99998 4H4.4445C4.19905 4 4 4.19905 4 4.4445V7.99998C4 8.24542 4.19905 8.44447 4.4445 8.44447C4.68994 8.44447 4.88883 8.24542 4.88883 7.99998V5.51741L8.57468 9.20309C8.74899 9.37155 9.02617 9.36911 9.19772 9.19772C9.36911 9.02617 9.37155 8.74899 9.20309 8.57468L5.51741 4.88883Z" fill="#AAAEB3"/>
</svg>
