<svg width="34" height="34" viewBox="0 0 34 34" fill="none" xmlns="http://www.w3.org/2000/svg">
<path d="M26.9341 23.6124C26.7573 23.3379 26.3921 23.2567 26.119 23.4346C25.6569 23.7312 25.035 24.0045 24.3105 24.2398L22.7418 19.9468H18.9731L20.8153 24.9911C19.6395 25.1512 18.3769 25.251 17.0001 25.251C15.6232 25.251 14.3606 25.1511 13.1848 24.9911L15.0271 19.9468H11.2584L9.6896 24.2398C8.96511 24.0045 8.34322 23.7312 7.8811 23.4346C7.6069 23.2567 7.24174 23.3379 7.06603 23.6124C6.89031 23.8858 6.9698 24.2507 7.24399 24.4268C9.67958 25.9889 14.11 26.4297 17.0001 26.4297C19.8786 26.4297 24.3453 25.9732 26.7561 24.4268C27.0303 24.2507 27.1098 23.8858 26.9341 23.6124ZM9.33221 18.7681H24.6681C25.3184 18.7681 25.8478 18.2391 25.8478 17.5894C25.8478 16.9396 25.3184 16.4106 24.6681 16.4106H9.33221C8.68189 16.4106 8.1525 16.9396 8.1525 17.5894C8.1525 18.2391 8.68189 18.7681 9.33221 18.7681ZM22.6514 12.2852H25.2579C25.584 12.2852 25.8478 12.0216 25.8478 11.6958V10.5171C25.8478 10.2938 25.7216 10.09 25.5217 9.98989L23.4884 8.97407V8.15967C23.4884 7.83388 23.2245 7.57031 22.8985 7.57031C19.9712 7.57031 17.59 9.94958 17.59 12.8745V15.2319H23.4175C23.305 14.2257 23.0529 13.2403 22.6514 12.2852ZM12.6673 13.5064L11.6293 11.4322C11.5291 11.2325 11.3252 11.1064 11.1017 11.1064H9.92196C9.5959 11.1064 9.33214 11.3699 9.33214 11.6957V15.2319H14.0509C14.0509 14.3894 13.4582 13.6825 12.6673 13.5064Z" fill="url(#paint0_linear_539_17636)"/>
<defs>
<linearGradient id="paint0_linear_539_17636" x1="17.0001" y1="7.57031" x2="17.0001" y2="26.4297" gradientUnits="userSpaceOnUse">
<stop stop-color="#86F8FF"/>
<stop offset="1" stop-color="#1DC4CF"/>
</linearGradient>
</defs>
</svg>
