<svg xmlns="http://www.w3.org/2000/svg" width="24" height="24" viewBox="0 0 24 24">
    <g fill="none" fill-rule="evenodd">
        <g>
            <g>
                <g>
                    <path d="M0 0H24V24H0z" transform="translate(-324.000000, -547.000000) translate(313.000000, 536.000000) translate(11.000000, 11.000000)"/>
                    <g fill="#4C3430" fill-rule="nonzero">
                        <path d="M.515 7.764l-.095.051c-.658.406-.522 1.44.262 1.635l6.297 1.574 1.575 6.298c.205.82 1.324.93 1.686.167l7.674-16.2C18.276.524 17.48-.272 16.715.09L.515 7.764zm14.694-4.969l-5.52 11.65-1.094-4.38-.034-.105c-.104-.272-.335-.479-.621-.55L3.559 8.313l11.65-5.519z" transform="translate(-324.000000, -547.000000) translate(313.000000, 536.000000) translate(11.000000, 11.000000) translate(2.999803, 2.996209)"/>
                    </g>
                </g>
            </g>
        </g>
    </g>
</svg>
