<svg xmlns="http://www.w3.org/2000/svg" width="24" height="24" viewBox="0 0 24 24">
    <g fill="none" fill-rule="evenodd">
        <g>
            <g>
                <g>
                    <path d="M0 0H24V24H0z" transform="translate(-254.000000, -80.000000) translate(16.000000, 72.000000) translate(238.000000, 8.000000)"/>
                    <g fill="#A69895" fill-rule="nonzero">
                        <path d="M1.613.21l.094.083L5 3.585 8.293.293c.39-.39 1.024-.39 1.414 0 .36.36.388.928.083 1.32l-.083.094L6.415 5l3.292 3.293c.39.39.39 1.024 0 1.414-.36.36-.928.388-1.32.083l-.094-.083L5 6.415 1.707 9.707c-.39.39-1.024.39-1.414 0-.36-.36-.388-.928-.083-1.32l.083-.094L3.585 5 .293 1.707c-.39-.39-.39-1.024 0-1.414.36-.36.928-.388 1.32-.083z" transform="translate(-254.000000, -80.000000) translate(16.000000, 72.000000) translate(238.000000, 8.000000) translate(7.000000, 7.000000)"/>
                    </g>
                </g>
            </g>
        </g>
    </g>
</svg>
