<svg width="22" height="22" viewBox="0 0 22 22" fill="none" xmlns="http://www.w3.org/2000/svg">
<path opacity="0.3" fill-rule="evenodd" clip-rule="evenodd" d="M10.4184 9.9204L4.58299 15.583L4.58299 18.333L7.33299 18.333V16.4997L9.11295 16.4997L9.11295 14.6664L10.9997 14.6664L13.002 12.504L10.4184 9.9204Z" fill="#1DC4CF"/>
<path fill-rule="evenodd" clip-rule="evenodd" d="M18.5424 12.1253C16.3945 14.2732 12.9121 14.2732 10.7642 12.1253C8.61635 9.97739 8.61635 6.49498 10.7642 4.3471C12.9121 2.19921 16.3945 2.19921 18.5424 4.3471C20.6903 6.49498 20.6903 9.97739 18.5424 12.1253ZM16.667 8.41649C16.13 8.95346 15.2594 8.95346 14.7224 8.41649C14.1854 7.87952 14.1854 7.00892 14.7224 6.47195C15.2594 5.93498 16.13 5.93498 16.667 6.47195C17.2039 7.00892 17.2039 7.87952 16.667 8.41649Z" fill="#1DC4CF"/>
</svg>
