<svg width="24" height="24" viewBox="0 0 24 24" fill="none" xmlns="http://www.w3.org/2000/svg">
<path fill-rule="evenodd" clip-rule="evenodd" d="M18.493 12.8631C17.7355 12.9026 17.0347 13.139 16.4034 13.5634L16.2858 13.6458L16.1682 13.5634C15.4738 13.0965 14.6953 12.8572 13.8497 12.8572C11.8814 12.8572 10.2858 14.4527 10.2858 16.421C10.2858 18.3433 11.0501 19.4101 14.0978 21.7805L15.509 22.878C15.9659 23.2333 16.6057 23.2333 17.0626 22.878L18.4738 21.7805C21.5216 19.4101 22.2858 18.3433 22.2858 16.421C22.2858 14.4527 20.6902 12.8572 18.7219 12.8572L18.493 12.8631ZM18.7219 14.5715C19.7434 14.5715 20.5715 15.3995 20.5715 16.421L20.5702 16.5261C20.542 17.5986 20.0574 18.3468 17.867 20.0781L16.2858 21.3103L15.1502 20.4272C12.5007 18.3666 12.0001 17.6297 12.0001 16.421C12.0001 15.3995 12.8282 14.5715 13.8497 14.5715C14.5382 14.5715 15.134 14.8294 15.6799 15.3749L15.9829 15.6777C16.1502 15.8449 16.4214 15.8449 16.5888 15.6777L16.8917 15.3749C17.4376 14.8294 18.0335 14.5715 18.7219 14.5715Z" fill="#1DC4CF"/>
<path fill-rule="evenodd" clip-rule="evenodd" d="M7.71439 10.2858C7.241 10.2858 6.85725 10.6695 6.85725 11.1429C6.85725 11.6163 7.241 12.0001 7.71439 12.0001C8.18778 12.0001 8.57153 11.6163 8.57153 11.1429C8.57153 10.6695 8.18778 10.2858 7.71439 10.2858Z" fill="#1DC4CF"/>
<path fill-rule="evenodd" clip-rule="evenodd" d="M12.0001 1.71436C14.8404 1.71436 17.143 4.01689 17.143 6.85721H18.1323C19.2785 6.85721 19.6941 6.97656 20.1132 7.20067C20.5322 7.42478 20.8611 7.75365 21.0852 8.1727L21.1643 8.33111C21.3373 8.70707 21.4287 9.15068 21.4287 10.1536V10.7144C21.4287 11.1877 21.0449 11.5715 20.5715 11.5715C20.0981 11.5715 19.7144 11.1877 19.7144 10.7143V10.1536C19.7144 9.36738 19.6773 9.17508 19.5735 8.98115C19.5092 8.86085 19.425 8.77669 19.3047 8.71235C19.1385 8.62345 18.9735 8.58347 18.4346 8.57386L18.1323 8.5715H5.86796L5.56562 8.57386C5.02673 8.58347 4.8617 8.62345 4.69547 8.71235C4.57517 8.77669 4.49101 8.86085 4.42667 8.98115C4.32295 9.17508 4.28582 9.36738 4.28582 10.1536V16.2423C4.28582 17.8995 4.39692 18.4748 4.71288 19.0656C4.96398 19.5351 5.3222 19.8933 5.79171 20.1444C6.3825 20.4604 6.95785 20.5715 8.61498 20.5715H9.85725C10.3306 20.5715 10.7144 20.9553 10.7144 21.4286C10.7144 21.902 10.3306 22.2858 9.85725 22.2858H8.61498L8.11674 22.2812C6.38649 22.248 5.68749 22.0327 4.98325 21.6561C4.215 21.2452 3.61207 20.6423 3.2012 19.8741C2.80746 19.1378 2.5901 18.4073 2.57267 16.4981L2.57153 10.1536C2.57153 9.0074 2.69088 8.59174 2.91499 8.1727C3.1391 7.75365 3.46797 7.42478 3.88702 7.20067L4.04543 7.12157C4.39454 6.96094 4.80197 6.87068 5.66142 6.85861L6.85725 6.85721C6.85725 4.01689 9.15978 1.71436 12.0001 1.71436ZM8.57153 6.85721C8.57153 4.96366 10.1066 3.42864 12.0001 3.42864C13.8937 3.42864 15.4287 4.96366 15.4287 6.85721H8.57153Z" fill="#1DC4CF"/>
</svg>
