<svg width="24" height="25" viewBox="0 0 24 25" fill="none" xmlns="http://www.w3.org/2000/svg">
<path d="M12 9.92815C12.9468 9.92815 13.7143 9.16064 13.7143 8.21387C13.7143 7.26709 12.9468 6.49958 12 6.49958C11.0532 6.49958 10.2857 7.26709 10.2857 8.21387C10.2857 9.16064 11.0532 9.92815 12 9.92815Z" fill="#1DC4CF"/>
<path fill-rule="evenodd" clip-rule="evenodd" d="M6.00002 8.21387C6.00002 4.90016 8.68631 2.21387 12 2.21387C15.3137 2.21387 18 4.90016 18 8.21387C18 12.076 15.3958 15.2782 13.8473 16.8556C12.8199 17.9022 11.1802 17.9022 10.1528 16.8556C8.60419 15.2782 6.00002 12.076 6.00002 8.21387ZM12 3.92815C9.63308 3.92815 7.7143 5.84693 7.7143 8.21387C7.7143 11.3571 9.88136 14.1321 11.3761 15.6547C11.7315 16.0168 12.2685 16.0168 12.624 15.6547C14.1187 14.1321 16.2857 11.3571 16.2857 8.21387C16.2857 5.84693 14.367 3.92815 12 3.92815Z" fill="#1DC4CF"/>
<path d="M6.22471 14.7045C6.53281 15.0639 6.49122 15.6051 6.13182 15.9132C5.46156 16.4877 5.14287 17.1219 5.14287 17.6424C5.14287 18.3733 5.6862 19.2151 6.96146 19.9236C8.20768 20.6159 9.9874 21.071 12 21.071C14.0126 21.071 15.7924 20.6159 17.0386 19.9236C18.3138 19.2151 18.8572 18.3733 18.8572 17.6424C18.8572 17.1075 18.5636 16.5157 17.8771 15.9386C17.5147 15.634 17.4679 15.0933 17.7725 14.7309C18.0771 14.3686 18.6178 14.3217 18.9801 14.6263C19.9039 15.4029 20.5714 16.4333 20.5714 17.6424C20.5714 19.2785 19.3879 20.5795 17.8711 21.4222C16.3253 22.2809 14.2479 22.7853 12 22.7853C9.75215 22.7853 7.67473 22.2809 6.12893 21.4222C4.61217 20.5795 3.42859 19.2785 3.42859 17.6424C3.42859 16.4466 4.12264 15.3776 5.01609 14.6116C5.3755 14.3035 5.91661 14.3451 6.22471 14.7045Z" fill="#1DC4CF"/>
</svg>
