<svg width="18" height="18" viewBox="0 0 18 18" fill="none" xmlns="http://www.w3.org/2000/svg">
<path d="M15.7537 17.3658C14.9915 17.7734 14.2419 17.9001 12.6722 17.9001H10.0189C10.0126 17.9002 10.0063 17.9003 9.99998 17.9003C9.50292 17.9003 9.09998 17.4973 9.09998 17.0003C9.09998 16.5032 9.50292 16.1003 9.99998 16.1003C9.99998 16.1003 9.99997 16.1003 9.99998 16.1003L12.6722 16.1001C14.1589 16.1001 14.5428 15.9722 14.9048 15.7786C15.2407 15.599 15.4989 15.3408 15.6785 15.0049C15.8721 14.6429 16 14.259 16 12.7723L16 5.22787C16 3.7412 15.8721 3.35727 15.6785 2.99528C15.4989 2.65944 15.2407 2.40124 14.9048 2.22163C14.5428 2.02804 14.1589 1.9001 12.6722 1.9001L10.0189 1.9001C10.0126 1.90023 10.0063 1.90029 9.99998 1.90029C9.50292 1.90029 9.09998 1.49735 9.09998 1.00029C9.09998 0.503236 9.50292 0.100292 9.99998 0.100292C9.99998 0.100292 9.99997 0.100292 9.99998 0.100292L12.6722 0.100098C14.2419 0.100098 14.9915 0.226759 15.7537 0.634361C16.4032 0.981735 16.9184 1.49687 17.2657 2.14641C17.6733 2.90856 17.8 3.65822 17.8 5.22787V12.7723C17.8 14.342 17.6733 15.0916 17.2657 15.8538C16.9184 16.5033 16.4032 17.0185 15.7537 17.3658Z" fill="#1DC4CF"/>
<path d="M6.3636 12.3638L8.82711 9.9003H0.9C0.402944 9.9003 0 9.49736 0 9.0003C0 8.50325 0.402944 8.1003 0.9 8.1003H8.82731L6.3636 5.6366C6.01213 5.28513 6.01213 4.71528 6.3636 4.36381C6.71508 4.01234 7.28492 4.01234 7.6364 4.36381L11.6364 8.36381C11.9879 8.71528 11.9879 9.28513 11.6364 9.6366L7.6364 13.6366C7.28492 13.9881 6.71508 13.9881 6.3636 13.6366C6.01213 13.2851 6.01213 12.7153 6.3636 12.3638Z" fill="#1DC4CF"/>
</svg>
