<svg width="18" height="20" viewBox="0 0 18 20" fill="none" xmlns="http://www.w3.org/2000/svg">
<path d="M9.99988 19C9.99988 19.553 9.55188 20 8.99988 20H4.99988C2.24288 20 -0.00012207 17.757 -0.00012207 15V5C-0.00012207 2.243 2.24288 0 4.99988 0H8.99988C9.55188 0 9.99988 0.447 9.99988 1C9.99988 1.553 9.55188 2 8.99988 2H4.99988C3.34588 2 1.99988 3.346 1.99988 5V15C1.99988 16.654 3.34588 18 4.99988 18H8.99988C9.55288 18 9.99988 18.447 9.99988 19ZM17.7069 9.29297L13.7069 5.29297C13.3159 4.90197 12.6839 4.90197 12.2929 5.29297C11.9019 5.68397 11.9019 6.31603 12.2929 6.70703L14.5859 9H6.99988C6.44788 9 5.99988 9.447 5.99988 10C5.99988 10.553 6.44788 11 6.99988 11H14.5859L12.2929 13.293C11.9019 13.684 11.9019 14.316 12.2929 14.707C12.4879 14.902 12.7439 15 12.9999 15C13.2559 15 13.5119 14.902 13.7069 14.707L17.7069 10.707C18.0979 10.316 18.0979 9.68297 17.7069 9.29297Z" fill="#EB4250"/>
</svg>
