<svg width="40" height="40" viewBox="0 0 40 40" fill="none" xmlns="http://www.w3.org/2000/svg">
<defs>
<filter id="filter0_d_249_11329" x="-8" y="-3.55664" width="56" height="41.5566" filterUnits="userSpaceOnUse" color-interpolation-filters="sRGB">
<feFlood flood-opacity="0" result="BackgroundImageFix"/>
<feColorMatrix in="SourceAlpha" type="matrix" values="0 0 0 0 0 0 0 0 0 0 0 0 0 0 0 0 0 0 127 0" result="hardAlpha"/>
<feOffset dy="-4"/>
<feGaussianBlur stdDeviation="4"/>
<feColorMatrix type="matrix" values="0 0 0 0 0 0 0 0 0 0 0 0 0 0 0 0 0 0 0.25 0"/>
<feBlend mode="normal" in2="BackgroundImageFix" result="effect1_dropShadow_249_11329"/>
<feBlend mode="normal" in="SourceGraphic" in2="effect1_dropShadow_249_11329" result="shape"/>
</filter>
<filter id="filter1_d_249_11329" x="-0.891602" y="5.09277" width="47.7441" height="25.7383" filterUnits="userSpaceOnUse" color-interpolation-filters="sRGB">
<feFlood flood-opacity="0" result="BackgroundImageFix"/>
<feColorMatrix in="SourceAlpha" type="matrix" values="0 0 0 0 0 0 0 0 0 0 0 0 0 0 0 0 0 0 127 0" result="hardAlpha"/>
<feOffset dx="3" dy="4"/>
<feGaussianBlur stdDeviation="2"/>
<feColorMatrix type="matrix" values="0 0 0 0 0 0 0 0 0 0 0 0 0 0 0 0 0 0 0.16 0"/>
<feBlend mode="normal" in2="BackgroundImageFix" result="effect1_dropShadow_249_11329"/>
<feBlend mode="normal" in="SourceGraphic" in2="effect1_dropShadow_249_11329" result="shape"/>
</filter>
<linearGradient id="paint0_linear_249_11329" x1="0.916665" y1="14.7768" x2="22.9265" y2="44.2852" gradientUnits="userSpaceOnUse">
<stop stop-color="#FCFCFC"/>
<stop offset="0.479052" stop-color="#DCDBDC"/>
<stop offset="0.479484" stop-color="#F5F1F5"/>
<stop offset="1" stop-color="#DBDBDB"/>
</linearGradient>
<linearGradient id="paint1_linear_249_11329" x1="15.5" y1="39" x2="133.442" y2="179" gradientUnits="userSpaceOnUse">
<stop stop-color="#D7D7D7"/>
<stop offset="1" stop-color="#C2C2C2" stop-opacity="0"/>
</linearGradient>
<clipPath id="clip0_249_11329">
<rect y="5" width="40" height="29" rx="4" fill="white"/>
</clipPath>
</defs>
<g clip-path="url(#clip0_249_11329)">
<rect y="5" width="40" height="29" rx="4" fill="#ECECEC"/>
<rect y="5" width="40" height="29" fill="#969497"/>
<path d="M4.74902 24.2384C4.74902 15.8155 11.5772 8.9873 20.0002 8.9873C28.4231 8.9873 35.2513 15.8155 35.2513 24.2384V33.9998H4.74902V24.2384Z" fill="#E1E1E1"/>
<g filter="url(#filter0_d_249_11329)">
<path d="M0 8.44336L20 22.2184L40 8.44336V33.9996H0V8.44336Z" fill="url(#paint0_linear_249_11329)"/>
</g>
<path d="M4.66699 11.6576L4.66699 33.9994L0.000324077 33.9994L0.000324249 8.4375L4.66699 11.6576Z" fill="#DDDDDD"/>
<path d="M40 8.41602L40 33.9994L35.3333 33.9994L35.3333 11.666L40 8.41602Z" fill="#D4D4D4"/>
<mask id="mask0_249_11329" style="mask-type:alpha" maskUnits="userSpaceOnUse" x="0" y="8" width="40" height="26">
<path fill-rule="evenodd" clip-rule="evenodd" d="M4.74876 33.9996V11.7059L0.0214844 8.44336V33.9996H4.74876ZM39.9997 33.9996V8.44336L35.2725 11.6882V33.9996H39.9997Z" fill="#0C8394"/>
</mask>
<g mask="url(#mask0_249_11329)">
<ellipse cx="19.917" cy="10.9997" rx="30.25" ry="30.1667" fill="#CE3F31"/>
</g>
<path d="M120 179L9 32L120 108L240.5 25.5L210 179H120Z" fill="url(#paint1_linear_249_11329)" fill-opacity="0.66" style="mix-blend-mode:multiply"/>
<g filter="url(#filter1_d_249_11329)">
<path fill-rule="evenodd" clip-rule="evenodd" d="M3.10324 5.40413C2.30305 4.85337 1.20334 5.05261 0.647252 5.84911C-0.301484 7.20799 0.035344 9.07083 1.39985 10.0114L19.9977 22.8315L19.9971 17.0321L3.10324 5.40413ZM36.8359 5.41372C37.6414 4.85786 38.7497 5.05796 39.3099 5.8604C40.265 7.22844 39.9257 9.10388 38.5518 10.0505L20.0027 22.8315L20.0003 17.0321L36.8359 5.41372Z" fill="#DADADC"/>
</g>
<path d="M37.667 5H2.41699C2.41699 5 15.4066 13.8428 20.0003 17.117L37.667 5Z" fill="#FAFAFA"/>
<mask id="mask1_249_11329" style="mask-type:alpha" maskUnits="userSpaceOnUse" x="0" y="4" width="40" height="19">
<path d="M2.81283 5.20418C2.17291 4.76374 1.20327 5.05232 0.647258 5.84869C-0.301515 7.20761 -0.185943 8.91822 0.905471 9.67056L19.9976 22.8312L19.997 17.0318L2.81283 5.20418Z" fill="#DADADC"/>
<path d="M37.1281 5.21175C37.7722 4.76725 38.7493 5.05752 39.3094 5.85979C40.2647 7.228 40.1482 8.9503 39.0491 9.70755L20.0025 22.8312L20.0001 17.0318L37.1281 5.21175Z" fill="#DADADC"/>
</mask>
<g mask="url(#mask1_249_11329)">
<ellipse cx="20.0839" cy="19.8333" rx="29.9169" ry="29.8333" fill="#DC4B3E"/>
</g>
</g>

</svg>
