<svg width="25" height="24" viewBox="0 0 25 24" fill="none" xmlns="http://www.w3.org/2000/svg">
<path fill-rule="evenodd" clip-rule="evenodd" d="M9.99998 3.09961C6.05986 3.09961 2.59998 5.82992 2.59998 9.49961C2.59998 10.7098 2.98753 11.8336 3.64602 12.7858C3.42123 13.8444 3.06444 14.7612 2.85367 15.2488C2.53055 15.9965 3.08866 16.9746 4.04971 16.8453C4.78955 16.7458 6.38544 16.4525 7.79824 15.6121C8.4954 15.7993 9.23519 15.8996 9.99998 15.8996C13.9401 15.8996 17.4 13.1693 17.4 9.49961C17.4 5.82992 13.9401 3.09961 9.99998 3.09961ZM4.39998 9.49961C4.39998 7.09417 6.76039 4.89961 9.99998 4.89961C13.2396 4.89961 15.6 7.09417 15.6 9.49961C15.6 11.905 13.2396 14.0996 9.99998 14.0996C9.2699 14.0996 8.57544 13.9846 7.94008 13.7771C7.67407 13.6903 7.3828 13.7321 7.15197 13.8903C6.45799 14.3659 5.6381 14.6606 4.93873 14.8403C5.14313 14.2429 5.35321 13.5122 5.49135 12.7234C5.53578 12.4697 5.4694 12.2092 5.30901 12.0077C4.72579 11.2749 4.39998 10.4133 4.39998 9.49961Z" fill="#1DC4CF"/>
<path d="M19.4754 8.42428C19.1131 8.76458 19.0952 9.33414 19.4355 9.69645C20.0584 10.3596 20.4548 11.1506 20.5671 11.9996H20.566C20.5881 12.1615 20.5996 12.3251 20.6 12.4896L20.6 12.4996L20.5998 12.5354C20.5915 13.4357 20.2666 14.2845 19.691 15.0077C19.5306 15.2092 19.4642 15.4697 19.5086 15.7234C19.6468 16.5122 19.8569 17.2429 20.0613 17.8403C19.3619 17.6606 18.542 17.3659 17.848 16.8903C17.6172 16.7321 17.3259 16.6903 17.0599 16.7771C16.8223 16.8547 16.5765 16.9193 16.3236 16.9699C16.059 17.0228 15.7866 17.0602 15.508 17.0809C15.3408 17.0933 15.1714 17.0996 15 17.0996C14.6422 17.0996 14.293 17.072 13.9551 17.0194C13.464 16.943 13.0038 17.2791 12.9274 17.7703C12.851 18.2614 13.1871 18.7215 13.6783 18.798C14.1078 18.8648 14.5496 18.8996 15 18.8996C15.1679 18.8996 15.3347 18.8948 15.5 18.8852C15.9012 18.8621 16.2943 18.8114 16.6764 18.735C16.854 18.6995 17.0292 18.6585 17.2017 18.6121C18.6145 19.4525 20.2104 19.7458 20.9503 19.8453C21.9113 19.9746 22.4694 18.9965 22.1463 18.2488C21.9356 17.7612 21.5788 16.8444 21.354 15.7858C22.0125 14.8336 22.4 13.7098 22.4 12.4996C22.4 12.3309 22.3927 12.1642 22.3784 11.9996C22.2582 10.6508 21.6563 9.4317 20.7476 8.46415C20.4073 8.10184 19.8377 8.08399 19.4754 8.42428Z" fill="#1DC4CF"/>
</svg>
