<svg width="24" height="24" viewBox="0 0 24 24" fill="none" xmlns="http://www.w3.org/2000/svg">
<path d="M3 2C2.44772 2 2 2.44772 2 3C2 3.55228 2.44772 4 3 4H4C4.55228 4 5 4.44772 5 5V14C5 15.1046 5.89543 16 7 16H17.4724C18.3743 16 19.1646 15.3964 19.4019 14.5262L20.9665 8.78935C21.487 6.88093 20.0504 5 18.0722 5H7C7 3.34315 5.65685 2 4 2H3Z" fill="#C4C8CC"/>
<path d="M7.5 22C8.88071 22 10 20.8807 10 19.5C10 18.1193 8.88071 17 7.5 17C6.11929 17 5 18.1193 5 19.5C5 20.8807 6.11929 22 7.5 22Z" fill="#C4C8CC"/>
<path d="M16.5 22C17.8807 22 19 20.8807 19 19.5C19 18.1193 17.8807 17 16.5 17C15.1193 17 14 18.1193 14 19.5C14 20.8807 15.1193 22 16.5 22Z" fill="#C4C8CC"/>
</svg>
