<svg width="20" height="24" viewBox="0 0 20 24" fill="none" xmlns="http://www.w3.org/2000/svg">
<path d="M8.5 7.28571H16M4 7.28571H5.5M8.5 12H16M4 12H5.5M8.5 16.7143H16M4 16.7143H5.5M19 19.8571V4.14286C19 3.30932 18.6839 2.50992 18.1213 1.92052C17.5587 1.33112 16.7956 1 16 1H4C3.20435 1 2.44129 1.33112 1.87868 1.92052C1.31607 2.50992 1 3.30932 1 4.14286V19.8571C1 20.6907 1.31607 21.4901 1.87868 22.0795C2.44129 22.6689 3.20435 23 4 23H16C16.7956 23 17.5587 22.6689 18.1213 22.0795C18.6839 21.4901 19 20.6907 19 19.8571V19.8571Z" stroke="white" stroke-width="1.8" stroke-linecap="round" stroke-linejoin="round"/>
</svg>
