<svg width="24" height="24" viewBox="0 0 24 24" fill="none" xmlns="http://www.w3.org/2000/svg">
<path d="M12.0041 2.1001C16.0194 2.1001 18.9 5.37841 18.9 9.63168V11.2313C18.9 11.46 19.0932 11.7631 19.6205 12.3071C19.6881 12.3769 19.7518 12.4416 19.8909 12.5824C20.9721 13.6791 21.4 14.3109 21.4 15.3273C21.4 15.7718 21.3481 16.1183 21.1323 16.5336C20.6761 17.4111 19.7089 17.9001 18.2631 17.9001L16.3514 17.9011C15.7221 20.2336 14.2209 21.5003 12 21.5003C9.75537 21.5003 8.24589 20.2065 7.62878 17.8262L7.64798 17.9001H5.73682C4.24886 17.9001 3.27132 17.3978 2.83464 16.4895C2.64368 16.0923 2.59998 15.7699 2.59998 15.3273C2.59998 14.3109 3.02785 13.6791 4.1091 12.5824C4.24817 12.4416 4.31184 12.3769 4.37946 12.3071C4.90673 11.7631 5.09998 11.46 5.09998 11.2313V9.63168C5.09998 5.38007 7.98769 2.1001 12.0041 2.1001ZM14.4659 17.902H9.53401C9.98996 19.1486 10.7758 19.7003 12 19.7003C13.2242 19.7003 14.01 19.1486 14.4659 17.902ZM12.0041 3.9001C9.03644 3.9001 6.89998 6.32677 6.89998 9.63168V11.2313C6.89998 12.0839 6.51053 12.6947 5.67198 13.5599C5.59872 13.6355 5.52956 13.7057 5.39086 13.8462C4.64397 14.6037 4.39998 14.964 4.39998 15.3273C4.39998 15.5194 4.41352 15.6193 4.4569 15.7096C4.5642 15.9327 4.88988 16.1001 5.73682 16.1001H18.2631C19.0832 16.1001 19.4165 15.9316 19.5352 15.7033C19.5846 15.6082 19.6 15.5056 19.6 15.3273C19.6 14.964 19.356 14.6037 18.6091 13.8462C18.4704 13.7057 18.4012 13.6355 18.328 13.5599C17.4894 12.6947 17.1 12.0839 17.1 11.2313V9.63168C17.1 6.32445 14.9697 3.9001 12.0041 3.9001Z" fill="#1DC4CF"/>
</svg>
