<svg width="18" height="19" viewBox="0 0 18 19" fill="none" xmlns="http://www.w3.org/2000/svg">
<path d="M9.00395 0C12.8879 0 15.8571 3.25206 15.8571 7.35554L15.8532 8.92124C15.8536 9.18462 16.0239 9.48916 16.4859 10.0329C16.5439 10.1011 16.5985 10.1644 16.7179 10.3024C17.6352 11.3637 18 11.9781 18 12.9328C18 13.3623 17.9512 13.6959 17.7477 14.0962C17.3139 14.9494 16.387 15.4286 15 15.4286L12.7704 15.4292C12.198 17.3696 10.8963 18.4286 9 18.4286C7.10372 18.4286 5.80204 17.3696 5.22955 15.4292L3 15.4286C1.57271 15.4286 0.636025 14.9364 0.221121 14.0539C0.04116 13.6712 0 13.3607 0 12.9328C0 11.9786 0.364075 11.3642 1.27957 10.303C1.39878 10.165 1.4533 10.1017 1.51121 10.0334C1.97289 9.48906 2.14286 9.18439 2.14286 8.92039V7.35338C2.14286 3.25347 5.11888 0 9.00395 0ZM10.9538 15.4293H7.04623C7.43262 16.3227 8.05599 16.7143 9 16.7143C9.94401 16.7143 10.5674 16.3227 10.9538 15.4293Z" fill="white"/>
</svg>
