<svg width="30" height="30" viewBox="0 0 30 30" fill="none" xmlns="http://www.w3.org/2000/svg">
<path fill-rule="evenodd" clip-rule="evenodd" d="M22.2439 5.125C23.6838 5.125 24.4179 5.26675 25.1819 5.67536C25.8872 6.05256 26.4474 6.61282 26.8246 7.31813C27.2018 8.02338 27.3516 8.7031 27.3724 9.93599L27.375 10.2561V19.7439L27.3724 20.064C27.3516 21.2969 27.2018 21.9766 26.8246 22.6819C26.4474 23.3872 25.8872 23.9474 25.1819 24.3246L25.0058 24.4143C24.3007 24.7542 23.573 24.875 22.2439 24.875H7.75607C6.42697 24.875 5.69926 24.7542 4.99425 24.4143L4.81813 24.3246C4.11282 23.9474 3.55256 23.3872 3.17536 22.6819C2.79818 21.9766 2.64839 21.2969 2.62757 20.064L2.625 19.7439V10.2561C2.625 8.81621 2.76675 8.08215 3.17536 7.31813C3.55256 6.61282 4.11282 6.05256 4.81813 5.67536C5.52338 5.29818 6.2031 5.14839 7.43599 5.12757L7.75607 5.125H22.2439ZM25.1238 12.375L25.125 19.7439C25.125 20.8441 25.051 21.2273 24.8406 21.6208C24.6731 21.934 24.434 22.1731 24.1208 22.3406C23.7575 22.5348 23.4031 22.6128 22.4854 22.6237L22.2439 22.625H7.75607L7.51458 22.6237C6.59687 22.6128 6.24245 22.5348 5.87923 22.3406C5.56602 22.1731 5.32694 21.934 5.15943 21.6208C4.94899 21.2273 4.875 20.8441 4.875 19.7439L4.87375 12.375H25.1238ZM7.75607 7.375H22.2439L22.4854 7.37634C23.4031 7.38719 23.7575 7.46518 24.1208 7.65944C24.434 7.82694 24.6731 8.06602 24.8406 8.37923C25.0348 8.74245 25.1128 9.09687 25.1237 10.0146L25.1225 10.125H4.875L4.87634 10.0146C4.88719 9.09687 4.96518 8.74245 5.15943 8.37923C5.32694 8.06602 5.56602 7.82694 5.87923 7.65944C6.27272 7.44899 6.65588 7.375 7.75607 7.375Z" fill="white"/>
<path d="M7.49999 18.5C7.49999 18.15 7.49999 17.975 7.56811 17.8413C7.62803 17.7237 7.72365 17.6281 7.84125 17.5682C7.97494 17.5 8.14996 17.5 8.49999 17.5H8.99999C9.35002 17.5 9.52504 17.5 9.65874 17.5682C9.77634 17.6281 9.87195 17.7237 9.93187 17.8413C9.99999 17.975 9.99999 18.15 9.99999 18.5V19C9.99999 19.3501 9.99999 19.5251 9.93187 19.6588C9.87195 19.7764 9.77634 19.872 9.65874 19.9319C9.52504 20 9.35003 20 8.99999 20H8.49999C8.14996 20 7.97494 20 7.84125 19.9319C7.72365 19.872 7.62803 19.7764 7.56811 19.6588C7.49999 19.5251 7.49999 19.3501 7.49999 19V18.5Z" fill="white"/>
</svg>
