<svg width="24" height="24" viewBox="0 0 24 24" fill="none" xmlns="http://www.w3.org/2000/svg">
<path fill-rule="evenodd" clip-rule="evenodd" d="M11.1801 3.9001H12.8201C13.9139 3.9001 14.626 3.9015 15.1693 3.94589C15.6917 3.98857 15.8977 4.06184 16.0081 4.11808C16.3844 4.30983 16.6904 4.61579 16.8821 4.99212C16.9384 5.10251 17.0116 5.3085 17.0543 5.83084C17.0987 6.3742 17.1001 7.0863 17.1001 8.1801V15.8201C17.1001 16.9139 17.0987 17.626 17.0543 18.1694C17.0116 18.6917 16.9384 18.8977 16.8821 19.0081C16.6904 19.3844 16.3844 19.6904 16.0081 19.8821C15.8977 19.9384 15.6917 20.0117 15.1693 20.0543C14.626 20.0987 13.9139 20.1001 12.8201 20.1001H11.1801C10.0863 20.1001 9.3742 20.0987 8.83084 20.0543C8.3085 20.0117 8.10251 19.9384 7.99212 19.8821C7.61579 19.6904 7.30983 19.3844 7.11808 19.0081C7.06184 18.8977 6.98857 18.6917 6.94589 18.1694C6.9015 17.626 6.9001 16.9139 6.9001 15.8201V8.18009C6.9001 7.08629 6.9015 6.3742 6.94589 5.83084C6.98857 5.3085 7.06184 5.10251 7.11808 4.99212C7.30983 4.61579 7.61579 4.30983 7.99212 4.11808C8.10251 4.06184 8.3085 3.98857 8.83084 3.94589C9.3742 3.9015 10.0863 3.9001 11.1801 3.9001ZM5.1001 8.18009C5.1001 6.0519 5.1001 4.9878 5.51427 4.17493C5.87859 3.45992 6.45992 2.87859 7.17493 2.51427C7.9878 2.1001 9.0519 2.1001 11.1801 2.1001H12.8201C14.9483 2.1001 16.0124 2.1001 16.8253 2.51427C17.5403 2.87859 18.1216 3.45992 18.4859 4.17493C18.9001 4.9878 18.9001 6.0519 18.9001 8.1801V15.8201C18.9001 17.9483 18.9001 19.0124 18.4859 19.8253C18.1216 20.5403 17.5403 21.1216 16.8253 21.4859C16.0124 21.9001 14.9483 21.9001 12.8201 21.9001H11.1801C9.0519 21.9001 7.9878 21.9001 7.17493 21.4859C6.45992 21.1216 5.87859 20.5403 5.51427 19.8253C5.1001 19.0124 5.1001 17.9483 5.1001 15.8201V8.18009ZM11.2501 16.2001C10.753 16.2001 10.3501 16.603 10.3501 17.1001C10.3501 17.5972 10.753 18.0001 11.2501 18.0001H12.7501C13.2471 18.0001 13.6501 17.5972 13.6501 17.1001C13.6501 16.603 13.2471 16.2001 12.7501 16.2001H11.2501Z" fill="#1DC4CF"/>
</svg>
