<svg width="34" height="34" viewBox="0 0 34 34" fill="none" xmlns="http://www.w3.org/2000/svg">
<path d="M19.9492 21.1208C19.6244 21.1208 19.3594 21.3856 19.3594 21.7114C19.3594 22.0374 19.6244 22.3021 19.9492 22.3021C20.2741 22.3021 20.5391 22.0374 20.5391 21.7114C20.5391 21.3856 20.2741 21.1208 19.9492 21.1208ZM14.0508 17.577C13.7259 17.577 13.4609 17.8418 13.4609 18.1677C13.4609 18.4936 13.7258 18.7583 14.0508 18.7583C14.3756 18.7583 14.6406 18.4936 14.6406 18.1677C14.6406 17.8418 14.3756 17.577 14.0508 17.577ZM26.4375 12.8519H7.56248C7.23642 12.8519 6.97266 13.1161 6.97266 13.4426V26.4366C6.97266 26.7631 7.23649 27.0273 7.56248 27.0273H26.4375C26.7635 27.0273 27.0273 26.7631 27.0273 26.4366V13.4425C27.0273 13.1161 26.7635 12.8519 26.4375 12.8519ZM12.2812 18.1676C12.2812 17.1905 13.075 16.3957 14.0508 16.3957C15.0265 16.3957 15.8203 17.1905 15.8203 18.1676C15.8203 19.1447 15.0265 19.9395 14.0508 19.9395C13.075 19.9396 12.2812 19.1447 12.2812 18.1676ZM14.272 23.3541C14.0174 23.1499 13.9771 22.7785 14.1798 22.5235L18.8986 16.6172C19.1025 16.3628 19.4746 16.323 19.728 16.5249C19.9826 16.7291 20.0229 17.1005 19.8201 17.3555L15.1014 23.2618C14.9002 23.5133 14.5306 23.56 14.272 23.3541ZM19.9492 23.4834C18.9735 23.4834 18.1797 22.6885 18.1797 21.7114C18.1797 20.7343 18.9735 19.9395 19.9492 19.9395C20.925 19.9395 21.7188 20.7343 21.7188 21.7114C21.7188 22.6885 20.925 23.4834 19.9492 23.4834ZM15.2847 9.13291C15.4726 9.9092 16.1678 10.4894 17 10.4894C17.8322 10.4894 18.5274 9.9092 18.7153 9.13291L22.6239 11.6706H24.793C21.9153 9.8074 18.1837 7.36564 17.9889 7.26809C17.4231 6.88758 16.6227 6.85298 15.9517 7.29159L9.20709 11.6706H11.3762L15.2847 9.13291ZM17 8.12679C17.3284 8.12679 17.5898 8.39374 17.5898 8.7174C17.5898 9.04333 17.3249 9.30809 17 9.30809C16.6751 9.30809 16.4102 9.04333 16.4102 8.7174C16.4102 8.39055 16.6744 8.12679 17 8.12679Z" fill="url(#paint0_linear_539_17586)"/>
<defs>
<linearGradient id="paint0_linear_539_17586" x1="17" y1="6.97266" x2="17" y2="27.0273" gradientUnits="userSpaceOnUse">
<stop stop-color="#86F8FF"/>
<stop offset="1" stop-color="#1DC4CF"/>
</linearGradient>
</defs>
</svg>
