<svg width="21" height="22" viewBox="0 0 21 22" fill="none" xmlns="http://www.w3.org/2000/svg">
<path d="M19.6744 8.63937C19.3209 8.27 18.9553 7.88938 18.8175 7.55469C18.69 7.24813 18.6825 6.74 18.675 6.24781C18.6609 5.33281 18.6459 4.29594 17.925 3.575C17.2041 2.85406 16.1672 2.83906 15.2522 2.825C14.76 2.8175 14.2519 2.81 13.9453 2.6825C13.6116 2.54469 13.23 2.17906 12.8606 1.82562C12.2137 1.20406 11.4788 0.5 10.5 0.5C9.52125 0.5 8.78719 1.20406 8.13937 1.82562C7.77 2.17906 7.38938 2.54469 7.05469 2.6825C6.75 2.81 6.24 2.8175 5.74781 2.825C4.83281 2.83906 3.79594 2.85406 3.075 3.575C2.35406 4.29594 2.34375 5.33281 2.325 6.24781C2.3175 6.74 2.31 7.24813 2.1825 7.55469C2.04469 7.88844 1.67906 8.27 1.32562 8.63937C0.704062 9.28625 0 10.0212 0 11C0 11.9788 0.704062 12.7128 1.32562 13.3606C1.67906 13.73 2.04469 14.1106 2.1825 14.4453C2.31 14.7519 2.3175 15.26 2.325 15.7522C2.33906 16.6672 2.35406 17.7041 3.075 18.425C3.79594 19.1459 4.83281 19.1609 5.74781 19.175C6.24 19.1825 6.74813 19.19 7.05469 19.3175C7.38844 19.4553 7.77 19.8209 8.13937 20.1744C8.78625 20.7959 9.52125 21.5 10.5 21.5C11.4788 21.5 12.2128 20.7959 12.8606 20.1744C13.23 19.8209 13.6106 19.4553 13.9453 19.3175C14.2519 19.19 14.76 19.1825 15.2522 19.175C16.1672 19.1609 17.2041 19.1459 17.925 18.425C18.6459 17.7041 18.6609 16.6672 18.675 15.7522C18.6825 15.26 18.69 14.7519 18.8175 14.4453C18.9553 14.1116 19.3209 13.73 19.6744 13.3606C20.2959 12.7137 21 11.9788 21 11C21 10.0212 20.2959 9.28719 19.6744 8.63937ZM14.7806 9.28063L9.53063 14.5306C9.46097 14.6004 9.37825 14.6557 9.2872 14.6934C9.19616 14.7312 9.09856 14.7506 9 14.7506C8.90144 14.7506 8.80384 14.7312 8.7128 14.6934C8.62175 14.6557 8.53903 14.6004 8.46937 14.5306L6.21937 12.2806C6.07864 12.1399 5.99958 11.949 5.99958 11.75C5.99958 11.551 6.07864 11.3601 6.21937 11.2194C6.36011 11.0786 6.55098 10.9996 6.75 10.9996C6.94902 10.9996 7.13989 11.0786 7.28063 11.2194L9 12.9397L13.7194 8.21937C13.7891 8.14969 13.8718 8.09442 13.9628 8.0567C14.0539 8.01899 14.1515 7.99958 14.25 7.99958C14.3485 7.99958 14.4461 8.01899 14.5372 8.0567C14.6282 8.09442 14.7109 8.14969 14.7806 8.21937C14.8503 8.28906 14.9056 8.37178 14.9433 8.46283C14.981 8.55387 15.0004 8.65145 15.0004 8.75C15.0004 8.84855 14.981 8.94613 14.9433 9.03717C14.9056 9.12822 14.8503 9.21094 14.7806 9.28063Z" fill="#CEE31C"/>
</svg>
