<svg width="24" height="24" viewBox="0 0 24 24" fill="none" xmlns="http://www.w3.org/2000/svg">
<path fill-rule="evenodd" clip-rule="evenodd" d="M7.00001 13.9998C7.49706 13.9998 7.90001 14.4027 7.90001 14.8998V19.0998H16.1V14.8998C16.1 14.4027 16.5029 13.9998 17 13.9998C17.4971 13.9998 17.9 14.4027 17.9 14.8998V19.9998C17.9 20.4968 17.4971 20.8998 17 20.8998H7.00001C6.50295 20.8998 6.10001 20.4968 6.10001 19.9998V14.8998C6.10001 14.4027 6.50295 13.9998 7.00001 13.9998Z" fill="#1DC4CF"/>
<path fill-rule="evenodd" clip-rule="evenodd" d="M3 19.9998C3 19.5027 3.40294 19.0998 3.9 19.0998H20.1C20.5971 19.0998 21 19.5027 21 19.9998C21 20.4968 20.5971 20.8998 20.1 20.8998H3.9C3.40294 20.8998 3 20.4968 3 19.9998Z" fill="#1DC4CF"/>
<path fill-rule="evenodd" clip-rule="evenodd" d="M16.9 9.99976C16.9 10.6073 17.3925 11.0998 18 11.0998C18.6075 11.0998 19.1 10.6073 19.1 9.99976H20.9C20.9 11.6014 19.6016 12.8998 18 12.8998C16.3984 12.8998 15.1 11.6014 15.1 9.99976H16.9Z" fill="#1DC4CF"/>
<path fill-rule="evenodd" clip-rule="evenodd" d="M16 9.09976C16.4971 9.09976 16.9 9.5027 16.9 9.99976C16.9 10.6073 17.3925 11.0998 18 11.0998C18.6075 11.0998 19.1 10.6073 19.1 9.99976C19.1 9.5027 19.5029 9.09976 20 9.09976C20.4971 9.09976 20.9 9.5027 20.9 9.99976C20.9 11.6014 19.6016 12.8998 18 12.8998C16.3984 12.8998 15.1 11.6014 15.1 9.99976C15.1 9.5027 15.5029 9.09976 16 9.09976Z" fill="#1DC4CF"/>
<path fill-rule="evenodd" clip-rule="evenodd" d="M12 9.09976C12.4971 9.09976 12.9 9.50271 12.9 9.99976C12.9 10.6073 13.3925 11.0998 14 11.0998C14.6075 11.0998 15.1 10.6073 15.1 9.99976C15.1 9.5027 15.5029 9.09976 16 9.09976C16.4971 9.09976 16.9 9.5027 16.9 9.99976C16.9 11.6014 15.6016 12.8998 14 12.8998C12.3984 12.8998 11.1 11.6014 11.1 9.99976C11.1 9.50271 11.5029 9.09976 12 9.09976Z" fill="#1DC4CF"/>
<path fill-rule="evenodd" clip-rule="evenodd" d="M8.00001 9.09976C8.49706 9.09976 8.90001 9.50271 8.90001 9.99976C8.90001 10.6073 9.39249 11.0998 10 11.0998C10.6075 11.0998 11.1 10.6073 11.1 9.99976C11.1 9.50271 11.5029 9.09976 12 9.09976C12.4971 9.09976 12.9 9.50271 12.9 9.99976C12.9 11.6014 11.6016 12.8998 10 12.8998C8.39838 12.8998 7.10001 11.6014 7.10001 9.99976C7.10001 9.50271 7.50295 9.09976 8.00001 9.09976Z" fill="#1DC4CF"/>
<path fill-rule="evenodd" clip-rule="evenodd" d="M4.00001 9.09976C4.49706 9.09976 4.90001 9.50271 4.90001 9.99976C4.90001 10.6073 5.39249 11.0998 6.00001 11.0998C6.60752 11.0998 7.10001 10.6073 7.10001 9.99976C7.10001 9.50271 7.50295 9.09976 8.00001 9.09976C8.49706 9.09976 8.90001 9.50271 8.90001 9.99976C8.90001 11.6014 7.60163 12.8998 6.00001 12.8998C4.39838 12.8998 3.10001 11.6014 3.10001 9.99976C3.10001 9.50271 3.50295 9.09976 4.00001 9.09976Z" fill="#1DC4CF"/>
<path fill-rule="evenodd" clip-rule="evenodd" d="M8.70315 3.09968C8.739 3.09972 8.77522 3.09976 8.81182 3.09976H15.1882C15.2248 3.09976 15.261 3.09972 15.2969 3.09968C15.85 3.09911 16.3159 3.09863 16.7498 3.23721C17.1307 3.35884 17.4823 3.55792 17.7826 3.82194C18.1247 4.12274 18.364 4.52254 18.6481 4.99711C18.6665 5.02787 18.6851 5.05894 18.7039 5.09032L20.3157 7.77667C20.3249 7.79199 20.334 7.80715 20.343 7.82216C20.4863 8.0606 20.6073 8.26201 20.695 8.48265C20.7722 8.67703 20.8282 8.87919 20.862 9.08562C20.9003 9.31992 20.9002 9.55488 20.9 9.83302C20.9 9.85054 20.9 9.86823 20.9 9.88611L20.9 9.99976H19.1L19.1 9.88611C19.1 9.52792 19.0973 9.4478 19.0856 9.37617C19.0728 9.29787 19.0515 9.22118 19.0222 9.14746C18.9954 9.08 18.9565 9.00991 18.7722 8.70276L17.1604 6.01642C16.7899 5.39889 16.6977 5.26491 16.594 5.17369C16.4801 5.07354 16.3467 4.99803 16.2023 4.95189C16.0707 4.90987 15.9084 4.89976 15.1882 4.89976H8.81182C8.09166 4.89976 7.92935 4.90987 7.79775 4.95189C7.65328 4.99803 7.51991 5.07354 7.40602 5.17369C7.30228 5.26491 7.2101 5.39889 6.83958 6.01642L5.22778 8.70276C5.04349 9.00991 5.00459 9.08 4.97778 9.14746C4.94848 9.22118 4.92724 9.29787 4.91443 9.37617C4.90272 9.4478 4.90001 9.52792 4.90001 9.88611L4.90001 9.99976H3.10001L3.10001 9.88611C3.10001 9.86824 3.1 9.85055 3.09999 9.83303C3.09984 9.55488 3.09971 9.31993 3.13804 9.08562C3.1718 8.87919 3.2278 8.67703 3.30505 8.48265C3.39274 8.26201 3.51373 8.06061 3.65697 7.82217C3.66599 7.80716 3.67509 7.792 3.68429 7.77667L5.2961 5.09032C5.31493 5.05894 5.33353 5.02787 5.35194 4.9971C5.63601 4.52254 5.87533 4.12274 6.21742 3.82194C6.51768 3.55792 6.86929 3.35884 7.25017 3.23721C7.68411 3.09863 8.15006 3.09911 8.70315 3.09968Z" fill="#1DC4CF"/>
</svg>
