<svg width="24" height="20" viewBox="0 0 24 20" fill="none" xmlns="http://www.w3.org/2000/svg">
<path fill-rule="evenodd" clip-rule="evenodd" d="M2.85519 2.55946C2.68849 2.51114 2.46253 2.50016 1.54371 2.50016H1.42383C0.802508 2.50016 0.298828 1.99648 0.298828 1.37516C0.298828 0.753841 0.802508 0.250161 1.42383 0.250161L1.68364 0.250079C2.38933 0.249455 2.96591 0.248945 3.48155 0.398397C4.51308 0.697374 5.36692 1.42428 5.82666 2.39488C5.84305 2.42949 5.85874 2.46452 5.87378 2.5L19.2281 2.5C19.7142 2.49999 20.1276 2.49998 20.4657 2.51995C20.8156 2.54061 21.1697 2.58586 21.5156 2.71592C22.6801 3.15377 23.5093 4.19676 23.6733 5.43001C23.7221 5.79633 23.6863 6.15149 23.6276 6.49703C23.5708 6.83097 23.4776 7.2337 23.368 7.70731L22.5353 11.3059C22.4097 11.8513 22.3003 12.3264 22.081 12.7316C21.6435 13.5401 20.8951 14.135 20.0088 14.3791C19.5646 14.5014 19.077 14.5009 18.5174 14.5002L9.16523 14.5003C8.57028 14.5009 8.05301 14.5015 7.58802 14.3668C6.65965 14.0977 5.8912 13.4435 5.47743 12.5699C5.27018 12.1324 5.18823 11.6217 5.09396 11.0342L4.06104 4.64327C3.91443 3.73622 3.86754 3.51491 3.79324 3.35805C3.60934 2.96981 3.2678 2.67905 2.85519 2.55946Z" fill="white"/>
<path d="M6.75 17.875C6.75 16.8395 7.58947 16 8.625 16C9.66053 16 10.5 16.8395 10.5 17.875C10.5 18.9105 9.66053 19.75 8.625 19.75C7.58947 19.75 6.75 18.9105 6.75 17.875Z" fill="white"/>
<path d="M18.375 16C17.3395 16 16.5 16.8395 16.5 17.875C16.5 18.9105 17.3395 19.75 18.375 19.75C19.4105 19.75 20.25 18.9105 20.25 17.875C20.25 16.8395 19.4105 16 18.375 16Z" fill="white"/>
</svg>
