<svg width="24" height="24" viewBox="0 0 24 24" fill="none" xmlns="http://www.w3.org/2000/svg">
<path fill-rule="evenodd" clip-rule="evenodd" d="M2.85519 4.55946C2.68849 4.51114 2.46253 4.50016 1.54371 4.50016H1.42383C0.802508 4.50016 0.298828 3.99648 0.298828 3.37516C0.298828 2.75384 0.802508 2.25016 1.42383 2.25016L1.68364 2.25008C2.38933 2.24946 2.96591 2.24895 3.48155 2.3984C4.51308 2.69737 5.36692 3.42428 5.82666 4.39488C5.84305 4.42949 5.85874 4.46452 5.87378 4.5L19.2281 4.5C19.7142 4.49999 20.1276 4.49998 20.4657 4.51995C20.8156 4.54061 21.1697 4.58586 21.5156 4.71592C22.6801 5.15377 23.5093 6.19676 23.6733 7.43001C23.7221 7.79633 23.6863 8.15149 23.6276 8.49703C23.5708 8.83097 23.4776 9.2337 23.368 9.70731L22.5353 13.3059C22.4097 13.8513 22.3003 14.3264 22.081 14.7316C21.6435 15.5401 20.8951 16.1351 20.0088 16.3791C19.5646 16.5014 19.077 16.5009 18.5174 16.5002L9.16523 16.5003C8.57028 16.5009 8.05301 16.5015 7.58802 16.3668C6.65965 16.0977 5.8912 15.4435 5.47743 14.5699C5.27018 14.1324 5.18823 13.6217 5.09396 13.0342L4.06104 6.64327C3.91443 5.73622 3.86754 5.51491 3.79324 5.35805C3.60934 4.96981 3.2678 4.67905 2.85519 4.55946ZM6.35749 6.75L7.29471 12.5483C7.42208 13.3362 7.45934 13.498 7.51085 13.6067C7.64877 13.8979 7.90492 14.116 8.21438 14.2057C8.32994 14.2392 8.49558 14.2502 9.29377 14.2502H18.3974C19.1464 14.2502 19.3008 14.2403 19.4115 14.2098C19.7069 14.1285 19.9564 13.9301 20.1023 13.6606C20.1569 13.5597 20.2013 13.4115 20.3702 12.6817L21.1686 9.23154C21.2875 8.71789 21.3651 8.38037 21.4094 8.11987C21.453 7.86358 21.4482 7.76579 21.443 7.72667C21.3883 7.31559 21.1119 6.96792 20.7237 6.82198C20.6868 6.80809 20.5926 6.78136 20.3331 6.76604C20.0693 6.75046 19.723 6.75 19.1958 6.75H6.35749Z" fill="white"/>
<path d="M6.75 19.875C6.75 18.8395 7.58947 18 8.625 18C9.66053 18 10.5 18.8395 10.5 19.875C10.5 20.9105 9.66053 21.75 8.625 21.75C7.58947 21.75 6.75 20.9105 6.75 19.875Z" fill="white"/>
<path d="M18.375 18C17.3395 18 16.5 18.8395 16.5 19.875C16.5 20.9105 17.3395 21.75 18.375 21.75C19.4105 21.75 20.25 20.9105 20.25 19.875C20.25 18.8395 19.4105 18 18.375 18Z" fill="white"/>
</svg>
