<svg width="24" height="24" viewBox="0 0 24 24" fill="none" xmlns="http://www.w3.org/2000/svg">
<path d="M5.85405 3H18.1459C18.9637 3 19.6992 3.4979 20.0029 4.25722L21.1664 7.1661C21.3786 7.69652 21.3777 8.32842 20.9349 8.68932C19.6347 9.74889 16.9982 9.76981 15.6453 8.75208C15.316 8.5044 14.6907 8.50874 14.368 8.76482C13.1324 9.74506 10.8675 9.74506 9.63201 8.76482C9.30924 8.50874 8.68395 8.5044 8.35468 8.75208C7.00173 9.76981 4.3653 9.74889 3.06512 8.68932C2.62227 8.32842 2.62138 7.69652 2.83355 7.16611L3.9971 4.25722C4.30083 3.4979 5.03624 3 5.85405 3Z" fill="#1DC4CF"/>
<path fill-rule="evenodd" clip-rule="evenodd" d="M20 19V11.809C20 11.4373 19.5975 11.1729 19.2388 11.2706C18.806 11.3883 18.2089 11.5 17.5 11.5C16.5581 11.5 15.8134 11.1057 15.3896 10.8123C15.1625 10.6551 14.8355 10.6529 14.6025 10.801C14.1395 11.0955 13.272 11.5 12 11.5C10.728 11.5 9.86049 11.0955 9.39748 10.801C9.16447 10.6529 8.83746 10.6551 8.61042 10.8123C8.18661 11.1057 7.44187 11.5 6.49999 11.5C5.79113 11.5 5.19393 11.3883 4.76116 11.2706C4.40252 11.1729 3.99999 11.4373 3.99999 11.809V19C3.99999 20.1046 4.89542 21 5.99999 21H7.49999C7.77613 21 7.99999 20.7762 7.99999 20.5V15C7.99999 14.4477 8.4477 14 8.99999 14H9.99999C10.5523 14 11 14.4477 11 15V20.5C11 20.7762 11.2238 21 11.5 21H18C19.1046 21 20 20.1046 20 19ZM14 15C14 14.4477 14.4477 14 15 14H16C16.5523 14 17 14.4477 17 15C17 15.5523 16.5523 16 16 16H15C14.4477 16 14 15.5523 14 15Z" fill="#1DC4CF"/>
</svg>
