<svg width="90" height="90" viewBox="0 0 90 90" fill="none" xmlns="http://www.w3.org/2000/svg">
<circle cx="45" cy="45" r="45" fill="#6F32F8" fill-opacity="0.1"/>
<circle cx="45" cy="45" r="40" fill="#6F32F8" fill-opacity="0.2"/>
<circle cx="45" cy="44" r="20" fill="white"/>
<path d="M45.0003 11.667C26.6337 11.667 11.667 26.6337 11.667 45.0003C11.667 63.367 26.6337 78.3337 45.0003 78.3337C63.367 78.3337 78.3337 63.367 78.3337 45.0003C78.3337 26.6337 63.367 11.667 45.0003 11.667Z" fill="#6F32F8"/>
<path d="M54.5625 38.0459V33.3125C54.5625 32.7489 54.3386 32.2084 53.9401 31.8099C53.5416 31.4114 53.0011 31.1875 52.4375 31.1875H37.5625C36.9989 31.1875 36.4584 31.4114 36.0599 31.8099C35.6614 32.2084 35.4375 32.7489 35.4375 33.3125V38.0938C35.4382 38.4235 35.5153 38.7486 35.6628 39.0436C35.8103 39.3385 36.0241 39.5953 36.2875 39.7938L43.2296 45L36.2875 50.2062C36.0241 50.4047 35.8103 50.6615 35.6628 50.9564C35.5153 51.2514 35.4382 51.5765 35.4375 51.9062V56.6875C35.4375 57.2511 35.6614 57.7916 36.0599 58.1901C36.4584 58.5886 36.9989 58.8125 37.5625 58.8125H52.4375C53.0011 58.8125 53.5416 58.5886 53.9401 58.1901C54.3386 57.7916 54.5625 57.2511 54.5625 56.6875V51.9541C54.5617 51.6256 54.4853 51.3017 54.339 51.0075C54.1927 50.7134 53.9806 50.4569 53.7191 50.258L46.7624 45L53.7191 39.742C53.9806 39.5431 54.1927 39.2866 54.339 38.9925C54.4853 38.6983 54.5617 38.3744 54.5625 38.0459ZM52.4375 51.9541V56.6875H37.5625V51.9062L43.9375 47.125V50.3125C43.9375 50.5943 44.0494 50.8645 44.2487 51.0638C44.448 51.2631 44.7182 51.375 45 51.375C45.2818 51.375 45.552 51.2631 45.7513 51.0638C45.9506 50.8645 46.0625 50.5943 46.0625 50.3125V47.1356L52.4375 51.9541ZM52.4375 38.0459L51.6712 38.625H38.2704L37.5625 38.0938V33.3125H52.4375V38.0459Z" fill="white"/>
</svg>
