<svg width="34" height="34" viewBox="0 0 34 34" fill="none" xmlns="http://www.w3.org/2000/svg">
<path d="M26.9651 17.3258L23.7521 10.905C23.4502 10.3024 22.8438 9.92773 22.1692 9.92773H20.5391C20.213 9.92773 19.9492 10.1913 19.9492 10.5171C19.9492 10.8429 20.213 11.1064 20.5391 11.1064H22.1692C22.3944 11.1064 22.5966 11.2314 22.6969 11.4322L25.4831 17C25.3159 17 8.72339 17 8.517 17L11.3032 11.4322C11.4034 11.2314 11.6056 11.1064 11.8309 11.1064H13.461C13.7871 11.1064 14.0509 10.8429 14.0509 10.5171C14.0509 10.1913 13.7871 9.92773 13.461 9.92773H11.8309C11.1564 9.92773 10.5498 10.3024 10.2479 10.905L7.03488 17.3258C6.96256 17.5801 6.99942 17.4713 6.97266 17.5894V19.3574C6.97266 21.9572 9.08949 24.0723 11.6914 24.0723C13.8836 24.0723 15.715 22.5638 16.2426 20.5361H17.7574C18.2851 22.5638 20.1164 24.0723 22.3086 24.0723C24.9105 24.0723 27.0274 21.9572 27.0274 19.3574V17.5894C27.0136 17.5231 26.9976 17.4458 26.9651 17.3258ZM17.5898 19.3574H16.4101V18.1787H17.5898V19.3574Z" fill="url(#paint0_linear_539_17627)"/>
<defs>
<linearGradient id="paint0_linear_539_17627" x1="17" y1="9.92773" x2="17" y2="24.0723" gradientUnits="userSpaceOnUse">
<stop stop-color="#86F8FF"/>
<stop offset="1" stop-color="#1DC4CF"/>
</linearGradient>
</defs>
</svg>
