<svg width="24" height="24" viewBox="0 0 24 24" fill="none" xmlns="http://www.w3.org/2000/svg">
<path d="M18.945 1.34961H5.055C4.70934 1.34981 4.37787 1.48705 4.13324 1.73126C3.88861 1.97546 3.75079 2.3067 3.75 2.65236V21.4099C3.75098 21.6386 3.81493 21.8626 3.93485 22.0573C4.05477 22.2521 4.22601 22.41 4.42979 22.5139C4.63357 22.6177 4.86201 22.6634 5.09005 22.6459C5.31808 22.6284 5.5369 22.5485 5.7225 22.4149L10.7625 18.7496C11.1215 18.4865 11.5549 18.3446 12 18.3446C12.4451 18.3446 12.8785 18.4865 13.2375 18.7496L18.2775 22.4171C18.4633 22.5509 18.6823 22.6308 18.9105 22.6482C19.1387 22.6656 19.3674 22.6197 19.5712 22.5156C19.7751 22.4115 19.9463 22.2532 20.066 22.0581C20.1858 21.8631 20.2494 21.6388 20.25 21.4099V2.65236C20.2492 2.3067 20.1114 1.97546 19.8668 1.73126C19.6221 1.48705 19.2907 1.34981 18.945 1.34961ZM15.3075 6.90711C15.17 7.04811 15.0055 7.15996 14.8238 7.23599C14.6421 7.31202 14.447 7.35066 14.25 7.34961H9.75C9.35254 7.34842 8.9717 7.19001 8.69065 6.90896C8.4096 6.62791 8.25119 6.24707 8.25 5.84961C8.25294 5.45269 8.41192 5.07287 8.69259 4.7922C8.97326 4.51153 9.35309 4.35255 9.75 4.34961H14.25C14.6475 4.3508 15.0283 4.50921 15.3093 4.79026C15.5904 5.07131 15.7488 5.45215 15.75 5.84961C15.7507 6.04618 15.712 6.2409 15.6359 6.42218C15.5599 6.60346 15.4482 6.76761 15.3075 6.90486V6.90711Z" fill="#C4C8CC"/>
</svg>
