<svg width="20" height="20" viewBox="0 0 20 20" fill="none" xmlns="http://www.w3.org/2000/svg">
<path d="M1 0C0.447715 0 0 0.447715 0 1C0 1.55228 0.447715 2 1 2H2C2.55228 2 3 2.44772 3 3V12C3 13.1046 3.89543 14 5 14H15.4724C16.3743 14 17.1646 13.3964 17.4019 12.5262L18.9665 6.78935C19.487 4.88093 18.0504 3 16.0722 3H5C5 1.34315 3.65685 0 2 0H1Z" fill="white" fill-opacity="0.3"/>
<path d="M5.5 20C6.88071 20 8 18.8807 8 17.5C8 16.1193 6.88071 15 5.5 15C4.11929 15 3 16.1193 3 17.5C3 18.8807 4.11929 20 5.5 20Z" fill="white" fill-opacity="0.3"/>
<path d="M14.5 20C15.8807 20 17 18.8807 17 17.5C17 16.1193 15.8807 15 14.5 15C13.1193 15 12 16.1193 12 17.5C12 18.8807 13.1193 20 14.5 20Z" fill="white" fill-opacity="0.3"/>
</svg>
