<svg width="24" height="24" viewBox="0 0 24 24" fill="none" xmlns="http://www.w3.org/2000/svg">
<path d="M14.8501 7.9498C14.8501 6.37499 13.5749 5.0998 12.0001 5.0998C10.4253 5.0998 9.1501 6.37499 9.1501 7.9498C9.1501 9.52462 10.4253 10.7998 12.0001 10.7998C13.5749 10.7998 14.8501 9.52462 14.8501 7.9498ZM16.6501 7.9498C16.6501 10.5187 14.569 12.5998 12.0001 12.5998C9.43117 12.5998 7.3501 10.5187 7.3501 7.9498C7.3501 5.38087 9.43117 3.2998 12.0001 3.2998C14.569 3.2998 16.6501 5.38087 16.6501 7.9498ZM5.9001 18.4284C5.9001 19.1972 5.80933 19.0998 6.23539 19.0998H17.7648C18.1909 19.0998 18.1001 19.1972 18.1001 18.4284C18.1001 16.5358 15.3219 15.3998 12.0001 15.3998C8.67829 15.3998 5.9001 16.5358 5.9001 18.4284ZM4.1001 18.4284C4.1001 15.1016 7.77289 13.5998 12.0001 13.5998C16.2273 13.5998 19.9001 15.1016 19.9001 18.4284C19.9001 20.164 19.2146 20.8998 17.7648 20.8998H6.23539C4.78564 20.8998 4.1001 20.164 4.1001 18.4284Z" fill="#1DC4CF"/>
</svg>
