<svg width="22" height="16" viewBox="0 0 22 16" fill="none" xmlns="http://www.w3.org/2000/svg">
<path d="M8.89999 5.4C8.89999 4.90294 8.49705 4.5 7.99999 4.5C7.50293 4.5 7.09999 4.90294 7.09999 5.4V7.09999H5.4C4.90294 7.09999 4.5 7.50293 4.5 7.99999C4.5 8.49704 4.90294 8.89999 5.4 8.89999H7.09999V10.6C7.09999 11.097 7.50293 11.5 7.99999 11.5C8.49705 11.5 8.89999 11.097 8.89999 10.6V8.89999H10.6C11.097 8.89999 11.5 8.49704 11.5 7.99999C11.5 7.50293 11.097 7.09999 10.6 7.09999H8.89999V5.4Z" fill="#1DC4CF"/>
<path fill-rule="evenodd" clip-rule="evenodd" d="M13.9537 1.03427C13.3018 0.685651 12.6553 0.5 10.8722 0.5H5.12777C3.34473 0.5 2.69816 0.685651 2.04631 1.03427C1.39446 1.38288 0.88288 1.89446 0.534265 2.54631C0.185651 3.19816 0 3.84473 0 5.62777V10.3722C0 12.1553 0.185651 12.8018 0.534265 13.4537C0.88288 14.1055 1.39446 14.6171 2.04631 14.9657C2.69816 15.3143 3.34473 15.5 5.12777 15.5H10.8722C12.6553 15.5 13.3018 15.3143 13.9537 14.9657C14.6055 14.6171 15.1171 14.1055 15.4657 13.4537C15.6755 13.0614 15.8263 12.671 15.9131 12.0337L18.3907 13.4784C18.7578 13.6926 19.1751 13.8054 19.6 13.8054C20.9255 13.8054 22 12.7309 22 11.4054V4.59462C22 4.16969 21.8872 3.75238 21.6731 3.38533C21.0052 2.24041 19.5356 1.85368 18.3907 2.52155L15.9131 3.96632C15.8263 3.32899 15.6755 2.9386 15.4657 2.54631C15.1171 1.89446 14.6055 1.38288 13.9537 1.03427ZM5.12777 2.3H10.8722C12.2261 2.3 12.6604 2.38387 13.1048 2.62153C13.443 2.80238 13.6976 3.05702 13.8785 3.39519C14.1161 3.83958 14.2 4.27387 14.2 5.62777V10.3722C14.2 11.7261 14.1161 12.1604 13.8785 12.6048C13.6976 12.943 13.443 13.1976 13.1048 13.3785C12.6604 13.6161 12.2261 13.7 10.8722 13.7H5.12777C3.77387 13.7 3.33958 13.6161 2.89519 13.3785C2.55702 13.1976 2.30238 12.943 2.12153 12.6048C1.88387 12.1604 1.8 11.7261 1.8 10.3722V5.62777C1.8 4.27387 1.88387 3.83958 2.12153 3.39519C2.30238 3.05702 2.55702 2.80238 2.89519 2.62153C3.33958 2.38387 3.77387 2.3 5.12777 2.3ZM16 6L19.2977 4.07635C19.5839 3.90939 19.9513 4.00607 20.1183 4.2923C20.1718 4.38406 20.2 4.48839 20.2 4.59462V11.4054C20.2 11.7367 19.9314 12.0054 19.6 12.0054C19.4938 12.0054 19.3894 11.9772 19.2977 11.9236L16 10V6Z" fill="#1DC4CF"/>
</svg>
